<svg width="58" height="84" viewBox="0 0 58 84" fill="none" xmlns="http://www.w3.org/2000/svg">
<path d="M20.0533 6.95553C20.1016 7.11542 20.362 7.23647 20.5569 7.31686C20.4003 7.09645 20.2446 6.87875 20.0888 6.65834C20.0459 6.75286 20.0335 6.85825 20.0533 6.96005M5.63599 38.5818C5.82995 38.103 6.04487 37.636 6.27344 37.1825L5.67059 36.0552C5.41255 35.9372 5.14274 35.8463 4.86558 35.7842L3.01879 35.3587C2.87103 35.075 2.63548 34.8458 2.34673 34.7047C2.15732 34.6144 1.96335 34.5349 1.76665 34.459C1.35566 35.255 0.994955 36.0756 0.686627 36.916C0.504498 37.421 0.349688 37.9377 0.199432 38.4571L0 39.4887C0.0143949 39.7038 0.0408448 39.9179 0.0792264 40.1301C0.170291 40.5357 0.443485 40.7434 0.853275 40.7814L2.0872 41.0479L1.72294 48.0034L1.79944 48.1958C1.76574 48.5987 1.72476 49.0088 1.69471 49.4072C1.70473 49.5291 1.71475 49.6502 1.72294 49.7685C1.74844 50.1407 1.77394 50.5038 1.80672 50.8525C1.82767 51.0729 1.85316 51.2879 1.88868 51.5038C1.97974 52.0458 2.41776 52.2969 2.96415 52.2337C3.41947 52.1804 3.61891 51.9067 3.64896 51.3304C3.68174 50.7224 3.7127 50.1163 3.74002 49.5084C3.75732 49.1588 3.77827 48.8092 3.79557 48.4614C3.832 47.8291 3.86478 47.2022 3.90576 46.5735C3.92124 46.3124 3.94401 46.0486 3.96768 45.7876C3.96768 45.7876 3.96768 45.7876 3.96222 45.7876C3.99773 45.3946 4.04145 44.9285 4.09517 44.569C4.20992 43.8057 4.51953 42.1788 4.51953 42.1788L4.75448 41.2159C4.993 40.3183 5.28554 39.4356 5.63052 38.5727M33.1967 66.3481C32.5043 67.2561 31.7268 68.0969 30.8745 68.8594C30.4049 69.2859 29.9844 69.7628 29.6206 70.2812C29.3734 70.6259 29.1481 70.9855 28.9458 71.3579C28.7284 71.7584 28.5275 72.1691 28.3429 72.5901C28.1872 72.9514 28.1608 73.3019 28.5251 73.5711C28.8647 73.824 29.2372 73.806 29.6033 73.4943C29.7723 73.3349 29.9316 73.1657 30.0804 72.9875L31.5575 71.4212C31.9464 71.0111 32.3316 70.6001 32.7177 70.1872C33.3287 69.5314 33.9671 68.8928 34.5344 68.1999C34.5827 68.1385 34.6364 68.0834 34.6828 68.0193C35.2312 67.3138 35.7241 66.5676 36.1572 65.7872C36.3557 65.4322 36.5424 65.0726 36.7163 64.7032C37.4341 63.1733 38.0079 61.5809 38.4302 59.9463C38.7218 58.8544 38.9378 57.744 39.0767 56.6229L39.1678 55.6961C39.2955 54.1724 39.2285 52.6387 38.9683 51.1316C38.8846 51.0702 38.7971 51.0097 38.7134 50.951C37.7016 50.2211 36.801 50.2211 36.0916 50.9582C36.169 51.4044 36.2501 51.8507 36.322 52.3014C36.5171 53.5303 36.6109 54.7729 36.6025 56.0168C36.6025 56.3158 36.5925 56.6175 36.5752 56.9201C36.5176 58.1309 36.3395 59.3331 36.0434 60.509C35.6299 62.1459 34.9584 63.7078 34.0536 65.1368C33.7895 65.555 33.5072 65.9579 33.1994 66.3508M1.83404 32.8601C1.82983 32.8439 1.82466 32.8279 1.81856 32.8123C1.81292 32.8204 1.80776 32.8288 1.80308 32.8375L1.83404 32.8601ZM11.6608 44.999C11.8366 44.8292 11.9112 44.6639 11.7983 44.522C11.719 44.4262 11.671 44.3087 11.6608 44.1851L12.271 43.2249C12.712 42.1246 13.2489 41.0647 13.8755 40.0569C13.952 39.9322 14.0285 39.8112 14.1059 39.6893C13.6877 39.3458 13.2345 39.0467 12.7536 38.7968C12.4221 38.6351 12.0843 38.4725 11.7519 38.3153C11.1921 39.58 10.6139 40.8344 10.0171 42.0785C9.53995 43.0647 9.22601 44.1207 9.08733 45.2058L8.95893 46.2989C8.70577 48.615 8.45534 50.9335 8.20765 53.2545C7.95995 55.6031 7.69951 57.9517 7.48733 60.3058C8.02051 61.3467 8.43733 62.4423 8.73036 63.5731C8.87799 63.4886 9.00513 63.3729 9.10281 63.2344C9.27675 62.9634 9.32228 62.602 9.39422 62.2805C10.2266 58.5226 10.5781 54.7034 10.7046 50.8715C10.7656 48.8815 11.087 46.9077 11.6608 44.9999M46.0623 56.2011C45.8009 56.006 45.301 55.8488 45.0524 55.968C44.9465 56.0192 44.8373 56.0632 44.7254 56.0999C44.6157 57.3402 44.3901 58.5676 44.0516 59.7665H42.5035C42.6454 59.0467 42.7442 58.3191 42.7994 57.5877C42.8274 57.1698 42.8495 56.7542 42.8659 56.3411C42.5791 56.3411 42.2886 56.3411 42.0026 56.361C41.5883 56.3863 41.1639 56.379 40.745 56.389C40.5498 59.2284 39.8202 62.0064 38.5941 64.5794C38.8518 64.5794 39.1104 64.5794 39.3681 64.5975C39.777 64.6228 40.2187 64.6128 40.5966 64.481C40.8556 64.397 41.1192 64.3276 41.3861 64.2732L42.2057 64.1386C42.9984 64.0595 43.7949 64.0224 44.5916 64.0275C44.7783 63.7104 44.9558 63.3861 45.1134 63.0465C46.0217 61.0477 46.5762 58.9087 46.7525 56.7232C46.5222 56.548 46.2972 56.3709 46.0605 56.2011M35.9168 72.4329C36.2282 71.8801 36.6626 71.3914 37.087 70.9099C37.5849 70.3503 38.1282 69.8322 38.7115 69.3607C38.2438 69.3754 37.7786 69.4337 37.3219 69.535C37.005 69.5938 36.7109 69.7609 36.394 69.8322C35.9523 69.9226 35.5079 70.0192 35.0608 70.1105C34.367 70.9025 33.6145 71.6419 32.8097 72.3227C33.0701 73.1592 33.3952 73.9785 33.6556 74.8141C34.5922 74.2139 35.368 73.3975 35.9168 72.4347M40.4263 50.7685C40.5174 51.2879 40.5838 51.8028 40.6403 52.3141C40.7626 53.3715 40.8104 54.4361 40.7833 55.5001C41.4863 55.4098 42.1911 55.3249 42.8941 55.2391C42.8941 54.7829 42.8941 54.3294 42.8859 53.8759C42.8295 51.708 42.5618 49.5644 41.9562 47.4461C41.88 47.1761 41.7747 46.915 41.642 46.6674C41.6165 46.6223 41.5983 46.569 41.571 46.5256C41.5036 46.405 41.4076 46.3026 41.2913 46.2271C41.175 46.1517 41.0418 46.1057 40.9035 46.0929C40.7436 46.0748 40.5816 46.0902 40.4281 46.1381C39.9582 46.2853 39.746 46.5617 39.746 47.0811C39.746 47.3279 39.7716 47.574 39.8225 47.8155C40.0174 48.802 40.2524 49.7803 40.4263 50.7685ZM26.3769 76.5512C25.6602 77.0204 25.1141 77.7052 24.8187 78.505C24.6248 79.047 24.826 79.5366 25.2868 79.7769C25.6675 79.9748 26.0426 79.8456 26.3951 79.3569C26.6453 79.0144 26.9256 78.6945 27.2329 78.4012C27.0829 77.6893 26.9348 76.9857 26.7885 76.2901C26.65 76.3804 26.5098 76.4599 26.375 76.5512M32.3507 75.5376C32.5119 75.4636 32.6676 75.385 32.8233 75.3019L33.6538 74.8123L32.8078 72.3209L32.1312 72.881C30.9815 73.785 29.7576 74.592 28.4722 75.2937C28.2091 75.4356 27.9486 75.5882 27.6882 75.7373C27.8029 76.2522 27.9204 76.7662 28.0351 77.281L29.1634 77.0326C30.2143 76.5078 31.2898 76.039 32.3507 75.5403M18.5353 62.3663C19.2711 59.6093 19.4732 56.819 18.661 54.0331C18.4096 53.1668 18.0681 52.3249 17.8022 51.4632C17.5718 50.7215 17.5108 49.9483 17.9506 49.2609C18.4177 48.5176 18.8433 47.7496 19.2255 46.9601C18.7484 46.1315 18.2648 45.3052 17.7749 44.4814C17.7412 44.5419 17.7057 44.6033 17.6702 44.662C17.1511 45.5392 16.6685 46.4389 16.1576 47.3232C16.0173 47.5689 15.8179 47.7893 15.4855 47.6575C15.1531 47.5256 14.9747 47.2726 15.0156 46.905C15.0315 46.7308 15.0735 46.56 15.1404 46.3982C15.3453 45.9466 15.5165 45.4732 15.7951 45.0704C16.2244 44.4441 16.6157 43.7932 16.9671 43.121C16.9189 43.0406 16.8706 42.9593 16.8242 42.878C16.3415 42.065 15.7897 41.9747 14.9901 42.5004C14.7342 42.6702 14.4765 42.8346 14.2206 43.0017C13.922 43.5492 13.6248 44.096 13.3291 44.6422C12.2127 46.6999 12.4886 48.8155 13.534 50.848C13.8327 51.4315 14.1924 51.9817 14.5148 52.5544C15.7177 54.6826 16.3361 56.9644 16.2168 59.4196C16.1376 61.079 15.705 62.6608 15.124 64.2172C14.5976 65.6363 14.1305 67.078 13.667 68.5179C13.6588 68.5459 13.6615 68.5739 13.6542 68.6019C14.2416 68.8395 14.829 69.0653 15.4163 69.2984C16.1888 68.691 16.7663 67.8736 17.0782 66.9461C17.5919 65.4276 18.1237 63.9128 18.5353 62.3663ZM33.0064 39.8257L34.1383 40.9178C34.7547 41.0441 35.3952 40.9853 35.9778 40.7488C35.75 40.2498 35.494 39.764 35.211 39.2936L34.6646 38.4752C33.7604 37.2557 32.6512 36.3713 31.3863 35.8492L30.5176 35.5611C29.5057 35.2914 28.4501 35.2223 27.4113 35.3578C27.8374 35.7611 28.2917 36.1339 28.7709 36.4734C29.1762 36.7544 29.4221 36.8917 29.6242 36.8402L30.4538 37.7299C30.9981 37.9536 31.5034 38.2613 31.9509 38.6414C32.3541 38.9867 32.709 39.3837 33.0064 39.822M32.9991 32.6244C32.6667 33.2865 32.3316 33.955 31.9974 34.627C32.3824 34.7817 32.7585 34.9576 33.1238 35.1537C34.0922 35.6714 34.9718 36.3379 35.7301 37.1283C36.1818 36.5376 36.6271 35.9429 37.066 35.3443C35.9022 34.1819 34.5194 33.2578 32.9963 32.6244M18.8085 39.6838C19.4025 38.8258 20.0913 38.0362 20.862 37.3298C21.4928 36.7454 22.1657 36.2074 22.8754 35.7201C23.8934 35.0075 25.0309 34.4799 26.2348 34.1618C27.8697 33.7444 29.5913 33.8034 31.1933 34.3316C31.3881 33.9821 31.5821 33.6316 31.7788 33.282C32.0165 32.8619 32.0675 32.5142 31.9036 32.2179C30.6729 31.8204 29.4013 31.5601 28.1125 31.4419C27.3203 31.5322 26.6892 31.5485 26.0791 31.6777C25.6957 31.759 25.3251 31.8583 24.9599 31.9695C22.8558 32.5872 20.9417 33.719 19.3931 35.2612C18.7472 35.9017 18.1613 36.5992 17.6428 37.3451C17.1948 37.9838 16.7741 38.6396 16.3625 39.3035C16.7022 39.6432 17.091 39.9476 17.4607 40.2845C17.916 40.0822 18.3632 39.8844 18.8103 39.6838M35.7911 21.3807C35.7328 22.1666 35.6918 22.9552 35.6454 23.7429C36.2203 24.0193 36.7877 24.3126 37.3474 24.6227C39.1604 25.6422 40.87 26.8329 42.4525 28.1782C42.743 28.4239 43.0371 28.6696 43.3203 28.9253C44.2583 29.7617 45.1553 30.6461 46.0259 31.5639C46.1898 31.394 46.351 31.2215 46.5094 31.0499C46.8737 30.6461 47.0458 30.0354 47.2215 29.4934C47.2315 29.4627 47.237 29.4347 47.2452 29.4031C46.5167 28.6118 45.7545 27.859 44.9586 27.1448C44.6799 26.8964 44.4013 26.6507 44.1153 26.4104C42.5977 25.1238 40.9877 23.9484 39.298 22.8938C38.1901 22.1927 37.0403 21.5592 35.8549 20.9968C35.8262 21.1236 35.8065 21.2521 35.7957 21.3816M18.1419 24.3282C18.3413 24.1918 18.5435 24.0627 18.7447 23.9353C19.4081 23.5171 20.0987 23.1429 20.8119 22.8152C20.8192 21.9769 20.8164 21.1476 20.7964 20.3193C20.1311 20.5887 19.4812 20.8938 18.8495 21.2335C18.6582 21.3382 18.4743 21.4548 18.2849 21.5632C16.8072 22.4349 15.4533 23.4982 14.2589 24.7248C13.2531 25.7535 12.3424 26.8696 11.5379 28.0599C11.486 28.133 11.4304 28.2044 11.3767 28.2776C11.8439 28.8431 12.271 29.3191 12.6589 29.7229L14.3836 31.6741L16.3561 30.2604L14.7288 27.4583C14.9464 27.1999 15.1677 26.9416 15.3981 26.6959C16.2199 25.8066 17.1403 25.0124 18.1419 24.3282ZM51.5007 35.3452C51.0936 34.5819 50.6547 33.8375 50.1766 33.1122C49.8123 32.5702 49.4481 32.0282 49.0374 31.5079C49.0191 31.4853 49.0018 31.4654 48.9836 31.4446C48.4372 31.9089 47.8644 32.3904 47.2534 32.9098C47.3891 33.067 47.5266 33.226 47.6568 33.3886C47.8899 33.6704 48.1121 33.9541 48.3316 34.2431C48.5666 34.5548 48.7869 34.8754 49.0082 35.2006C49.3312 35.6798 49.6297 36.1749 49.9025 36.6839C50.2397 37.3054 50.5342 37.9488 50.784 38.6098C50.9215 38.9765 51.0499 39.3469 51.1728 39.7173C51.6937 39.1337 52.2149 38.5499 52.7364 37.9657C52.363 37.0705 51.9542 36.197 51.5025 35.3461M51.7884 41.6748C51.9086 42.0668 52.0306 42.4625 52.1527 42.8554C52.1595 42.8821 52.168 42.9083 52.1782 42.934C52.3439 43.4561 52.5133 43.9755 52.6863 44.4922C52.8448 44.3938 53.0132 44.1679 53.2591 43.8084C53.5833 43.3315 53.9184 42.8608 54.2444 42.3839C54.2407 42.3649 54.2359 42.3462 54.2299 42.3279L55.4274 40.6477L55.4356 40.6712C55.9006 40.0087 56.3647 39.3463 56.8279 38.6839C56.5259 37.7295 56.172 36.7919 55.7679 35.8754L51.4651 40.6377C51.5726 40.9828 51.6773 41.3297 51.7848 41.6748M7.82791 34.8285C8.08217 34.5192 8.35591 34.2263 8.64749 33.9513C8.84874 33.7607 9.06092 33.5765 9.28039 33.4012C9.2986 33.3886 9.31135 33.3732 9.32957 33.3606C10.3451 32.563 11.2896 31.6802 12.1526 30.722C11.8174 30.18 11.3731 29.554 10.8959 28.9234C10.3149 29.662 9.6258 30.3103 8.85148 30.8466C8.52098 31.0834 8.2131 31.3498 7.93172 31.6425C7.91897 31.6551 7.90896 31.665 7.89621 31.6759C7.69405 31.8758 7.49795 32.0809 7.30793 32.291C6.78093 32.8726 6.29702 33.4911 5.86 34.1419C6.19421 34.2702 6.52933 34.4021 6.86171 34.5241C7.17862 34.6379 7.49917 34.7345 7.82245 34.8285M27.2629 19.0393C26.2811 19.0453 25.3017 19.1344 24.3352 19.3058L23.216 19.5361C22.6246 19.6821 22.0413 19.8588 21.4685 20.0655C21.5195 20.8739 21.6242 21.6598 21.7417 22.4322C22.3087 22.2133 22.889 22.0299 23.4792 21.8829L24.3525 21.6951C25.3341 21.5174 26.3321 21.4448 27.3294 21.4783C27.3239 21.088 27.3139 20.7005 27.3094 20.3103C27.3039 19.7854 27.2966 19.3717 27.2629 19.0402M12.851 12.5968C12.4877 12.6399 12.1325 12.7348 11.7965 12.8786C11.321 13.068 10.8852 13.3437 10.5116 13.6916C9.92814 14.2197 9.39133 14.7963 8.90703 15.4152C8.74402 15.6329 8.59012 15.8587 8.43167 16.0791C8.11021 16.5199 7.78784 16.9634 7.47913 17.4115C7.95176 18.0023 8.42165 18.5858 8.88881 19.173C9.23122 18.8469 9.5891 18.5298 9.957 18.2254C10.0544 18.1468 10.1482 18.0655 10.2457 17.9851C11.0534 17.341 11.9932 17.0574 13.0332 17.2272C13.7179 17.3387 14.4133 17.3726 15.1058 17.3284C15.8374 17.2781 16.5605 17.1428 17.2604 16.9255C17.2604 16.3049 17.0027 15.7855 16.5528 15.258C16.5146 15.2146 16.4809 15.1722 16.4453 15.1288C15.5462 15.309 14.6307 15.3973 13.7134 15.3926H12.5824C12.271 15.3926 12.0433 15.2778 11.995 14.9409C11.9468 14.604 12.138 14.4134 12.4449 14.3528C12.5724 14.3294 12.7026 14.3023 12.8301 14.2715C13.4156 14.1469 14.003 14.0105 14.5931 13.9825C14.8799 13.9698 15.1659 13.9527 15.4491 13.9319C15.0381 13.4278 14.631 12.9211 14.2279 12.4116C13.7726 12.4848 13.3173 12.5534 12.851 12.6013M37.9703 16.1468C38.1524 16.6536 38.5167 16.9887 39.0075 17.2119C40.5109 17.9019 41.9354 18.7499 43.2566 19.7412L46.5349 22.5523C46.626 22.6381 46.7234 22.733 46.8208 22.8161C46.8699 22.8616 46.924 22.9016 46.982 22.9353L47.3672 22.415L47.7379 21.5514C47.6339 21.2127 47.4762 20.8925 47.2707 20.6029C46.5554 19.6408 45.7327 18.762 44.8183 17.9833L44.8101 17.9734C44.8101 17.9734 41.3925 14.9129 41.1849 14.8298C40.9772 14.7467 38.6606 13.071 38.6606 13.071L38.2052 13.9626C37.9912 14.3962 37.7818 14.8172 37.5751 15.2327C37.73 15.5258 37.863 15.8299 37.973 16.1423M1.05726 27.8331C1.4716 28.0138 1.75026 27.7573 2.00797 27.4863C2.28663 27.1945 2.55982 26.8982 2.83575 26.6064L3.48959 25.9407C3.55425 25.8792 3.61253 25.8133 3.67172 25.7528C4.56715 24.902 5.3524 23.9441 6.00935 22.901L6.62586 21.9236C7.10096 21.1634 7.64997 20.4512 8.26502 19.7972C8.09109 19.5741 7.91989 19.3455 7.74686 19.1251C7.48824 18.7981 7.22779 18.4765 6.96735 18.1522C6.77611 18.4332 6.58215 18.715 6.39 18.9959C6.02574 19.5307 5.66148 20.0628 5.28174 20.5822L4.72443 21.3301C3.9399 22.3704 3.06177 23.3379 2.10086 24.2207C1.52078 24.7691 1.40239 24.8829 1.40239 24.8829C0.935812 25.4348 0.656094 26.1184 0.602848 26.8368C0.561869 27.255 0.621061 27.6425 1.04997 27.8349M21.4967 10.4957L17.0691 11.801C16.4535 11.9581 15.8352 12.1027 15.2114 12.2264C15.6961 12.7735 16.2105 13.294 16.7522 13.7856C16.8624 13.7675 16.9717 13.7521 17.0819 13.7323V13.7142L17.9579 13.5335C18.5105 13.3887 19.0464 13.1874 19.557 12.9328L22.2043 12.1551L21.7908 11.1867C21.7162 10.9816 21.6215 10.754 21.4967 10.4948M23.1213 13.4477C23.1231 13.3577 23.1076 13.2682 23.0758 13.1839C22.176 13.4071 21.2873 13.6754 20.403 13.9897C20.1143 14.0936 19.8257 14.1902 19.537 14.286L18.0399 14.753L18.1528 19.3148C18.1528 19.3545 18.1446 19.3934 18.1446 19.4358L18.1273 19.4973L18.1628 20.0167C18.1628 20.0366 18.1628 20.0519 18.1628 20.07C18.1628 20.1106 18.1674 20.1486 18.1728 20.1892L21.4493 18.678L22.7725 18.1757L23.3936 18.014L23.1277 16.388V15.1008C23.1277 14.5407 23.1277 13.9933 23.1222 13.4486M24.7905 11.7982L28.9531 11.7151L28.9576 9.7739C28.4039 9.74319 27.8439 9.72783 27.282 9.73325C26.8395 9.73807 26.4008 9.75072 25.9662 9.77119L24.8033 9.8823C24.7961 9.87347 24.7885 9.86503 24.7805 9.85701C24.4563 9.89043 24.1339 9.92837 23.8152 9.97624C23.818 10.0041 23.8247 10.0315 23.8352 10.0575C24.1549 10.6375 24.4208 11.2508 24.7905 11.7982ZM30.7716 66.3933C32.2432 65.2045 33.2877 63.6942 34.0053 61.9471C34.6701 60.3374 34.9478 58.6401 35.2493 56.9391C34.7029 56.9391 34.1565 56.9391 33.6046 56.9445C33.3723 56.9395 33.1421 56.8983 32.9226 56.8226C32.6494 58.3917 32.2013 59.9219 31.7214 61.4503C31.4934 62.1914 31.0846 62.8653 30.5312 63.4123C30.1227 63.8068 29.6945 64.1807 29.2481 64.5324C27.9659 65.5631 26.9843 66.8007 26.3432 68.3156C26.4843 69.0662 26.6346 69.8512 26.7985 70.7256C27.0717 70.6805 27.3376 70.6353 27.609 70.5965C27.6936 70.4393 27.782 70.2857 27.8694 70.1276C28.6407 68.7293 29.5022 67.4086 30.7689 66.3897M33.2213 55.5805C33.2011 55.6801 33.2088 55.7834 33.2437 55.8789C33.2785 55.9745 33.3391 56.0587 33.4189 56.1225C33.5706 56.2359 33.7528 56.3022 33.9425 56.3131C34.182 56.3384 34.4324 56.2806 34.6783 56.2499C34.9105 56.2219 35.1427 56.1912 35.3759 56.1595C35.471 55.4694 35.4966 54.7716 35.4523 54.0765L35.4778 54.0385L35.4059 53.5797C35.36 53.1413 35.2913 52.7056 35.2001 52.2743L34.9169 51.1651C34.7302 50.5255 34.5381 49.8923 34.3496 49.2536C33.4498 49.0405 32.7295 48.5165 32.0292 47.9203L31.593 47.559C31.6932 48.0561 31.8579 48.5383 32.083 48.9935C32.3523 49.5293 32.5727 50.088 32.7414 50.6628L33.0683 52.1578L33.1912 53.9374V55.4983L33.2213 55.5805ZM26.1392 73.2052C26.0827 72.9342 26.0235 72.656 25.968 72.3823C25.1967 72.012 24.8561 72.6307 24.4199 72.9397C24.2586 73.053 24.1208 73.1959 24.0137 73.3606L22.6332 74.833C22.3217 75.1944 21.9957 75.5557 21.6515 75.9053C21.5777 75.9757 21.4803 76.0516 21.463 76.1383C21.4138 76.3633 21.3073 76.665 21.4065 76.8095C21.524 76.9766 21.8336 77.0733 22.0631 77.0805C22.238 77.071 22.4087 77.0245 22.564 76.9441L23.4555 76.4924C24.1991 76.0428 24.8235 75.4234 25.2768 74.6858C25.5755 74.1998 25.8569 73.703 26.1401 73.208M33.9762 17.1161L33.652 16.9481C33.6156 16.9481 32.3006 16.5759 32.093 16.5759C30.849 16.2814 30.2516 16.2923 28.9503 16.155C28.5651 16.687 28.2792 17.3293 28.2919 17.7719C28.2919 17.8126 28.2919 17.8532 28.2919 17.8939C30.5735 18.0761 32.8199 18.5622 34.9706 19.3392C34.8796 18.6021 34.7794 17.5253 33.9689 17.1098M37.1316 19.3347C38.3458 20.3229 39.56 21.3096 40.7742 22.2949C42.0909 23.1692 43.3561 24.1178 44.5634 25.1358C44.9413 25.2776 45.2919 25.2144 45.5933 24.7989C45.8228 24.4791 46.0577 24.1602 46.3054 23.8251C45.742 23.359 45.1653 22.9073 44.5752 22.4701C44.3858 22.3301 44.1918 22.1991 43.9997 22.0591C43.7165 21.854 43.4332 21.6463 43.1418 21.4457C41.0204 19.9727 38.721 18.7697 36.2974 17.865C36.292 17.8749 36.2865 17.8875 36.2792 17.9002C36.1881 18.0953 36.2892 18.4557 36.4222 18.6608C36.5961 18.9318 36.8821 19.1296 37.138 19.3374M57.9171 43.6819C57.7822 42.5765 57.5824 41.4798 57.3188 40.3975C57.2013 40.3189 57.0911 40.2376 56.9664 40.1644C56.5629 40.7579 56.1668 41.3324 55.7761 41.9006C55.5867 42.177 53.1853 45.0351 53.1853 45.0351L53.6653 46.9718L56.8999 46.6882C57.0828 46.7264 57.2731 46.7094 57.4463 46.6394C57.8369 46.4931 57.9999 46.1607 57.9999 45.7758C57.9999 45.0758 58.0054 44.3739 57.9216 43.6819M25.53 63.6273C25.6629 64.3933 25.7904 65.163 25.9215 65.929C26.9788 64.0076 28.2947 62.2895 30.0832 60.9282C30.4474 60.6572 30.7042 60.1983 30.8955 59.7728C31.0667 59.398 31.0976 58.9598 31.1559 58.5389C31.2279 58.0448 31.3116 57.5525 31.3936 57.0611C29.2937 58.0746 27.1983 59.089 25.0273 60.1405C24.9863 60.1586 24.948 60.1784 24.9098 60.1956C24.9298 60.3148 24.9526 60.4368 24.9763 60.5569C25.1584 61.5659 25.3487 62.5975 25.53 63.6282M31.665 52.6854C31.644 52.5255 31.6185 52.3683 31.5903 52.2111C30.962 52.3584 30.3436 52.5481 29.7125 52.6772C29.3729 52.7486 29.0077 52.6899 28.7008 52.6899C28.1772 51.3801 27.7456 50.5535 27.201 50.0549C26.7626 50.5915 26.4589 51.2237 26.3149 51.8995C26.2357 52.2689 26.1565 52.642 26.0772 53.0151C26.2457 53.95 26.2594 54.9175 26.6036 55.8226C26.854 56.4793 26.9761 57.1433 27.5871 57.6446C27.8393 57.6094 28.1417 57.622 28.3994 57.5236C29.5637 57.0846 30.6464 56.4567 31.603 55.6654C31.7314 54.6826 31.7925 53.6935 31.665 52.6845M23.0958 71.7581L23.6886 70.6335C23.7651 70.4763 23.8398 70.3164 23.9108 70.1565C24.1585 69.6145 24.3989 69.0725 24.6448 68.5305C24.5118 68.1024 24.4499 67.6489 24.358 67.2081C24.215 66.5288 24.072 65.8531 23.9336 65.1675C23.9236 65.1097 23.9163 65.0482 23.9035 64.9868C23.5393 65.9958 23.1195 66.9868 22.7151 67.9822C22.2827 69.0657 21.7363 70.1009 21.0851 71.0707L20.6052 71.9198L20.5141 72.0038C20.4853 72.0282 20.4583 72.0544 20.4331 72.0824L19.2092 73.2631C19.0197 73.4383 18.8258 73.6126 18.6218 73.7771C18.5094 73.8708 18.4104 73.9793 18.3277 74.0995C18.0107 74.5584 18.2839 75.1564 18.8458 75.1889C18.9443 75.1938 19.043 75.1871 19.1399 75.1691L20.3356 74.7861L20.8137 74.2314C21.0428 74.0807 21.2638 73.9182 21.4758 73.7445C22.1496 73.1818 22.6596 72.4979 23.0922 71.7572M29.8837 46.1227C29.6488 45.9276 29.4184 45.7298 29.1835 45.5374C29.1598 45.5175 29.1325 45.5021 29.107 45.4814L27.8075 44.1517L26.1492 45.868L27.7028 49.3151L29.2581 51.6086C30.0304 51.6384 30.7607 51.7586 31.2616 51.0811L29.9302 46.3196C29.9216 46.2526 29.9073 46.1864 29.8874 46.1218M39.4601 73.6136C39.7825 73.2314 40.1267 72.871 40.4818 72.5241C40.7247 72.2881 40.976 72.0589 41.2359 71.8367C41.8943 71.2761 42.5825 70.7508 43.2976 70.2631C43.2593 70.1294 43.2211 69.9921 43.1901 69.8575C43.0808 69.3734 42.6565 68.9885 42.1556 68.7862C41.6249 69.2262 41.0698 69.6364 40.4928 70.0147C40.4618 70.0328 40.4363 70.0527 40.4017 70.0734C40.1895 70.2098 39.9828 70.3625 39.7788 70.517C39.0594 71.0717 38.3922 71.69 37.7854 72.3643C37.2628 72.9526 36.8704 73.6432 36.6335 74.3913C36.4878 74.843 36.3193 75.2838 36.1381 75.7174L35.7829 75.9559L35.1646 77.6722L35.762 77.4012C35.7337 77.4264 35.7032 77.4491 35.6709 77.4689C35.5103 77.5572 35.3397 77.6263 35.1628 77.6749C35.109 77.7706 35.058 77.8646 35.0016 77.9585C35.6991 78.2648 36.1973 78.5909 36.8511 78.1988C38.32 77.3099 39.8025 76.4382 41.3451 75.5205C41.3451 75.3398 41.3788 75.2115 41.3406 75.1022C41.1994 74.6822 41.0592 74.2639 40.919 73.843C40.7933 73.9333 40.6685 74.0237 40.541 74.1068C40.0802 74.4103 39.5876 74.4157 39.0968 74.1366C39.1094 74.0857 39.1283 74.0365 39.1532 73.9902C39.2506 73.8629 39.3526 73.7391 39.4546 73.6144M46.0368 70.2866L45.8455 70.0156L45.5951 70.1963C45.4874 70.2139 45.3867 70.2605 45.3037 70.3309C45.0351 70.5513 44.7692 70.7744 44.5014 70.9948L41.7695 73.3597L41.9753 74.2495C41.9771 74.5108 42.0375 74.7684 42.152 75.0038L42.2567 75.2531C42.5299 75.1411 42.8031 75.03 43.0899 74.9306C43.9815 74.6225 44.7593 74.0561 45.3228 73.3046L46.2189 71.713C46.2672 71.5937 46.3182 71.4745 46.3646 71.3516C46.4222 71.172 46.4319 70.9806 46.3928 70.7961C46.3726 70.6911 46.3302 70.5916 46.2685 70.504C46.2069 70.4163 46.1273 70.3426 46.035 70.2875M44.9613 67.5224C45.4904 67.489 45.6898 67.0708 45.6161 66.6553C45.525 66.1584 45.7208 65.5631 45.3884 65.1323C45.3105 65.0269 45.2112 64.9389 45.097 64.8739C45.0238 64.8364 44.9401 64.8247 44.8593 64.8405C44.5552 64.8911 44.2519 64.9444 43.9487 64.9977L40.6986 65.2587C40.3079 65.2822 39.9655 65.2289 39.6741 65.3301C39.1454 65.5083 38.5989 65.6295 38.044 65.6914L36.098 68.8034L39.2069 68.2921C39.532 68.2388 39.859 68.1855 40.1859 68.1367C40.2596 68.1241 40.3207 68.1087 40.3871 68.0961L43.4533 67.5848C43.9572 67.5721 44.4586 67.551 44.9577 67.5215M35.4642 26.6823C35.4159 27.3146 35.8193 27.6534 36.22 27.8512C37.158 28.3101 37.912 28.9993 38.6788 29.6705C39.0512 29.9948 39.4273 30.3173 39.828 30.6063C39.9444 30.6845 40.0717 30.7454 40.2059 30.787C40.541 31.0508 40.868 31.3218 41.1876 31.6054C41.959 32.2972 42.6779 33.0445 43.3385 33.8411C43.9506 33.4471 44.5276 33.002 45.0633 32.5105C44.2358 31.6283 43.3707 30.7867 42.468 29.9858C42.0664 29.6289 41.6575 29.2739 41.2459 28.9289C40.6895 28.46 40.1294 28.0021 39.5594 27.5504C38.3281 26.5646 36.9878 25.7209 35.5644 25.0355C35.5316 25.5857 35.5033 26.1349 35.4624 26.6823M45.1152 35.7426C45.0477 35.8321 44.9868 35.9263 44.9331 36.0245C45.1626 36.3858 45.3884 36.7598 45.6024 37.1446C45.6762 37.2765 45.7636 37.3984 45.8428 37.5276L47.6259 39.8844C48.1722 40.4417 48.7041 41.0117 49.4016 41.7398C49.6921 41.402 49.9143 41.1391 50.1219 40.9006C49.752 39.7933 49.2997 38.7148 48.7687 37.6739L47.9127 36.1789C47.5676 35.6189 47.1942 35.0769 46.7963 34.5439C46.0523 34.6532 45.5623 35.1473 45.1152 35.7426ZM28.9849 8.44331C28.9959 7.83266 29.0077 7.22111 29.0205 6.61317C27.3794 6.56132 25.7366 6.61715 24.103 6.78029C24.4326 7.33041 24.7595 7.87783 25.0892 8.42524C26.3852 8.28585 27.693 8.29191 28.9877 8.44331M15.5101 10.7522C15.9982 10.6248 16.4836 10.4911 16.9671 10.3565C17.5035 10.2066 17.8632 10.1027 17.8632 10.1027C18.8449 9.82449 19.8257 9.54536 20.8064 9.28159C20.8474 9.32766 20.8602 9.33489 20.8219 9.28159C20.0023 7.91757 18.8904 6.42528 18.1273 5.76857C18.0581 5.71346 17.9944 5.65475 17.9324 5.61139C17.9251 5.73605 17.917 5.84716 17.9097 5.95917L16.7067 7.00883C15.5302 7.85795 14.1951 8.42524 12.7463 8.83174C12.6552 8.85432 12.5751 8.88503 12.4904 8.91032C13.0632 9.62214 13.6196 10.3322 14.1897 11.0286C14.6341 10.9554 15.0739 10.8669 15.5083 10.7576M20.0888 6.66195L20.6152 7.32048C20.597 7.32048 20.577 7.3259 20.5615 7.32048C20.546 7.31506 20.5615 7.32048 20.5569 7.32048C20.8474 7.7342 21.1361 8.14702 21.4302 8.55532C21.6124 8.80825 21.7626 8.94555 21.9411 8.99072C22.1196 9.03589 22.3554 8.98078 22.7024 8.81006C22.7935 8.76489 22.8945 8.7134 23.0066 8.65559C23.5684 8.35659 23.6504 8.01152 23.3389 7.45688C23.2397 7.27621 23.1422 7.09555 23.0421 6.91488L22.6541 5.00165C22.5977 4.64935 22.3937 4.51024 22.0431 4.52559C21.9438 4.52559 21.8418 4.52559 21.7417 4.52559C21.5532 4.52559 21.361 4.52559 21.1725 4.52559C20.362 4.53553 19.6089 4.71258 18.9542 5.10011C19.0452 5.21754 19.1463 5.33316 19.2328 5.4524C19.5215 5.85077 19.8056 6.25365 20.0888 6.65924M7.31157 14.5082C7.37153 14.474 7.42959 14.4366 7.48551 14.3962C7.71317 14.239 7.91442 14.0493 8.12933 13.8741C8.66844 13.4278 9.19206 12.9644 9.7521 12.5435C10.1351 12.2503 10.5448 11.9932 10.976 11.7757C11.6105 11.4509 12.3016 11.2488 13.0122 11.1804L13.2262 11.1578C12.9457 10.8055 12.664 10.4556 12.3811 10.1081C12.1123 9.79457 11.8237 9.49829 11.5169 9.22107C10.8795 9.44238 10.242 9.68989 9.6237 9.95908C9.39968 10.0575 9.16838 10.1542 8.94983 10.2554C7.74595 10.8082 6.80343 11.7531 5.93468 12.744C5.81922 12.8709 5.72679 13.0167 5.66148 13.1749C5.49757 13.5859 5.61322 13.9879 5.95744 14.3492C6.35357 14.7621 6.77703 14.8181 7.30884 14.5091M10.263 37.6703C9.70839 37.4445 9.14835 37.2313 8.57919 37.057C8.42422 37.011 8.26496 36.9807 8.10384 36.9666C6.99194 38.5384 6.03667 40.1852 5.59683 42.056L5.43109 43.2041C5.42337 43.1811 5.4133 43.159 5.40104 43.1381C5.37554 43.3405 5.3546 43.541 5.3291 43.7416C5.34185 43.7262 5.35004 43.7136 5.36006 43.7009L5.17793 44.9881C5.07321 45.9104 4.98579 46.8336 4.90474 47.7604C4.87651 48.1218 4.85374 48.4958 4.82824 48.8607C4.75995 49.895 4.70257 50.9284 4.67981 51.9654C4.74355 53.3439 4.80275 54.7196 4.87651 56.099C4.88652 56.2914 4.89472 56.4838 4.90474 56.6762C4.92295 56.9608 4.98396 57.277 5.13695 57.5028C5.26262 57.6834 5.55949 57.8451 5.76803 57.8325C5.86519 57.8152 5.95404 57.767 6.02119 57.6952C6.11949 57.6094 6.19435 57.5003 6.23883 57.3781C6.42734 56.7223 6.62677 56.053 6.67776 55.3764C6.8007 53.7549 6.89996 52.1244 6.90816 50.4984C6.90816 49.4897 6.95824 48.4927 7.05841 47.5075C7.09484 47.1218 7.14948 46.737 7.20139 46.354C7.58204 43.6729 8.35608 41.0858 9.69291 38.6297C9.86958 38.3027 10.0635 37.9856 10.2602 37.6694M57.0656 57.6708C56.9454 57.5967 56.5857 57.7331 56.4527 57.8858C56.0539 58.3375 55.6659 58.7954 55.2871 59.2616C55.0604 59.5407 54.8318 59.8189 54.6105 60.1035C54.3549 60.4304 54.1374 60.7849 53.9621 61.1603C53.8391 61.4177 53.7397 61.6856 53.6653 61.9607C53.6149 62.1428 53.5739 62.3273 53.5423 62.5135C53.3241 64.0069 52.7331 65.4226 51.823 66.6318C51.732 66.7537 51.6409 66.8702 51.5444 66.9931C50.6018 68.2198 49.6083 69.4059 48.6303 70.6064L47.3035 72.3083C47.0995 72.5792 46.8901 72.8502 46.6852 73.1212C46.7226 73.1891 46.7682 73.2522 46.8208 73.3091C47.1733 73.6939 47.5494 74.0715 48.1085 74.0896C48.6373 73.4874 49.1603 72.8816 49.6775 72.2721C49.5801 72.2721 49.4827 72.2721 49.3834 72.2793L50.4989 71.2667C50.8486 70.8412 51.2038 70.4176 51.5462 69.984C52.0826 69.3029 52.6116 68.6182 53.1853 67.9723C53.8802 67.1792 54.636 66.4466 55.543 65.8612C56.3171 65.3644 56.532 64.602 56.6622 63.7836C56.7232 63.4114 56.4965 63.1955 56.1231 63.2082C55.8089 63.2208 55.4966 63.2985 55.1013 63.3554C55.2134 63.1224 55.298 62.9399 55.39 62.7601C55.6602 62.2272 55.9309 61.6948 56.2023 61.163C56.5757 60.4362 56.9463 59.709 57.3142 58.9815C57.4189 58.7756 57.5637 58.5244 57.5209 58.332C57.4557 58.0626 57.2938 57.826 57.0656 57.6663M13.4593 53.8308C13.1962 53.2454 12.8738 53.0377 12.4422 53.1334C12.0305 53.2237 11.8466 53.5345 11.8593 54.1731C11.8703 54.6519 11.9204 55.1307 11.9285 55.6094C11.9613 57.7331 11.4732 59.7647 10.8458 61.7728C10.5489 62.7393 10.3905 63.7475 10.171 64.7357C10.2038 64.7465 10.2375 64.7565 10.2703 64.7691C10.3295 65.2434 10.3613 65.7248 10.4524 66.1928C10.5598 66.7104 10.8968 66.9461 11.4259 66.9561C12.0342 66.9687 12.3365 66.6417 12.4786 65.9624C12.7008 64.8983 12.9667 63.8414 13.2344 62.7872C13.5076 61.7032 13.8582 60.6355 14.0904 59.5407C14.5148 57.5769 14.2826 55.6627 13.453 53.8281M20.6298 49.4713C20.3775 48.9899 20.1143 48.5165 19.8512 48.045C19.6026 49.0233 19.4678 50.0142 19.3193 50.7866C19.4013 51.7929 19.4477 52.5182 19.5215 53.2373C19.5598 53.6176 19.731 53.9067 20.1681 53.9347C20.6052 53.9627 20.9649 53.754 21.0541 53.324C21.1328 52.955 21.1491 52.5755 21.1024 52.2012C21.0364 51.744 21.0364 51.2799 21.1024 50.8227C21.0037 50.3529 20.8449 49.8975 20.6298 49.4677M33.7431 77.8321C33.7995 77.6875 33.8405 77.5358 33.8988 77.394C33.8633 76.8059 33.4926 76.5448 32.959 76.7833C32.5319 76.9757 32.103 77.1609 31.6841 77.3632C31.3699 77.5159 31.0585 77.6731 30.7616 77.8528C29.9675 78.3505 29.2014 78.8909 28.4668 79.4716C28.4841 79.7652 28.4996 80.057 28.5205 80.346C28.5506 80.8528 28.8602 81.1066 29.3328 81.0687C29.7943 81.02 30.2511 80.9345 30.6988 80.813C31.8427 80.0962 32.8344 79.1646 33.6183 78.0705C33.6684 77.997 33.7097 77.9178 33.7412 77.8348M46.565 46.9294C46.5704 46.9447 46.5804 46.9574 46.5859 46.9727C46.7207 47.2997 46.9839 47.4976 47.3827 47.4244L50.5481 47.3865C50.7108 47.3797 50.8666 47.3195 50.991 47.2153C51.1154 47.1112 51.2015 46.969 51.2357 46.8111C51.2738 46.6409 51.2994 46.4682 51.3121 46.2943C51.3576 45.7576 51.3117 45.2171 51.1765 44.6955C50.6711 44.1779 50.1165 43.7018 49.4462 43.3667L46.391 40.6477C46.3113 40.5724 46.214 40.518 46.1078 40.4893C46.0016 40.4606 45.8899 40.4585 45.7827 40.4833C45.691 40.4996 45.6059 40.5416 45.5375 40.6043C45.4691 40.6671 45.4202 40.748 45.3966 40.8374L44.9167 41.2818L46.2016 45.6584C46.2298 45.7695 46.2581 45.8815 46.2927 45.9926C46.3737 46.307 46.4611 46.625 46.5659 46.9276M2.63359 21.1169C2.99785 21.2542 3.18817 20.9706 3.38032 20.7294C3.52056 20.5487 3.66626 20.3753 3.8065 20.1946C3.82653 20.1666 3.85021 20.1413 3.86751 20.1142C4.03416 19.8902 4.19717 19.6626 4.3629 19.4395C4.92568 18.6662 5.49028 17.8939 6.03667 17.1107C6.05381 17.0825 6.06699 17.0521 6.07583 17.0204C6.12874 16.8759 6.1268 16.7173 6.07036 16.5741C5.84543 16.1378 5.61504 15.9806 5.3036 16.0674C5.13891 16.1193 4.98608 16.2028 4.85374 16.3131C4.22879 16.8059 3.67698 17.3837 3.21458 18.0294C3.02608 18.2832 2.85032 18.5416 2.68094 18.8098C2.49881 19.0989 2.32579 19.3979 2.15732 19.7023C2.09443 19.8467 2.05065 19.9985 2.0271 20.154C2.03985 20.6734 2.24929 20.9751 2.63723 21.1169M42.1711 76.7535C42.0093 76.7389 41.8462 76.7493 41.6875 76.7842C41.6475 76.7942 41.6065 76.7969 41.5682 76.8095C40.3645 77.1889 39.2778 77.8656 38.4101 78.776C38.3307 78.8619 38.2628 78.9576 38.208 79.0606L36.1572 79.6351L34.4552 79.0606L34.1073 79.3262C33.9589 79.5339 33.8059 79.7417 33.6474 79.9449C33.6802 79.9341 33.7139 79.9269 33.7467 79.9169L32.9827 81.1708C32.9827 81.402 33.0901 81.5998 33.3096 81.7823C33.3993 81.8619 33.5057 81.9207 33.6212 81.9544C33.7366 81.9882 33.8582 81.996 33.9771 81.9774L34.0591 82C34.0591 82 37.2782 81.0118 37.6151 80.9892C37.9521 80.9666 38.9128 80.3569 38.9128 80.3569C39.084 80.2738 39.2552 80.1816 39.4264 80.0958C40.2663 79.6684 41.0808 79.1937 41.866 78.674C42.0809 78.5294 42.2394 78.291 42.3778 78.0326C42.4689 77.8519 42.5599 77.6713 42.6428 77.496C42.8167 77.141 42.5763 76.796 42.1756 76.7553M13.1297 7.58154C13.2727 7.64477 13.4357 7.70529 13.585 7.78659C14.2616 7.48759 14.9319 7.2193 15.573 6.89772C15.7909 6.77581 15.965 6.5895 16.0711 6.36476C16.1885 6.11183 16.3342 5.70353 16.2168 5.55177C16.2045 5.53776 16.1907 5.52505 16.1758 5.51383C16.0019 5.33316 15.6294 5.20399 15.3863 5.25458C15.12 5.31244 14.8573 5.38543 14.5995 5.47318C14.2352 5.58971 13.8837 5.72611 13.5367 5.87335C13.2862 5.9934 13.0798 6.18831 12.9467 6.4307C12.9075 6.50658 12.8674 6.58788 12.8283 6.6737C12.7372 6.89772 12.6707 7.138 12.7372 7.29789C12.7882 7.41894 12.9421 7.50295 13.126 7.58154M25.3979 5.71888C25.7968 5.79476 26.2002 5.85077 26.6391 5.91852C27.0717 5.85077 27.5316 5.78483 27.9887 5.70353C28.3156 5.64571 28.556 5.48583 28.5915 5.11546C28.6271 4.7451 28.5005 4.4461 28.1517 4.29163C27.1764 3.85804 26.1902 3.94205 25.224 4.31964C24.8688 4.45694 24.7741 4.79388 24.8151 5.15882C24.8533 5.50299 25.0883 5.66017 25.3979 5.71888ZM22.3928 47.8445L26.6728 42.4968L25.8696 41.0515L25.8623 41.0334C25.8347 40.785 25.7241 40.5529 25.5482 40.374C25.3978 40.2063 25.1888 40.1013 24.9635 40.0804L21.6315 38.4092C21.6233 38.4192 21.6133 38.4291 21.6032 38.4418C21.6056 38.441 21.6082 38.441 21.6105 38.4418L20.4895 39.9774C19.9277 40.8419 19.3968 41.7262 18.875 42.6178C19.3193 43.3504 19.7583 44.0857 20.2009 44.8183L20.8602 45.9122C20.8602 45.9122 21.9001 48.6981 22.3955 47.849M23.6112 53.6248C23.675 53.9952 23.7399 54.3652 23.8061 54.735C23.8389 54.9157 23.9081 55.0846 23.9536 55.2616L24.2122 56.4938L24.6239 58.1134L25.2413 58.0881C25.2413 58.0954 25.2413 58.1053 25.2413 58.1134C25.5245 58.0927 25.8159 58.0728 26.1519 58.0502C25.9652 57.062 25.8095 56.1641 25.6356 55.2896L25.0892 52.7811C24.9872 52.3602 24.877 51.9419 24.7441 51.5291C24.653 51.2301 24.5373 50.9329 24.4226 50.6393C24.4408 50.6168 24.4536 50.5987 24.469 50.5761L24.5501 50.5833L26.0809 48.5662L25.3169 47.0206C24.8442 47.3702 24.5483 47.6385 24.4199 47.8842L22.8153 49.4235L22.9401 50.4298L23.6112 53.6248ZM36.9066 38.589L38.0978 40.9151L38.9101 43.2339C38.992 43.485 39.0755 43.7358 39.1605 43.9864C39.2862 44.3621 39.5002 44.6304 39.9418 44.6232C40.3835 44.616 40.7113 44.382 40.847 43.9385C40.8878 43.8297 40.9094 43.7148 40.9108 43.5988C40.898 43.4137 40.8953 43.2267 40.8898 43.0388C40.8843 42.8509 40.8743 42.6774 40.857 42.5013C40.8424 42.3161 40.8098 42.1328 40.7596 41.9539C40.6986 41.7515 40.6348 41.5483 40.5711 41.3432C40.348 40.5985 40.072 39.8704 39.7451 39.1644L38.8873 37.6288C38.5475 37.0948 38.1717 36.5842 37.7627 36.1003C37.4767 36.5087 37.1908 36.9188 36.8966 37.3397L36.9121 37.3551L36.5661 37.8546L36.9066 38.589ZM46.2681 49.8643C46.1351 49.2554 45.9867 48.6529 45.8282 48.0495L45.8137 48.0721L45.5478 47.0179C45.5478 47.0179 45.5532 47.0125 45.5532 47.0107C45.5068 46.83 45.4622 46.6575 45.4121 46.4804C45.0005 44.9502 44.5925 43.4091 44.3293 41.8527C44.2257 41.9464 44.1085 42.0241 43.9815 42.0831C43.344 42.3595 42.8395 42.7858 42.3878 43.2574C42.651 44.8237 42.916 46.3901 43.3986 47.9086L46.2681 49.8643ZM40.8807 33.1682C40.7195 32.955 40.5465 32.8565 40.3771 32.8511C40.1886 32.8412 40.0047 32.9478 39.8535 33.1555C39.4756 33.6704 39.1049 34.1898 38.7316 34.7165C39.1641 35.1888 39.5621 35.6911 39.9227 36.2196C39.9992 36.3307 40.0629 36.4454 40.1322 36.5565L40.9445 38.0696L42.1374 41.8816C42.62 41.3794 43.0244 40.8292 43.2721 40.1147L44.2018 39.2584C44.2369 39.2698 44.2728 39.2783 44.3093 39.2837C44.7719 39.2683 44.9631 38.9792 44.9631 38.561C44.9631 38.29 44.7027 37.9287 44.363 37.6911L43.3959 36.2928L42.1447 34.833C41.6611 34.2007 41.2705 33.6831 40.8798 33.1682M33.7312 31.1583L37.9202 33.8881L38.789 32.8692C38.8226 32.8945 38.8554 32.9198 38.8909 32.945C39.0986 32.6488 39.2415 32.4482 39.3818 32.2405C39.4273 32.1718 39.4656 32.0986 39.5065 32.0273C38.8036 31.4074 38.0568 30.8384 37.2718 30.3245C36.4884 29.8176 35.6635 29.3767 34.8058 29.0066C34.4476 29.722 34.09 30.4392 33.733 31.1583M29.8637 29.8891L31.3563 30.2766C31.6832 30.3733 32.0074 30.4745 32.3297 30.5883C32.5392 30.6614 32.7386 30.7482 32.9426 30.8286C32.9851 30.7967 33.023 30.7593 33.0555 30.7174C33.1139 30.6299 33.1481 30.5287 33.1548 30.4239L33.2085 30.264L33.7194 28.5739C32.6293 28.1847 31.5108 27.8788 30.3737 27.6588L28.6744 27.5468V28.3914C28.7227 28.6515 28.6799 29.0237 28.8374 29.1538C29.1643 29.4176 29.5122 29.6578 29.8646 29.8891M30.8873 25.844C30.9 25.8494 30.9155 25.8494 30.9301 25.854L33.132 26.7817C33.5336 26.9623 33.9325 27.143 34.3304 27.3291L34.6373 24.6191C34.2057 24.4384 33.7658 24.2795 33.3214 24.1295C33.1812 24.0789 33.0637 24.0392 33.0027 24.0184C32.7159 23.9281 31.3872 23.2858 31.1987 23.349C31.0102 23.4123 28.4549 23.0726 28.4549 23.0726L28.5697 25.5306L30.8873 25.844ZM34.7958 23.3527L34.9269 20.5849C33.722 20.0695 32.4669 19.6781 31.1814 19.4169C30.2419 19.2302 29.2898 19.1115 28.3329 19.0619C28.356 19.8899 28.3806 20.718 28.4067 21.546C28.729 21.5812 29.056 21.6219 29.3856 21.677C30.2609 21.8287 31.1254 22.0363 31.9737 22.2985L34.7958 23.3527ZM46.7981 68.5576C46.8005 68.6736 46.828 68.7876 46.8786 68.8922C46.9291 68.9967 47.0017 69.0893 47.0913 69.1638C47.1971 69.2628 47.3251 69.3356 47.4647 69.3761L48.4454 68.9858C49.0836 68.5085 49.6521 67.9458 50.1347 67.3138L50.7321 66.3481C50.8979 66.0186 51.0333 65.6749 51.1364 65.321C51.1828 65.1648 51.2393 65.0148 51.2876 64.8604L51.8804 63.2714C51.7529 62.9896 51.6245 62.7086 51.5098 62.425C51.1852 61.6364 50.7666 60.8892 50.2631 60.1992C50.2631 60.2046 50.2631 60.2118 50.2631 60.2173L49.6402 59.0429C49.9189 57.2599 49.9764 55.4497 49.8114 53.6528C49.7777 53.2825 49.7294 52.9121 49.6757 52.5453C49.6038 52.0332 49.52 51.521 49.4308 51.0097C49.3816 50.7387 49.3306 50.4677 49.285 50.1967C49.2667 50.1028 49.236 50.0117 49.194 49.9257C49.0456 49.6285 48.7696 49.5048 48.4072 49.5454C47.9774 49.5906 47.8289 49.783 47.8289 50.3584C47.8289 50.577 47.8344 50.7947 47.8344 51.0124C47.8471 52.0314 47.8699 53.053 47.8471 54.072C47.8198 55.2201 47.8216 56.3754 47.7452 57.5181C47.7169 57.9264 47.6814 58.3311 47.6277 58.7376C47.3935 60.6253 46.824 62.457 45.9457 64.1476L47.0549 67.9642L46.8727 68.2135C46.8181 68.3199 46.7908 68.4382 46.7935 68.5576M24.0256 14.9508L29.0669 14.7864L31.9436 14.893C31.9646 14.9003 31.9819 14.9129 32.0001 14.921L33.7039 15.5263C33.6984 15.5416 33.6912 15.557 33.6857 15.575C34.0846 15.6861 34.4834 15.8054 34.8796 15.9418C35.0881 16.0159 35.2575 16.0159 35.3777 15.9418H35.5817L35.5562 15.6301C35.5649 15.6063 35.5716 15.5819 35.5762 15.557C35.5875 15.3823 35.5658 15.2071 35.5124 15.0403L35.4587 14.333L33.2085 13.3393C33.1913 13.3301 33.1715 13.3266 33.1521 13.3294L32.7942 13.2589C31.7668 12.9225 30.7009 12.7155 29.6215 12.6429L27.6181 12.5814C26.9482 12.5926 26.2794 12.6393 25.6146 12.7214L23.817 13.0204L23.8626 13.6528L24.0256 14.9508ZM46.4657 25.1313C46.0923 25.5884 45.9594 25.9226 46.0696 26.2261V26.414L46.279 26.5558C46.4435 26.715 46.627 26.8536 46.8254 26.9687C47.0931 27.134 47.359 27.3038 47.7479 27.5468L48.5037 28.657C48.5037 28.7021 48.4964 28.7473 48.4964 28.7934C48.6157 28.9207 48.7414 29.0445 48.8607 29.1737C49.5455 28.8702 50.1128 28.4438 50.6392 27.9831C50.1638 27.4411 49.673 26.9181 49.1667 26.414C49.1642 26.4236 49.1608 26.433 49.1567 26.442L48.4718 25.7302C48.0019 25.287 47.5242 24.8552 47.0385 24.4348C46.8473 24.6652 46.6588 24.9009 46.4693 25.1313M52.5934 34.2151L53.8829 36.6812C54.3792 36.1256 54.8719 35.571 55.3682 35.0155C55.0768 34.4132 54.7641 33.8195 54.4302 33.2341C54.4302 33.2341 53.4813 31.6858 53.3793 31.5259C53.3429 31.4726 53.3128 31.4193 53.2773 31.366C52.7892 30.6434 52.2647 29.9541 51.7292 29.2803L50.763 30.1014L50.1757 30.7174L52.5934 34.2151ZM54.7644 58.3727C56.1877 55.9545 56.7369 53.3087 56.379 50.4451C56.336 50.1017 56.2752 49.7607 56.1969 49.4235C56.1204 49.0784 56.0284 48.7387 55.9237 48.4045C55.7989 47.9989 55.4565 47.8246 55.0731 47.8372C55.0322 47.8332 54.9911 47.8332 54.9502 47.8372C54.8264 47.8505 54.7073 47.8915 54.6019 47.9573C54.4965 48.023 54.4076 48.1117 54.3419 48.2166L52.7382 49.0504L51.2612 49.2536C50.8423 49.3494 50.6237 49.6059 50.6146 50.1154L50.2822 53.0395L52.6845 55.2625L54.7644 58.3727ZM19.425 70.7274C19.7647 70.2812 20.0943 69.8241 20.3875 69.3508C21.6215 67.3562 22.187 65.1006 22.7124 62.8351C22.8763 62.1332 23.0448 61.4286 23.2087 60.724C23.1623 60.4277 23.1177 60.1287 23.0657 59.8297C23.053 59.7484 23.0066 59.6744 22.9883 59.594C22.8511 58.958 22.7161 58.3209 22.5831 57.6825C22.492 57.239 22.4092 56.7955 22.3145 56.3529C22.1378 55.5489 21.9666 54.7476 21.7881 53.9446C21.4609 55.2351 21.2581 56.5536 21.1825 57.8822C21.1006 59.4513 20.9194 61.0203 20.6817 62.5731C20.2519 65.359 19.2866 67.9082 17.468 70.0472L16.8114 70.7771C16.6713 70.9253 16.5558 71.0945 16.469 71.2785C16.1958 71.8466 16.3078 72.3534 16.7705 72.6732C17.2066 72.9722 17.6565 72.9315 18.0754 72.4139C18.2949 72.1429 18.518 71.8719 18.7374 71.6009L19.425 70.7274ZM33.0983 12.2065C33.1703 12.2373 34.1 12.4089 34.1 12.4089L34.987 12.744C35.803 13.1184 36.5117 13.6891 37.0487 14.4043C37.4184 13.5913 37.7053 12.8127 37.7772 12.3159C37.1519 11.9684 36.4899 11.6025 35.7911 11.2183L34.7238 10.5363C33.5892 10.324 32.4572 10.1334 31.3198 9.98889L29.7262 9.77119C29.5732 10.3032 29.6351 11.3755 29.5878 11.7585C30.7352 11.8416 31.8817 11.9888 33.0318 12.184C33.0546 12.1908 33.0768 12.1993 33.0983 12.2093M31.9819 8.92207L32.0411 8.96272C32.0411 8.96272 33.428 9.15242 33.4981 9.21294C33.5892 9.11719 33.7458 8.54448 33.7786 8.39453C33.8696 7.98623 33.6875 7.68813 33.1603 7.48036C32.2278 7.11 30.9811 6.72699 29.9948 6.5924C29.8236 6.95373 29.6306 8.24819 29.6406 8.52641C29.6659 8.53106 29.6914 8.53438 29.7171 8.53635L31.9819 8.92207ZM27.3549 22.901L23.6349 23.4945C23.4864 23.4925 23.339 23.5202 23.2014 23.5758C22.7925 23.7429 22.3818 23.9073 21.9666 24.0726L19.6472 24.9696L20.2473 26.171C20.284 26.3672 20.3615 26.5537 20.475 26.7184C20.526 26.7997 20.5851 26.8756 20.6361 26.9542L21.7444 29.0066L21.9438 29.1312C22.2962 29.5901 22.6441 29.6027 23.7833 29.3896C24.1899 29.3668 24.594 29.3118 24.9918 29.2252C25.7868 29.2252 26.5171 29.2757 27.2329 29.1917C27.3631 29.1764 27.5261 29.0318 27.6463 28.8674L27.6645 28.8575C27.6645 28.8575 27.6645 28.8421 27.6645 28.8394C27.7335 28.7528 27.7784 28.6497 27.7947 28.5404C27.8002 28.442 27.7947 28.3426 27.7947 28.2441C27.8776 27.816 27.9404 27.3219 27.7947 27.3164C27.5425 27.3065 25.3096 27.2911 25.3096 27.2911L24.1567 27.2008L23.6486 25.5812L27.4123 25.1476L27.3549 22.901ZM2.53888 31.6777L2.96324 32.375C3.08345 32.5729 3.20638 32.768 3.3275 32.9604C3.44753 33.1245 3.61343 33.2502 3.80468 33.3217C4.00957 33.4057 4.21629 33.487 4.42119 33.5701L5.90554 31.3398L5.97384 31.2414C6.05579 31.1294 6.12956 31.0128 6.2015 30.8963L8.27322 29.2387L9.81676 27.5486L6.7151 23.7601L4.54776 26.9542L1.52533 30.226L1.93148 30.6569C2.14639 31.0183 2.34491 31.3507 2.53888 31.6777ZM11.272 36.104C12.1717 36.4653 12.9712 36.7959 12.9712 36.7959C13.0787 36.8619 13.1962 36.9233 13.3237 36.9892C13.9544 37.3031 14.5512 37.6799 15.1049 38.1139C15.8634 36.9305 16.642 35.7598 17.4653 34.6189C17.713 34.2774 17.9707 33.9504 18.2421 33.6406C17.7667 32.9746 17.2898 32.304 16.8114 31.6289C16.6703 31.6849 16.3843 31.7427 16.174 31.8999C15.3799 32.488 14.6077 33.1058 13.8364 33.7219C13.7344 33.8032 13.6369 33.889 13.5404 33.973L12.8301 33.74L11.384 32.7924L8.80959 35.104L11.3002 36.0651L11.272 36.104ZM11.272 36.104C10.1792 35.6586 8.94436 35.1537 8.81323 35.1004L11.272 36.1067V36.104ZM8.10657 22.0654C8.36428 21.7203 8.68392 21.312 9.0418 20.9146L8.10657 22.0654ZM10.5926 27.2911C10.8856 26.6864 11.2238 26.1042 11.6044 25.5495C11.7701 25.312 12.0205 24.9624 12.3556 24.5613C12.6994 24.1477 13.0687 23.7555 13.4612 23.387C13.3932 22.026 13.3243 20.6659 13.2544 19.3067C13.2859 19.2312 13.3 19.1496 13.2956 19.068C13.2912 18.9864 13.2684 18.9069 13.2289 18.8351C13.1531 18.6584 13.0131 18.5163 12.8367 18.4371C12.6604 18.3578 12.4604 18.347 12.2764 18.407C11.9269 18.5026 11.5989 18.6636 11.3102 18.8812C11.0908 19.0619 10.946 19.1703 10.7484 19.3446C10.1938 19.8396 9.94334 20.0293 9.72661 20.2217C9.52991 20.397 9.34049 20.5894 9.15381 20.7899H9.14379C9.12632 20.791 9.10924 20.7955 9.09359 20.8032C9.07794 20.811 9.06404 20.8218 9.05273 20.8351C8.77953 21.1061 7.38169 22.7691 7.47822 22.8323L10.5926 27.2911Z" fill="white"/>
</svg>
