<svg width="36" height="22" viewBox="0 0 36 22" fill="none" xmlns="http://www.w3.org/2000/svg">
<path d="M17.6289 0.0250502C13.8947 -0.170373 10.1911 0.781382 7.03217 2.74825C3.87321 4.71512 1.41547 7.59958 0 11.0014C1.63254 14.3986 4.24449 17.2497 7.51148 19.2005C10.7785 21.1514 14.5566 22.1162 18.3766 21.975C22.1098 22.1703 25.8122 21.2187 28.9702 19.2523C32.1282 17.2859 34.5851 14.4022 36 11.0014C34.3688 7.60412 31.758 4.7527 28.492 2.80129C25.2259 0.849893 21.4485 -0.115493 17.6289 0.0250502ZM14.5468 18.445C12.2323 18.2566 10.01 17.4684 8.10641 16.1608C6.20285 14.8532 4.68611 13.0729 3.7108 11.0014C3.7108 11.0014 5.41941 4.46946 14.8431 3.32639C13.3059 3.91509 12.0226 5.00716 11.2099 6.41815L18.3766 9.50175H10.2268C10.1404 9.98255 10.095 10.4696 10.0911 10.9578C10.078 12.4846 10.4855 13.9865 11.2705 15.3042C12.0554 16.6218 13.1885 17.7062 14.5496 18.4423M21.8769 18.4913C23.2318 17.765 24.3668 16.6992 25.1667 15.4021C25.9666 14.105 26.4027 12.6228 26.4309 11.1063C26.459 9.58985 26.0781 8.09308 25.3269 6.76818C24.5756 5.44327 23.4809 4.33746 22.1538 3.56317C24.3518 3.8406 26.4397 4.67107 28.2154 5.97419C29.991 7.27731 31.3943 9.00892 32.2892 11.0014C32.2892 11.0014 30.7385 17.1713 21.8769 18.4913Z" fill="black"/>
</svg>
