<svg width="47" height="68" viewBox="0 0 47 68" fill="none" xmlns="http://www.w3.org/2000/svg">
<g clip-path="url(#clip0_285_268)">
<path d="M16.2336 5.63067C16.2727 5.76011 16.4836 5.8581 16.6413 5.92318C16.5145 5.74475 16.3885 5.56852 16.2624 5.39009C16.2276 5.46661 16.2176 5.55192 16.2336 5.63433M4.56246 31.2329C4.71949 30.8453 4.89346 30.4672 5.0785 30.1001L4.59048 29.1875C4.38159 29.092 4.16317 29.0185 3.9388 28.9682L2.44378 28.6237C2.32416 28.3941 2.13349 28.2085 1.89974 28.0943C1.7464 28.0212 1.58938 27.9568 1.43015 27.8954C1.09744 28.5398 0.80544 29.2041 0.555841 29.8844C0.408403 30.2932 0.283081 30.7115 0.161445 31.132L0 31.9671C0.011653 32.1412 0.0330648 32.3145 0.0641357 32.4863C0.137855 32.8146 0.359011 32.9828 0.690747 33.0135L1.68964 33.2292L1.39476 38.8599L1.45669 39.0157C1.42941 39.3418 1.39624 39.6738 1.37191 39.9963C1.38002 40.095 1.38813 40.193 1.39476 40.2888C1.4154 40.5901 1.43605 40.8841 1.46258 41.1663C1.47954 41.3448 1.50018 41.5188 1.52893 41.6936C1.60265 42.1323 1.95724 42.3356 2.39955 42.2844C2.76815 42.2413 2.92959 42.0197 2.95392 41.5532C2.98046 41.061 3.00552 40.5703 3.02764 40.0782C3.04164 39.7952 3.0586 39.5122 3.0726 39.2307C3.10209 38.7188 3.12863 38.2113 3.1618 37.7023C3.17434 37.491 3.19277 37.2775 3.21193 37.0661C3.21193 37.0661 3.21193 37.0661 3.20751 37.0661C3.23626 36.748 3.27165 36.3707 3.31514 36.0797C3.40803 35.4618 3.65867 34.1448 3.65867 34.1448L3.84887 33.3652C4.04195 32.6386 4.27877 31.9241 4.55804 31.2256M26.8735 53.7104C26.313 54.4454 25.6836 55.1261 24.9937 55.7433C24.6135 56.0886 24.2731 56.4746 23.9786 56.8943C23.7785 57.1734 23.5961 57.4645 23.4323 57.766C23.2564 58.0902 23.0937 58.4226 22.9443 58.7634C22.8182 59.0559 22.7968 59.3396 23.0917 59.5576C23.3667 59.7623 23.6682 59.7477 23.9646 59.4954C24.1014 59.3663 24.2304 59.2293 24.3508 59.0852L25.5466 57.8172C25.8613 57.4852 26.1732 57.1524 26.4857 56.8182C26.9804 56.2874 27.4972 55.7703 27.9564 55.2095C27.9955 55.1597 28.039 55.1151 28.0766 55.0632C28.5205 54.4921 28.9195 53.888 29.2701 53.2563C29.4308 52.9689 29.5819 52.6778 29.7227 52.3788C30.3038 51.1403 30.7683 49.8512 31.1101 48.5279C31.3462 47.6441 31.5211 46.7452 31.6335 45.8376L31.7072 45.0874C31.8106 43.8538 31.7564 42.6123 31.5458 41.3923C31.478 41.3426 31.4072 41.2936 31.3394 41.246C30.5204 40.6552 29.7913 40.6552 29.217 41.2519C29.2797 41.6131 29.3453 41.9744 29.4035 42.3393C29.5615 43.334 29.6374 44.3399 29.6306 45.3469C29.6306 45.589 29.6225 45.8332 29.6085 46.0782C29.5619 47.0584 29.4177 48.0315 29.178 48.9835C28.8433 50.3086 28.2997 51.573 27.5672 52.7298C27.3534 53.0683 27.1249 53.3945 26.8757 53.7126M1.4847 26.6011C1.48129 26.5879 1.47711 26.575 1.47217 26.5623C1.46761 26.5689 1.46342 26.5757 1.45963 26.5828L1.4847 26.6011ZM9.43971 36.4278C9.58199 36.2903 9.64244 36.1565 9.55102 36.0416C9.48678 35.9641 9.44795 35.8689 9.43971 35.7689L9.93363 34.9916C10.2907 34.1009 10.7253 33.2428 11.2326 32.427C11.2945 32.3261 11.3564 32.2281 11.4191 32.1294C11.0805 31.8514 10.7136 31.6093 10.3243 31.4069C10.056 31.276 9.7825 31.1444 9.51343 31.0171C9.0603 32.0409 8.59219 33.0564 8.10908 34.0636C7.72282 34.8619 7.46867 35.7167 7.35641 36.5952L7.25247 37.48C7.04753 39.355 6.8448 41.2319 6.64429 43.1108C6.44377 45.012 6.23294 46.9133 6.06117 48.819C6.49279 49.6616 6.83022 50.5485 7.06743 51.464C7.18694 51.3955 7.28986 51.3019 7.36894 51.1897C7.50975 50.9704 7.54661 50.6778 7.60484 50.4175C8.27864 47.3755 8.56319 44.2837 8.66566 41.1817C8.71503 39.5707 8.97522 37.9729 9.43971 36.4285M37.2885 45.4961C37.0769 45.3382 36.6722 45.2109 36.471 45.3075C36.3852 45.3489 36.2968 45.3845 36.2063 45.4142C36.1175 46.4182 35.9349 47.4119 35.6608 48.3824H34.4076C34.5225 47.7997 34.6025 47.2107 34.6472 46.6186C34.6698 46.2803 34.6877 45.9439 34.701 45.6095C34.4688 45.6095 34.2336 45.6095 34.0021 45.6256C33.6667 45.646 33.3232 45.6402 32.9841 45.6482C32.826 47.9468 32.2354 50.1957 31.2428 52.2786C31.4514 52.2786 31.6608 52.2786 31.8694 52.2932C32.2004 52.3137 32.558 52.3056 32.8639 52.1989C33.0736 52.1309 33.287 52.0747 33.503 52.0307L34.1665 51.9217C34.8083 51.8577 35.453 51.8277 36.0979 51.8318C36.2491 51.5751 36.3928 51.3126 36.5204 51.0376C37.2556 49.4196 37.7045 47.688 37.8473 45.9188C37.6608 45.7769 37.4787 45.6336 37.287 45.4961M29.0755 58.6362C29.3276 58.1886 29.6792 57.793 30.0228 57.4033C30.4259 56.9503 30.8657 56.5308 31.3379 56.1491C30.9593 56.161 30.5826 56.2083 30.213 56.2903C29.9564 56.3378 29.7183 56.4731 29.4618 56.5309C29.1042 56.604 28.7445 56.6822 28.3825 56.7561C27.8209 57.3972 27.2117 57.9958 26.5602 58.5469C26.771 59.2241 27.0342 59.8874 27.245 60.5638C28.0032 60.0779 28.6313 59.417 29.0755 58.6376M32.726 41.0983C32.7998 41.5188 32.8536 41.9356 32.8993 42.3495C32.9983 43.2055 33.037 44.0673 33.015 44.9287C33.5841 44.8555 34.1547 44.7868 34.7238 44.7173C34.7238 44.348 34.7238 43.981 34.7172 43.6139C34.6715 41.8588 34.4548 40.1235 33.9645 38.4087C33.9029 38.1902 33.8176 37.9788 33.7102 37.7784C33.6895 37.7418 33.6748 37.6987 33.6527 37.6636C33.5982 37.566 33.5205 37.483 33.4263 37.422C33.3321 37.3609 33.2243 37.3236 33.1123 37.3133C32.9829 37.2987 32.8518 37.3111 32.7275 37.3499C32.3471 37.4691 32.1754 37.6928 32.1754 38.1133C32.1753 38.3131 32.1961 38.5123 32.2373 38.7078C32.395 39.5064 32.5852 40.2983 32.726 41.0983ZM21.3527 61.97C20.7725 62.3499 20.3305 62.9042 20.0914 63.5517C19.9343 63.9905 20.0973 64.3868 20.4703 64.5813C20.7784 64.7415 21.0821 64.6369 21.3674 64.2413C21.57 63.964 21.797 63.7051 22.0456 63.4676C21.9243 62.8914 21.8043 62.3217 21.6859 61.7587C21.5738 61.8318 21.4603 61.8961 21.3512 61.97M26.1886 61.1495C26.3191 61.0895 26.4452 61.0259 26.5713 60.9587L27.2436 60.5623L26.5587 58.5455L26.011 58.9989C25.0803 59.7307 24.0895 60.384 23.049 60.9521C22.8359 61.0669 22.6251 61.1905 22.4142 61.3111C22.5071 61.7279 22.6022 62.144 22.6951 62.5608L23.6085 62.3597C24.4592 61.9349 25.3298 61.5554 26.1886 61.1517M15.0048 50.487C15.6004 48.2552 15.7641 45.9963 15.1065 43.7411C14.903 43.0398 14.6266 42.3583 14.4113 41.6607C14.2248 41.0603 14.1754 40.4343 14.5315 39.8778C14.9095 39.2762 15.2541 38.6544 15.5635 38.0153C15.1773 37.3445 14.7858 36.6756 14.3892 36.0087C14.3619 36.0577 14.3332 36.1075 14.3044 36.155C13.8842 36.865 13.4935 37.5934 13.0799 38.3093C12.9664 38.5082 12.805 38.6866 12.5359 38.5799C12.2668 38.4731 12.1223 38.2683 12.1555 37.9707C12.1683 37.8297 12.2024 37.6914 12.2565 37.5605C12.4224 37.1948 12.561 36.8117 12.7865 36.4855C13.134 35.9786 13.4508 35.4516 13.7353 34.9075C13.6962 34.8424 13.6572 34.7766 13.6196 34.7108C13.2289 34.0526 12.7821 33.9795 12.1349 34.4051C11.9277 34.5426 11.7191 34.6756 11.5119 34.8109C11.2701 35.2541 11.0296 35.6967 10.7902 36.1389C9.88645 37.8047 10.1098 39.5173 10.9561 41.1627C11.1979 41.6351 11.4891 42.0804 11.7501 42.544C12.7239 44.2669 13.2244 46.114 13.1279 48.1016C13.0637 49.4449 12.7136 50.7254 12.2432 51.9853C11.8171 53.1342 11.439 54.3012 11.0637 55.4669C11.0571 55.4895 11.0593 55.5122 11.0534 55.5349C11.5289 55.7272 12.0044 55.91 12.4799 56.0987C13.1052 55.607 13.5727 54.9453 13.8252 54.1945C14.241 52.9652 14.6715 51.7389 15.0048 50.487ZM26.7194 32.2398L27.6358 33.1239C28.1348 33.2262 28.6532 33.1786 29.1249 32.9872C28.9405 32.5832 28.7332 32.1899 28.5042 31.8091L28.0618 31.1466C27.3298 30.1594 26.4319 29.4435 25.408 29.0208L24.7047 28.7875C23.8856 28.5692 23.0311 28.5133 22.1901 28.623C22.535 28.9494 22.9028 29.2512 23.2908 29.5261C23.6188 29.7535 23.8178 29.8647 23.9815 29.823L24.6531 30.5433C25.0937 30.7244 25.5027 30.9734 25.865 31.2811C26.1914 31.5606 26.4787 31.8821 26.7194 32.2369M26.7135 26.4102C26.4445 26.9462 26.1732 27.4873 25.9026 28.0314C26.2143 28.1566 26.5188 28.299 26.8145 28.4577C27.5984 28.8768 28.3105 29.4164 28.9244 30.0563C29.29 29.578 29.6505 29.0966 30.0058 28.612C29.0637 27.6711 27.9443 26.923 26.7113 26.4102M15.2259 32.125C15.7068 31.4304 16.2644 30.7912 16.8883 30.2193C17.3989 29.7463 17.9437 29.3108 18.5182 28.9162C19.3423 28.3394 20.2631 27.9123 21.2377 27.6548C22.5612 27.3169 23.9548 27.3646 25.2517 27.7923C25.4094 27.5093 25.5665 27.2256 25.7257 26.9426C25.9181 26.6025 25.9594 26.321 25.8267 26.0811C24.8304 25.7593 23.8011 25.5487 22.7578 25.453C22.1164 25.5261 21.6055 25.5393 21.1116 25.6438C20.8013 25.7097 20.5012 25.7901 20.2056 25.88C18.5023 26.3801 16.9528 27.2963 15.6992 28.5448C15.1763 29.0633 14.702 29.628 14.2823 30.2318C13.9196 30.7488 13.579 31.2797 13.2458 31.8171C13.5208 32.0921 13.8356 32.3385 14.1349 32.6113C14.5035 32.4475 14.8654 32.2874 15.2274 32.125M28.9738 17.3082C28.9266 17.9444 28.8934 18.5828 28.8558 19.2204C29.3212 19.4442 29.7805 19.6816 30.2336 19.9327C31.7013 20.758 33.0853 21.7219 34.3663 22.8109C34.6015 23.0098 34.8396 23.2087 35.0688 23.4157C35.8281 24.0928 36.5543 24.8087 37.259 25.5517C37.3917 25.4142 37.5222 25.2746 37.6505 25.1356C37.9453 24.8087 38.0847 24.3144 38.2269 23.8756C38.2351 23.8508 38.2395 23.8281 38.2461 23.8025C37.6564 23.1619 37.0393 22.5526 36.395 21.9744C36.1695 21.7733 35.9439 21.5744 35.7124 21.3799C34.4839 20.3383 33.1805 19.3868 31.8127 18.5331C30.9158 17.9656 29.985 17.4527 29.0254 16.9974C29.0022 17.1 28.9862 17.2041 28.9774 17.3089M14.6863 19.6943C14.8477 19.5839 15.0114 19.4793 15.1743 19.3762C15.7113 19.0376 16.2704 18.7347 16.8477 18.4694C16.8536 17.7908 16.8514 17.1195 16.8352 16.449C16.2966 16.667 15.7705 16.9141 15.2591 17.189C15.1043 17.2738 14.9554 17.3682 14.802 17.4559C13.6058 18.1616 12.5098 19.0223 11.5429 20.0153C10.7287 20.848 9.99148 21.7516 9.34019 22.7151C9.29817 22.7744 9.2532 22.8321 9.20971 22.8914C9.58788 23.3491 9.93363 23.7345 10.2477 24.0614L11.6439 25.6409L13.2407 24.4965L11.9233 22.2281C12.0995 22.019 12.2786 21.8098 12.4651 21.6109C13.1304 20.8911 13.8755 20.2481 14.6863 19.6943M41.691 28.6128C41.3615 27.9948 41.0062 27.3923 40.6191 26.8051C40.3243 26.3663 40.0294 25.9276 39.6969 25.5064C39.6822 25.4881 39.6682 25.472 39.6534 25.4552C39.2111 25.831 38.7474 26.2208 38.2527 26.6413C38.3626 26.7685 38.4739 26.8972 38.5793 27.0288C38.768 27.257 38.9479 27.4866 39.1256 27.7206C39.3158 27.9729 39.4942 28.2325 39.6733 28.4958C39.9348 28.8837 40.1764 29.2844 40.3972 29.6965C40.6702 30.1996 40.9087 30.7205 41.1108 31.2555C41.2221 31.5524 41.3261 31.8522 41.4256 32.1521C41.8473 31.6797 42.2692 31.207 42.6914 30.7341C42.3891 30.0095 42.0581 29.3023 41.6925 28.6135M41.924 33.7367C42.0213 34.0541 42.12 34.3744 42.2188 34.6925C42.2244 34.7141 42.2313 34.7353 42.2395 34.7561C42.3736 35.1788 42.5108 35.5992 42.6508 36.0175C42.7791 35.9378 42.9155 35.755 43.1145 35.464C43.377 35.0778 43.6482 34.6969 43.9122 34.3107C43.9092 34.2954 43.9052 34.2803 43.9004 34.2654L44.8698 32.9053L44.8764 32.9243C45.2529 32.388 45.6286 31.8518 46.0036 31.3155C45.759 30.5429 45.4726 29.784 45.1455 29.042L41.6622 32.8972C41.7492 33.1766 41.834 33.4574 41.921 33.7367M6.33688 28.1945C6.54271 27.9441 6.76431 27.707 7.00035 27.4844C7.16327 27.3301 7.33503 27.1809 7.5127 27.0391C7.52744 27.0288 7.53776 27.0164 7.5525 27.0062C8.37461 26.3605 9.13919 25.6459 9.83779 24.8702C9.56651 24.4314 9.20676 23.9246 8.82047 23.4142C8.35015 24.0121 7.79231 24.5369 7.16548 24.9711C6.89794 25.1628 6.6487 25.3784 6.42092 25.6153C6.4106 25.6256 6.40249 25.6336 6.39217 25.6424C6.22851 25.8042 6.06977 25.9702 5.91594 26.1404C5.48932 26.6111 5.09759 27.1119 4.74381 27.6387C5.01436 27.7426 5.28565 27.8493 5.55472 27.948C5.81126 28.0402 6.07075 28.1184 6.33246 28.1945M22.07 15.4128C21.2752 15.4176 20.4823 15.4898 19.6999 15.6285L18.7939 15.815C18.3151 15.9332 17.8429 16.0762 17.3792 16.2435C17.4205 16.8979 17.5053 17.5341 17.6004 18.1594C18.0594 17.9822 18.5292 17.8337 19.007 17.7148L19.7139 17.5627C20.5086 17.4189 21.3165 17.36 22.1238 17.3872C22.1194 17.0713 22.1113 16.7575 22.1076 16.4416C22.1031 16.0168 22.0972 15.6819 22.07 15.4135M10.4032 10.1974C10.1091 10.2323 9.82156 10.3092 9.54955 10.4256C9.16458 10.5789 8.81182 10.802 8.50938 11.0837C8.03706 11.5112 7.6025 11.9779 7.21045 12.4789C7.07849 12.6552 6.95391 12.838 6.82564 13.0164C6.56541 13.3733 6.30444 13.7323 6.05454 14.095C6.43714 14.5733 6.81753 15.0457 7.19571 15.521C7.47289 15.257 7.7626 15.0003 8.06043 14.7539C8.13931 14.6903 8.21524 14.6245 8.29412 14.5594C8.948 14.038 9.70878 13.8084 10.5507 13.9458C11.105 14.0361 11.6679 14.0636 12.2285 14.0277C12.8207 13.987 13.4061 13.8775 13.9727 13.7016C13.9727 13.1992 13.7641 12.7788 13.3999 12.3517C13.3689 12.3166 13.3417 12.2822 13.3129 12.2471C12.585 12.393 11.8439 12.4645 11.1013 12.4607H10.1857C9.93363 12.4607 9.74933 12.3678 9.71026 12.095C9.67119 11.8223 9.826 11.668 10.0744 11.619C10.1776 11.6 10.2831 11.578 10.3863 11.5532C10.8603 11.4522 11.3358 11.3418 11.8135 11.3192C12.0457 11.3089 12.2771 11.295 12.5064 11.2782C12.1737 10.8702 11.8442 10.4599 11.5178 10.0475C11.1492 10.1067 10.7807 10.1623 10.4032 10.2011M30.7378 13.0713C30.8853 13.4815 31.1802 13.7528 31.5775 13.9334C32.7945 14.4921 33.9477 15.1785 35.0172 15.9809L37.6711 18.2566C37.7448 18.3261 37.8237 18.4029 37.9026 18.4702C37.9423 18.507 37.9861 18.5394 38.0331 18.5667L38.3449 18.1455L38.6449 17.4464C38.5608 17.1722 38.4331 16.913 38.2668 16.6786C37.6877 15.8997 37.0217 15.1883 36.2815 14.5579L36.2749 14.5499C36.2749 14.5499 33.5082 12.0724 33.3401 12.0051C33.172 11.9378 31.2966 10.5813 31.2966 10.5813L30.928 11.3031C30.7548 11.6541 30.5852 11.9948 30.4179 12.3312C30.5433 12.5685 30.651 12.8147 30.7401 13.0676M0.855877 22.5316C1.1913 22.6778 1.41688 22.4702 1.6255 22.2508C1.85108 22.0146 2.07224 21.7747 2.29561 21.5385L2.82491 20.9996C2.87725 20.9499 2.92443 20.8965 2.97235 20.8475C3.69722 20.1588 4.33289 19.3833 4.86471 18.5389L5.36379 17.7477C5.7484 17.1323 6.19283 16.5557 6.69073 16.0263C6.54993 15.8457 6.41134 15.6607 6.27127 15.4822C6.06191 15.2175 5.85107 14.9572 5.64024 14.6947C5.48543 14.9221 5.3284 15.1502 5.17286 15.3777C4.87798 15.8106 4.58311 16.2413 4.2757 16.6618L3.82454 17.2672C3.18944 18.1094 2.47858 18.8926 1.7007 19.6073C1.23111 20.0511 1.13527 20.1433 1.13527 20.1433C0.757562 20.5901 0.531123 21.1435 0.48802 21.725C0.454846 22.0636 0.502763 22.3773 0.849979 22.5331M17.4021 8.49649L13.8179 9.55316C13.3195 9.6804 12.819 9.7974 12.314 9.89758C12.7064 10.3404 13.1228 10.7618 13.5613 11.1597C13.6505 11.1451 13.739 11.1327 13.8282 11.1166V11.102L14.5374 10.9557C14.9847 10.8385 15.4185 10.6755 15.8319 10.4694L17.9749 9.83981L17.6402 9.0559C17.5798 8.88991 17.5031 8.70563 17.4021 8.49576M18.7172 10.8862C18.7187 10.8134 18.7062 10.7409 18.6804 10.6727C17.952 10.8533 17.2325 11.0705 16.5167 11.325C16.283 11.4091 16.0493 11.4873 15.8157 11.5649L14.6037 11.9429L14.6951 15.6358C14.6951 15.668 14.6885 15.6994 14.6885 15.7338L14.6745 15.7835L14.7032 16.204C14.7032 16.2201 14.7032 16.2325 14.7032 16.2471C14.7032 16.28 14.7069 16.3107 14.7113 16.3437L17.3638 15.1203L18.4349 14.7137L18.9377 14.5828L18.7224 13.2665V12.2245C18.7224 11.7711 18.7224 11.3279 18.718 10.887M20.0685 9.55097L23.4382 9.48369L23.4419 7.91221C22.9937 7.88735 22.5403 7.87491 22.0855 7.8793C21.7272 7.8832 21.3721 7.89344 21.0202 7.91001L20.0788 7.99996C20.0731 7.99282 20.0669 7.98598 20.0604 7.97948C19.798 8.00654 19.537 8.03725 19.279 8.07601C19.2812 8.0986 19.2867 8.12076 19.2952 8.14182C19.5539 8.61129 19.7692 9.10782 20.0685 9.55097M24.9104 53.7469C26.1017 52.7846 26.9472 51.5619 27.5281 50.1477C28.0663 48.8446 28.2911 47.4705 28.5351 46.0936C28.0928 46.0936 27.6505 46.0936 27.2038 46.098C27.0156 46.0939 26.8293 46.0606 26.6516 45.9992C26.4304 47.2694 26.0677 48.5082 25.6793 49.7455C25.4946 50.3455 25.1637 50.891 24.7157 51.3338C24.3851 51.6531 24.0384 51.9558 23.677 52.2406C22.6391 53.0749 21.8444 54.0767 21.3254 55.3031C21.4397 55.9108 21.5613 56.5462 21.694 57.2541C21.9152 57.2175 22.1304 57.181 22.3501 57.1495C22.4187 57.0223 22.4902 56.898 22.5609 56.77C23.1853 55.638 23.8827 54.5689 24.9082 53.744M26.8934 44.9938C26.8771 45.0744 26.8833 45.158 26.9115 45.2353C26.9397 45.3127 26.9888 45.3809 27.0534 45.4325C27.1762 45.5243 27.3237 45.578 27.4773 45.5868C27.6711 45.6073 27.8739 45.5605 28.0729 45.5356C28.2609 45.5129 28.4489 45.4881 28.6376 45.4625C28.7146 44.9038 28.7354 44.3389 28.6995 43.7762L28.7202 43.7455L28.6619 43.374C28.6248 43.0192 28.5692 42.6665 28.4953 42.3173L28.2661 41.4193C28.1149 40.9016 27.9594 40.389 27.8068 39.872C27.0784 39.6994 26.4953 39.2753 25.9284 38.7927L25.5753 38.5001C25.6564 38.9026 25.7897 39.2929 25.9719 39.6614C26.19 40.0951 26.3683 40.5474 26.5049 41.0128L26.7696 42.223L26.8691 43.6636V44.9272L26.8934 44.9938ZM21.1603 59.2614C21.1146 59.042 21.0667 58.8168 21.0217 58.5952C20.3973 58.2954 20.1216 58.7963 19.7685 59.0464C19.638 59.1381 19.5263 59.2538 19.4397 59.3872L18.3221 60.5791C18.07 60.8716 17.8061 61.1641 17.5274 61.4471C17.4677 61.5042 17.3888 61.5656 17.3748 61.6358C17.335 61.8179 17.2488 62.0621 17.3291 62.1791C17.4242 62.3144 17.6749 62.3927 17.8606 62.3985C18.0022 62.3908 18.1404 62.3532 18.2661 62.2881L18.9878 61.9225C19.5897 61.5585 20.0952 61.057 20.4622 60.4599C20.704 60.0665 20.9318 59.6643 21.161 59.2636M27.5045 13.8559L27.2421 13.7199C27.2126 13.7199 26.1481 13.4186 25.98 13.4186C24.973 13.1802 24.4894 13.189 23.436 13.0778C23.1242 13.5086 22.8927 14.0285 22.903 14.3868C22.903 14.4197 22.903 14.4526 22.903 14.4855C24.75 14.633 26.5685 15.0266 28.3095 15.6555C28.2358 15.0588 28.1547 14.1872 27.4986 13.8508M30.0589 15.6519C31.0418 16.4519 32.0247 17.2507 33.0076 18.0482C34.0736 18.756 35.0978 19.5239 36.0751 20.348C36.381 20.4628 36.6648 20.4117 36.9089 20.0753C37.0946 19.8164 37.2848 19.5583 37.4853 19.287C37.0293 18.9097 36.5624 18.544 36.0847 18.1901C35.9313 18.0767 35.7743 17.9707 35.6188 17.8574C35.3895 17.6914 35.1602 17.5232 34.9243 17.3608C33.207 16.1684 31.3456 15.1945 29.3836 14.4621C29.3792 14.4702 29.3748 14.4804 29.3689 14.4906C29.2952 14.6486 29.377 14.9404 29.4846 15.1064C29.6254 15.3257 29.8569 15.4859 30.0641 15.6541M46.8852 35.3616C46.7761 34.4667 46.6143 33.5789 46.4009 32.7027C46.3058 32.6391 46.2166 32.5733 46.1156 32.514C45.789 32.9945 45.4684 33.4596 45.1521 33.9195C44.9988 34.1433 43.0548 36.457 43.0548 36.457L43.4433 38.0248L46.0618 37.7952C46.2099 37.8261 46.3639 37.8124 46.5041 37.7557C46.8204 37.6373 46.9523 37.3682 46.9523 37.0566C46.9523 36.4899 46.9567 35.9217 46.8889 35.3616M20.6671 51.5078C20.7747 52.1279 20.8779 52.751 20.9841 53.3711C21.84 51.8157 22.9052 50.4248 24.353 49.3228C24.6479 49.1034 24.8558 48.732 25.0106 48.3875C25.1492 48.0841 25.1743 47.7294 25.2215 47.3886C25.2797 46.9886 25.3475 46.5901 25.4139 46.1923C23.7139 47.0128 22.0176 47.834 20.2602 48.6852C20.227 48.6998 20.196 48.7159 20.1651 48.7298C20.1813 48.8263 20.1997 48.925 20.2189 49.0223C20.3663 49.8391 20.5204 50.6742 20.6671 51.5086M25.6335 42.6501C25.6166 42.5206 25.5959 42.3934 25.5731 42.2661C25.0644 42.3853 24.5639 42.5389 24.053 42.6435C23.778 42.7012 23.4824 42.6537 23.234 42.6537C22.8101 41.5934 22.4607 40.9243 22.0198 40.5206C21.6649 40.955 21.4191 41.4668 21.3026 42.0139C21.2384 42.3129 21.1743 42.615 21.1102 42.917C21.2465 43.6738 21.2576 44.457 21.5362 45.1897C21.739 45.7214 21.8378 46.2588 22.3324 46.6647C22.5366 46.6362 22.7814 46.6464 22.99 46.5667C23.9325 46.2113 24.809 45.703 25.5834 45.0625C25.6874 44.2669 25.7368 43.4661 25.6335 42.6493M18.6966 58.0899L19.1765 57.1795C19.2384 57.0523 19.2989 56.9228 19.3564 56.7934C19.5569 56.3546 19.7515 55.9159 19.9506 55.4771C19.8429 55.1305 19.7928 54.7634 19.7183 54.4065C19.6026 53.8566 19.4869 53.3097 19.3748 52.7546C19.3667 52.7078 19.3608 52.6581 19.3505 52.6084C19.0556 53.4252 18.7158 54.2274 18.3884 55.0332C18.0383 55.9103 17.596 56.7483 17.0689 57.5334L16.6804 58.2208L16.6067 58.2888C16.5834 58.3085 16.5614 58.3298 16.5411 58.3524L15.5503 59.3082C15.3969 59.4501 15.2399 59.5912 15.0748 59.7243C14.9838 59.8001 14.9037 59.888 14.8367 59.9853C14.5801 60.3568 14.8013 60.8409 15.2561 60.8672C15.3359 60.8712 15.4158 60.8658 15.4942 60.8512L16.4622 60.5411L16.8492 60.0921C17.0347 59.9701 17.2136 59.8385 17.3851 59.698C17.9307 59.2424 18.3435 58.6888 18.6936 58.0892M24.1916 37.3374C24.0014 37.1795 23.8149 37.0193 23.6247 36.8636C23.6055 36.8475 23.5834 36.8351 23.5628 36.8182L22.5108 35.7418L21.1684 37.1312L22.426 39.9217L23.6852 41.7784C24.3103 41.8025 24.9015 41.8998 25.307 41.3513L24.2292 37.4969C24.2222 37.4426 24.2106 37.389 24.1946 37.3367M31.9439 59.5919C32.2049 59.2826 32.4835 58.9908 32.771 58.71C32.9676 58.5189 33.1711 58.3334 33.3814 58.1535C33.9144 57.6997 34.4716 57.2745 35.0504 56.8797C35.0194 56.7714 34.9885 56.6603 34.9634 56.5513C34.875 56.1594 34.5314 55.8479 34.126 55.6841C33.6964 56.0403 33.2469 56.3723 32.7799 56.6786C32.7548 56.6932 32.7342 56.7093 32.7061 56.7261C32.5344 56.8365 32.367 56.9601 32.2019 57.0852C31.6195 57.5342 31.0794 58.0347 30.5882 58.5806C30.1651 59.0569 29.8474 59.6159 29.6557 60.2215C29.5377 60.5872 29.4013 60.944 29.2546 61.295L28.9671 61.4881L28.4666 62.8775L28.9502 62.6581C28.9273 62.6785 28.9026 62.6968 28.8764 62.7129C28.7464 62.7844 28.6084 62.8404 28.4651 62.8797C28.4216 62.9572 28.3803 63.0332 28.3346 63.1093C28.8993 63.3572 29.3025 63.6212 29.8318 63.3038C31.0209 62.5842 32.2211 61.8786 33.4699 61.1356C33.4699 60.9894 33.4971 60.8855 33.4662 60.797C33.3519 60.457 33.2384 60.1184 33.1249 59.7777C33.0231 59.8508 32.9221 59.9239 32.8189 59.9912C32.4459 60.2369 32.0471 60.2413 31.6497 60.0153C31.66 59.9741 31.6753 59.9343 31.6955 59.8969C31.7743 59.7938 31.8569 59.6936 31.9395 59.5927M37.2679 56.8987L37.1131 56.6793L36.9103 56.8256C36.8232 56.8399 36.7416 56.8775 36.6744 56.9345C36.457 57.1129 36.2417 57.2936 36.025 57.472L33.8134 59.3864L33.98 60.1067C33.9815 60.3183 34.0303 60.5268 34.123 60.7173L34.2078 60.9192C34.429 60.8285 34.6501 60.7385 34.8823 60.6581C35.6041 60.4087 36.2337 59.9501 36.6899 59.3418L37.4153 58.0533C37.4544 57.9568 37.4957 57.8603 37.5333 57.7608C37.5799 57.6154 37.5877 57.4605 37.5561 57.3111C37.5397 57.2262 37.5054 57.1456 37.4555 57.0746C37.4056 57.0037 37.3411 56.944 37.2664 56.8994M36.3972 54.661C36.8256 54.634 36.987 54.2954 36.9273 53.959C36.8536 53.5568 37.0121 53.0749 36.743 52.7261C36.6799 52.6409 36.5996 52.5696 36.5071 52.517C36.4479 52.4866 36.3801 52.4771 36.3147 52.4899C36.0685 52.5309 35.823 52.574 35.5775 52.6172L32.9465 52.8285C32.6302 52.8475 32.353 52.8044 32.1171 52.8863C31.6892 53.0306 31.2467 53.1286 30.7976 53.1788L29.2222 55.698L31.7389 55.2841C32.0021 55.2409 32.2668 55.1978 32.5314 55.1583C32.5911 55.148 32.6405 55.1356 32.6943 55.1254L35.1765 54.7115C35.5844 54.7012 35.9903 54.6842 36.3943 54.6603M28.7091 21.6C28.67 22.1118 28.9966 22.3861 29.321 22.5462C30.0803 22.9177 30.6907 23.4756 31.3114 24.019C31.6129 24.2815 31.9173 24.5426 32.2417 24.7766C32.3359 24.8399 32.439 24.8891 32.5476 24.9228C32.8189 25.1363 33.0836 25.3557 33.3423 25.5853C33.9668 26.1454 34.5488 26.7503 35.0836 27.3952C35.5791 27.0763 36.0462 26.7159 36.4798 26.3181C35.81 25.6039 35.1096 24.9226 34.3788 24.2742C34.0537 23.9853 33.7227 23.698 33.3895 23.4186C32.9391 23.0391 32.4857 22.6683 32.0242 22.3027C31.0275 21.5047 29.9425 20.8217 28.7902 20.2669C28.7637 20.7122 28.7408 21.1568 28.7076 21.6M36.5218 28.9345C36.4671 29.0069 36.4179 29.0832 36.3744 29.1627C36.5602 29.4552 36.743 29.7579 36.9162 30.0694C36.9759 30.1762 37.0467 30.2749 37.1108 30.3795L38.5543 32.2874C38.9966 32.7385 39.4271 33.2 39.9918 33.7894C40.2269 33.5159 40.4068 33.3031 40.5749 33.11C40.2754 32.2136 39.9093 31.3405 39.4794 30.498L38.7865 29.2877C38.5071 28.8343 38.2048 28.3956 37.8827 27.9641C37.2804 28.0526 36.8838 28.4526 36.5218 28.9345M23.464 6.83506C23.4728 6.34073 23.4824 5.84566 23.4927 5.35352C22.1643 5.31155 20.8344 5.35674 19.5119 5.48881C19.7788 5.93415 20.0434 6.37729 20.3103 6.82044C21.3595 6.7076 22.4181 6.7125 23.4662 6.83506M12.5558 8.70416C12.9509 8.60106 13.3439 8.49283 13.7353 8.38387C14.1695 8.26248 14.4607 8.17839 14.4607 8.17839C15.2554 7.95316 16.0493 7.7272 16.8433 7.51367C16.8765 7.55097 16.8868 7.55682 16.8558 7.51367C16.1924 6.40947 15.2923 5.20142 14.6745 4.66979C14.6185 4.62519 14.5669 4.57766 14.5167 4.54256C14.5108 4.64347 14.5042 4.73341 14.4983 4.82409L13.5245 5.67382C12.572 6.3612 11.4913 6.82044 10.3184 7.1495C10.2447 7.16778 10.1798 7.19265 10.1113 7.21312C10.575 7.78936 11.0254 8.36413 11.4869 8.92793C11.8466 8.8687 12.2027 8.79703 12.5543 8.70855M16.2624 5.39301L16.6885 5.9261C16.6737 5.9261 16.6575 5.93049 16.645 5.9261C16.6325 5.92171 16.645 5.9261 16.6413 5.9261C16.8765 6.26102 17.1102 6.59521 17.3483 6.92574C17.4957 7.13049 17.6173 7.24164 17.7618 7.27821C17.9063 7.31477 18.0973 7.27016 18.3781 7.13195C18.4518 7.09539 18.5337 7.05371 18.6244 7.00691C19.0792 6.76486 19.1455 6.48552 18.8934 6.03652C18.8131 5.89027 18.7342 5.74402 18.6531 5.59777L18.3391 4.04895C18.2934 3.76376 18.1282 3.65115 17.8444 3.66358C17.764 3.66358 17.6815 3.66358 17.6004 3.66358C17.4478 3.66358 17.2922 3.66358 17.1397 3.66358C16.4836 3.67162 15.8739 3.81495 15.3439 4.12866C15.4176 4.22373 15.4994 4.31733 15.5694 4.41385C15.8031 4.73634 16.0331 5.06248 16.2624 5.39082M5.91889 11.7447C5.96743 11.717 6.01443 11.6868 6.0597 11.6541C6.24399 11.5268 6.40691 11.3733 6.58089 11.2314C7.0173 10.8702 7.44119 10.495 7.89456 10.1543C8.20457 9.91688 8.53627 9.70878 8.88534 9.53268C9.39899 9.26975 9.9584 9.1062 10.5337 9.05078L10.7069 9.0325C10.4799 8.74731 10.2518 8.46407 10.0228 8.18277C9.8052 7.92894 9.57154 7.68909 9.32323 7.46468C8.8072 7.64384 8.29117 7.8442 7.79062 8.06212C7.60927 8.14182 7.42202 8.22007 7.2451 8.30197C6.27053 8.7495 5.50754 9.5144 4.80426 10.3166C4.7108 10.4193 4.63597 10.5373 4.58311 10.6654C4.45041 10.9981 4.54403 11.3235 4.82269 11.616C5.14337 11.9502 5.48616 11.9956 5.91668 11.7455M8.30812 30.495C7.85918 30.3122 7.4058 30.1396 6.94506 29.9985C6.81961 29.9613 6.69068 29.9368 6.56025 29.9254C5.66014 31.1978 4.88683 32.5309 4.53077 34.0453L4.3966 34.9747C4.39035 34.9562 4.3822 34.9383 4.37227 34.9214C4.35163 35.0852 4.33467 35.2475 4.31403 35.4098C4.32435 35.3974 4.33099 35.3872 4.3391 35.3769L4.19166 36.419C4.10688 37.1656 4.03611 37.9129 3.9705 38.6632C3.94765 38.9557 3.92922 39.2585 3.90858 39.5539C3.85329 40.3912 3.80685 41.2278 3.78842 42.0672C3.84002 43.1831 3.88794 44.2969 3.94765 45.4135C3.95576 45.5693 3.96239 45.725 3.9705 45.8808C3.98525 46.1111 4.03464 46.3671 4.15848 46.5499C4.26022 46.6961 4.50054 46.827 4.66936 46.8168C4.74801 46.8028 4.81994 46.7637 4.8743 46.7056C4.95387 46.6362 5.01448 46.5479 5.05048 46.449C5.20308 45.9181 5.36453 45.3762 5.40581 44.8285C5.50533 43.5159 5.58568 42.1959 5.59232 40.8797C5.59232 40.0631 5.63286 39.256 5.71395 38.4585C5.74344 38.1462 5.78767 37.8347 5.82969 37.5246C6.13784 35.3543 6.76445 33.2599 7.84664 31.2716C7.98966 31.0069 8.14668 30.7502 8.30591 30.4943M46.196 46.6859C46.0987 46.6259 45.8075 46.7363 45.6998 46.8599C45.3769 47.2256 45.0629 47.5963 44.7562 47.9736C44.5727 48.1996 44.3876 48.4248 44.2085 48.6552C44.0016 48.9198 43.8255 49.2068 43.6836 49.5108C43.584 49.7191 43.5036 49.9359 43.4433 50.1587C43.4025 50.3061 43.3693 50.4554 43.3438 50.6062C43.1671 51.8151 42.6887 52.9611 41.952 53.94C41.8782 54.0387 41.8045 54.1331 41.7264 54.2325C40.9634 55.2256 40.1591 56.1857 39.3674 57.1576L38.2933 58.5353C38.1282 58.7546 37.9586 58.974 37.7927 59.1934C37.8231 59.2483 37.8599 59.2994 37.9026 59.3455C38.1879 59.657 38.4923 59.9627 38.945 59.9773C39.373 59.4898 39.7964 58.9994 40.2151 58.506C40.1363 58.506 40.0574 58.506 39.977 58.5119L40.8801 57.6921C41.1632 57.3477 41.4507 57.0047 41.7279 56.6537C42.1621 56.1023 42.5904 55.548 43.0548 55.0252C43.6173 54.3831 44.2291 53.7901 44.9634 53.3162C45.59 52.914 45.764 52.2969 45.8694 51.6343C45.9188 51.3331 45.7352 51.1583 45.433 51.1685C45.1786 51.1788 44.9258 51.2417 44.6058 51.2877C44.6965 51.0991 44.7651 50.9513 44.8395 50.8058C45.0582 50.3744 45.2774 49.9434 45.4971 49.5129C45.7994 48.9245 46.0994 48.3359 46.3972 47.7469C46.482 47.5802 46.5992 47.3769 46.5646 47.2212C46.5117 47.0031 46.3807 46.8115 46.196 46.6822M10.8957 43.5773C10.6826 43.1034 10.4216 42.9352 10.0722 43.0128C9.73901 43.0859 9.5901 43.3374 9.60042 43.8544C9.60926 44.242 9.64981 44.6296 9.65644 45.0172C9.68298 46.7363 9.28785 48.381 8.77992 50.0065C8.5396 50.789 8.41133 51.6051 8.23367 52.4051C8.26021 52.4139 8.28748 52.4219 8.31402 52.4321C8.36194 52.8161 8.38774 53.2058 8.46146 53.5846C8.54845 54.0036 8.82121 54.1945 9.24951 54.2025C9.74196 54.2128 9.9867 53.948 10.1017 53.3981C10.2816 52.5367 10.4968 51.6811 10.7136 50.8278C10.9347 49.9502 11.2185 49.0859 11.4065 48.1996C11.7501 46.6098 11.5621 45.0603 10.8905 43.5751M16.7003 40.0482C16.4961 39.6585 16.283 39.2753 16.07 38.8936C15.8687 39.6855 15.7596 40.4877 15.6395 41.1129C15.7058 41.9276 15.7434 42.5148 15.8031 43.0969C15.8341 43.4047 15.9727 43.6387 16.3265 43.6614C16.6804 43.6841 16.9716 43.5151 17.0438 43.1671C17.1075 42.8683 17.1207 42.5611 17.0829 42.2581C17.0294 41.888 17.0294 41.5123 17.0829 41.1422C17.003 40.7619 16.8745 40.3933 16.7003 40.0453M27.3158 63.0069C27.3615 62.8899 27.3947 62.7671 27.4419 62.6523C27.4131 62.1762 27.1131 61.9649 26.6811 62.1579C26.3354 62.3137 25.9881 62.4636 25.649 62.6274C25.3947 62.751 25.1426 62.8782 24.9023 63.0237C24.2594 63.4266 23.6392 63.864 23.0445 64.3342C23.0585 64.5718 23.0711 64.808 23.088 65.042C23.1124 65.4523 23.363 65.6577 23.7456 65.627C24.1192 65.5876 24.489 65.5184 24.8514 65.4201C25.7774 64.8397 26.5802 64.0856 27.2148 63.2C27.2554 63.1404 27.2888 63.0764 27.3143 63.0091M37.6954 37.9905C37.6999 38.0029 37.708 38.0131 37.7124 38.0256C37.8215 38.2903 38.0345 38.4504 38.3574 38.3912L40.9199 38.3605C41.0516 38.355 41.1777 38.3062 41.2784 38.2219C41.3792 38.1376 41.4488 38.0225 41.4765 37.8947C41.5074 37.7569 41.528 37.6171 41.5384 37.4764C41.5752 37.0419 41.5381 36.6043 41.4286 36.182C41.0194 35.763 40.5705 35.3777 40.0279 35.1064L37.5546 32.9053C37.4901 32.8443 37.4113 32.8003 37.3254 32.777C37.2394 32.7538 37.149 32.7521 37.0622 32.7722C36.9879 32.7854 36.9191 32.8194 36.8637 32.8702C36.8083 32.921 36.7687 32.9864 36.7496 33.0588L36.3611 33.4186L37.4013 36.9616C37.4242 37.0515 37.447 37.1422 37.475 37.2321C37.5406 37.4866 37.6114 37.744 37.6962 37.989M2.13195 17.0947C2.42683 17.2058 2.5809 16.9762 2.73645 16.7809C2.84997 16.6347 2.96792 16.4943 3.08145 16.348C3.09767 16.3254 3.11684 16.3049 3.13084 16.283C3.26575 16.1016 3.39771 15.9173 3.53187 15.7367C3.98746 15.1107 4.44451 14.4855 4.88683 13.8515C4.9007 13.8287 4.91137 13.8041 4.91853 13.7784C4.96136 13.6614 4.95979 13.533 4.9141 13.4171C4.73202 13.0639 4.54551 12.9367 4.29339 13.0069C4.16007 13.049 4.03635 13.1166 3.92922 13.2058C3.42331 13.6048 2.9766 14.0725 2.60228 14.5952C2.44968 14.8007 2.3074 15.0098 2.17029 15.227C2.02285 15.461 1.88278 15.7031 1.7464 15.9495C1.69549 16.0664 1.66005 16.1893 1.64098 16.3151C1.6513 16.7356 1.82086 16.9799 2.1349 17.0947M34.1385 62.1338C34.0075 62.122 33.8755 62.1304 33.7471 62.1587C33.7146 62.1667 33.6814 62.1689 33.6505 62.1791C32.676 62.4862 31.7963 63.034 31.0939 63.7711C31.0296 63.8406 30.9746 63.918 30.9303 64.0014L29.2701 64.4665L27.8923 64.0014L27.6107 64.2164C27.4905 64.3846 27.3667 64.5528 27.2384 64.7173C27.2649 64.7086 27.2922 64.7027 27.3188 64.6947L26.7003 65.7097C26.7003 65.8969 26.7872 66.057 26.9649 66.2047C27.0375 66.2692 27.1237 66.3168 27.2172 66.3441C27.3106 66.3714 27.409 66.3777 27.5053 66.3627L27.5716 66.381C27.5716 66.381 30.1776 65.581 30.4503 65.5627C30.7231 65.5444 31.5008 65.0508 31.5008 65.0508C31.6394 64.9835 31.778 64.9089 31.9166 64.8395C32.5965 64.4935 33.2559 64.1092 33.8915 63.6884C34.0655 63.5714 34.1938 63.3784 34.3058 63.1693C34.3796 63.023 34.4533 62.8768 34.5204 62.7349C34.6612 62.4475 34.4665 62.1682 34.1422 62.1353M10.6288 6.13744C10.7445 6.18863 10.8765 6.23762 10.9974 6.30343C11.5451 6.06139 12.0877 5.8442 12.6067 5.58387C12.7831 5.48518 12.924 5.33436 13.0099 5.15243C13.105 4.94767 13.223 4.61714 13.1279 4.49429C13.1179 4.48295 13.1068 4.47266 13.0947 4.46358C12.9539 4.31733 12.6524 4.21276 12.4555 4.25371C12.24 4.30055 12.0273 4.35964 11.8186 4.43067C11.5237 4.52501 11.2392 4.63543 10.9583 4.75462C10.7555 4.8518 10.5884 5.00959 10.4806 5.20581C10.4489 5.26724 10.4165 5.33305 10.3848 5.40252C10.3111 5.58387 10.2573 5.77839 10.3111 5.90782C10.3523 6.00581 10.4769 6.07382 10.6258 6.13744M20.5602 4.62958C20.8831 4.691 21.2097 4.73634 21.565 4.79118C21.9152 4.73634 22.2874 4.68296 22.6575 4.61714C22.9222 4.57034 23.1168 4.44091 23.1455 4.14109C23.1743 3.84128 23.0718 3.59923 22.7895 3.47418C21.9999 3.12318 21.2016 3.19118 20.4194 3.49685C20.1319 3.608 20.0552 3.88076 20.0884 4.17619C20.1194 4.4548 20.3096 4.58204 20.5602 4.62958ZM18.1275 38.7312L21.5923 34.4022L20.9421 33.2321L20.9362 33.2175C20.9138 33.0164 20.8243 32.8285 20.6818 32.6837C20.5601 32.5479 20.391 32.463 20.2086 32.446L17.5112 31.0932C17.5046 31.1012 17.4965 31.1093 17.4883 31.1195C17.4903 31.1189 17.4923 31.1189 17.4942 31.1195L16.5868 32.3627C16.1319 33.0625 15.7021 33.7784 15.2797 34.5001C15.6395 35.0932 15.9948 35.6884 16.3531 36.2815L16.8868 37.1671C16.8868 37.1671 17.7287 39.4223 18.1297 38.7349M19.1138 43.4106C19.1654 43.7104 19.218 44.01 19.2716 44.3093C19.2981 44.4555 19.3542 44.5923 19.391 44.7356L19.6004 45.7331L19.9336 47.0442L20.4334 47.0237C20.4334 47.0296 20.4334 47.0376 20.4334 47.0442C20.6627 47.0274 20.8986 47.0113 21.1706 46.993C21.0195 46.193 20.8934 45.4661 20.7526 44.7583L20.3103 42.7276C20.2277 42.3868 20.1385 42.0482 20.0309 41.714C19.9572 41.472 19.8636 41.2314 19.7707 40.9938C19.7854 40.9755 19.7957 40.9608 19.8083 40.9426L19.8739 40.9484L21.1131 39.3155L20.4946 38.0643C20.112 38.3473 19.8724 38.5645 19.7685 38.7634L18.4695 40.0095L18.5705 40.8241L19.1138 43.4106ZM29.8768 31.2387L30.8411 33.1217L31.4986 34.9989C31.565 35.2022 31.6325 35.4052 31.7014 35.608C31.8031 35.9122 31.9763 36.1294 32.3339 36.1235C32.6914 36.1177 32.9568 35.9283 33.0666 35.5693C33.0996 35.4812 33.1171 35.3882 33.1182 35.2943C33.1079 35.1444 33.1057 34.993 33.1013 34.8409C33.0969 34.6888 33.0887 34.5484 33.0747 34.4058C33.0629 34.2559 33.0365 34.1075 32.9959 33.9627C32.9465 33.7989 32.8949 33.6343 32.8433 33.4683C32.6627 32.8655 32.4392 32.2761 32.1746 31.7045L31.4802 30.4614C31.2051 30.0291 30.9009 29.6158 30.5698 29.2241C30.3383 29.5546 30.1068 29.8866 29.8687 30.2274L29.8812 30.2398L29.6011 30.6442L29.8768 31.2387ZM37.4551 40.3663C37.3475 39.8735 37.2273 39.3857 37.0991 38.8972L37.0873 38.9155L36.872 38.0621C36.872 38.0621 36.8764 38.0577 36.8764 38.0563C36.8388 37.91 36.8027 37.7704 36.7622 37.627C36.4289 36.3883 36.0987 35.1407 35.8856 33.8808C35.8018 33.9567 35.7068 34.0195 35.604 34.0672C35.088 34.291 34.6796 34.6362 34.3139 35.0179C34.527 36.2859 34.7415 37.5539 35.1322 38.7831L37.4551 40.3663ZM33.0939 26.8504C32.9634 26.6778 32.8234 26.5981 32.6862 26.5937C32.5336 26.5857 32.3847 26.672 32.2624 26.8402C31.9564 27.257 31.6564 27.6775 31.3541 28.1038C31.7043 28.4862 32.0265 28.8928 32.3184 29.3206C32.3803 29.4106 32.4319 29.5034 32.4879 29.5934L33.1455 30.8182L34.1112 33.9042C34.5019 33.4976 34.8292 33.0522 35.0298 32.4738L35.7824 31.7806C35.8108 31.7898 35.8399 31.7967 35.8694 31.8011C36.2439 31.7886 36.3987 31.5546 36.3987 31.2161C36.3987 30.9967 36.1879 30.7042 35.9129 30.5118L35.13 29.3799L34.1171 28.1981C33.7257 27.6863 33.4094 27.2672 33.0932 26.8504M27.3062 25.2234L30.6973 27.4332L31.4006 26.6084C31.4279 26.6288 31.4544 26.6493 31.4831 26.6698C31.6512 26.4299 31.767 26.2676 31.8805 26.0994C31.9173 26.0438 31.9483 25.9846 31.9815 25.9268C31.4125 25.425 30.8079 24.9644 30.1724 24.5484C29.5382 24.138 28.8705 23.7811 28.1761 23.4815C27.8862 24.0607 27.5967 24.6413 27.3077 25.2234M24.1754 24.1959L25.3836 24.5097C25.6483 24.5879 25.9107 24.6698 26.1717 24.7619C26.3412 24.8212 26.5027 24.8914 26.6678 24.9565C26.7022 24.9306 26.7329 24.9004 26.7592 24.8665C26.8065 24.7956 26.8342 24.7137 26.8396 24.6288L26.8831 24.4994L27.2966 23.1312C26.4142 22.8162 25.5087 22.5685 24.5882 22.3905L23.2126 22.2998V22.9835C23.2517 23.1941 23.217 23.4954 23.3446 23.6007C23.6092 23.8142 23.8908 24.0087 24.1761 24.1959M25.004 20.9213C25.0143 20.9257 25.0268 20.9257 25.0386 20.9294L26.8212 21.6804C27.1463 21.8267 27.4691 21.9729 27.7913 22.1235L28.0397 19.9298C27.6903 19.7835 27.3342 19.6548 26.9745 19.5334C26.861 19.4925 26.7659 19.4603 26.7165 19.4435C26.4843 19.3703 25.4087 18.8504 25.2561 18.9016C25.1035 18.9528 23.035 18.6778 23.035 18.6778L23.1278 20.6676L25.004 20.9213ZM28.168 18.9045L28.2742 16.6639C27.2987 16.2467 26.2827 15.9299 25.2421 15.7184C24.4815 15.5673 23.7108 15.4712 22.9362 15.431C22.9548 16.1014 22.9747 16.7717 22.9959 17.442C23.2568 17.4705 23.5215 17.5034 23.7884 17.548C24.4969 17.6709 25.1967 17.8389 25.8835 18.0511L28.168 18.9045ZM37.8842 55.4991C37.8862 55.5929 37.9084 55.6852 37.9493 55.7699C37.9903 55.8545 38.049 55.9295 38.1215 55.9897C38.2072 56.0699 38.3108 56.1288 38.4238 56.1616L39.2177 55.8457C39.7343 55.4592 40.1945 55.0037 40.5852 54.4921L41.0688 53.7104C41.2031 53.4437 41.3127 53.1654 41.3961 52.8789C41.4337 52.7524 41.4794 52.631 41.5185 52.506L41.9984 51.2197C41.8952 50.9916 41.7913 50.7641 41.6984 50.5345C41.4356 49.8961 41.0968 49.2912 40.6892 48.7327C40.6892 48.7371 40.6892 48.7429 40.6892 48.7473L40.1849 47.7967C40.4105 46.3533 40.4571 44.8879 40.3235 43.4332C40.2962 43.1334 40.2572 42.8336 40.2137 42.5367C40.1554 42.1221 40.0876 41.7075 40.0154 41.2936C39.9756 41.0742 39.9343 40.8548 39.8974 40.6354C39.8825 40.5594 39.8577 40.4857 39.8237 40.4161C39.7035 40.1755 39.4802 40.0753 39.1868 40.1082C38.8388 40.1448 38.7187 40.3005 38.7187 40.7663C38.7187 40.9433 38.7231 41.1195 38.7231 41.2958C38.7334 42.1206 38.7518 42.9477 38.7334 43.7725C38.7113 44.702 38.7128 45.6373 38.6508 46.5623C38.628 46.8928 38.5992 47.2204 38.5557 47.5495C38.3661 49.0777 37.9052 50.5604 37.1941 51.929L38.092 55.0186L37.9446 55.2204C37.9003 55.3066 37.8783 55.4024 37.8805 55.4991M19.4493 12.1031L23.5303 11.97L25.8591 12.0563C25.8761 12.0621 25.8901 12.0724 25.9048 12.0789L27.2841 12.5689C27.2797 12.5813 27.2738 12.5937 27.2694 12.6084C27.5923 12.6983 27.9151 12.7948 28.2358 12.9053C28.4046 12.9652 28.5418 12.9652 28.6391 12.9053H28.8042L28.7836 12.653C28.7906 12.6337 28.796 12.6139 28.7998 12.5937C28.8089 12.4523 28.7914 12.3105 28.7482 12.1755L28.7047 11.6029L26.8831 10.7985C26.8691 10.791 26.8531 10.7882 26.8374 10.7905L26.5477 10.7334C25.716 10.4611 24.8531 10.2935 23.9793 10.2347L22.3575 10.185C21.8152 10.194 21.2738 10.2318 20.7357 10.2983L19.2804 10.5404L19.3173 11.0522L19.4493 12.1031ZM37.6151 20.3444C37.3128 20.7144 37.2052 20.985 37.2944 21.2307V21.3828L37.464 21.4976C37.5971 21.6264 37.7457 21.7386 37.9063 21.8318C38.123 21.9656 38.3383 22.1031 38.653 22.2998L39.2649 23.1985C39.2649 23.2351 39.259 23.2716 39.259 23.3089C39.3556 23.412 39.4573 23.5122 39.5539 23.6168C40.1083 23.3711 40.5675 23.0259 40.9936 22.653C40.6088 22.2142 40.2115 21.7908 39.8016 21.3828C39.7996 21.3906 39.7969 21.3981 39.7935 21.4054L39.2391 20.8292C38.8587 20.4704 38.4719 20.1209 38.0788 19.7806C37.924 19.9671 37.7714 20.1579 37.618 20.3444M42.5756 27.698L43.6195 29.6943C44.0213 29.2446 44.4201 28.7956 44.8218 28.3458C44.5859 27.8583 44.3328 27.3777 44.0625 26.9038C44.0625 26.9038 43.2944 25.6504 43.2118 25.521C43.1823 25.4778 43.158 25.4347 43.1293 25.3916C42.7341 24.8065 42.3095 24.2486 41.876 23.7031L41.0939 24.3678L40.6184 24.8665L42.5756 27.698ZM44.3331 47.2541C45.4853 45.2965 45.9298 43.1546 45.6401 40.8365C45.6053 40.5585 45.5561 40.2825 45.4927 40.0095C45.4308 39.7301 45.3563 39.4552 45.2715 39.1846C45.1705 38.8563 44.8933 38.7151 44.583 38.7254C44.5499 38.7221 44.5166 38.7221 44.4835 38.7254C44.3833 38.7361 44.2868 38.7693 44.2015 38.8226C44.1162 38.8758 44.0442 38.9476 43.991 39.0325L42.6928 39.7075L41.4971 39.872C41.158 39.9495 40.9811 40.1572 40.9737 40.5696L40.7046 42.9367L42.6493 44.7363L44.3331 47.2541ZM15.725 57.2555C16 56.8943 16.2668 56.5243 16.5042 56.1411C17.5031 54.5265 17.9609 52.7005 18.3862 50.8665C18.5189 50.2983 18.6553 49.7279 18.788 49.1576C18.7504 48.9177 18.7143 48.6757 18.6723 48.4336C18.6619 48.3678 18.6244 48.3078 18.6096 48.2427C18.4985 47.7279 18.3892 47.2122 18.2816 46.6954C18.2078 46.3363 18.1408 45.9773 18.0641 45.619C17.9211 44.9682 17.7825 44.3195 17.638 43.6694C17.3731 44.7141 17.2089 45.7815 17.1478 46.857C17.0814 48.1272 16.9347 49.3974 16.7423 50.6544C16.3944 52.9097 15.6129 54.9733 14.1408 56.7049L13.6093 57.2958C13.4959 57.4157 13.4023 57.5527 13.3321 57.7016C13.1109 58.1616 13.2016 58.5718 13.5761 58.8307C13.9292 59.0727 14.2934 59.0398 14.6325 58.6208C14.8101 58.4014 14.9907 58.1821 15.1684 57.9627L15.725 57.2555ZM26.7939 9.8815C26.8521 9.90636 27.6048 10.0453 27.6048 10.0453L28.3228 10.3166C28.9834 10.6196 29.5571 11.0817 29.9918 11.6607C30.2911 11.0025 30.5233 10.3722 30.5816 9.96998C30.0754 9.68869 29.5394 9.39253 28.9738 9.0815L28.1098 8.52939C27.1912 8.35755 26.2749 8.20325 25.3542 8.08625L24.0641 7.91001C23.9402 8.34073 23.9904 9.20873 23.952 9.51879C24.8809 9.58607 25.809 9.70526 26.7401 9.86321C26.7585 9.86875 26.7765 9.87559 26.7939 9.88369M25.8901 7.22263L25.938 7.25554C25.938 7.25554 27.0607 7.4091 27.1175 7.4581C27.1912 7.38058 27.318 6.91696 27.3446 6.79557C27.4183 6.46504 27.2708 6.22373 26.844 6.05554C26.0891 5.75572 25.0799 5.44566 24.2815 5.33671C24.1429 5.62921 23.9867 6.67711 23.9948 6.90234C24.0153 6.9061 24.0359 6.90879 24.0567 6.91038L25.8901 7.22263ZM22.1444 18.5389L19.133 19.0193C19.0128 19.0178 18.8935 19.0401 18.7821 19.0852C18.4511 19.2204 18.1186 19.3535 17.7825 19.4873L15.9049 20.2135L16.3907 21.1861C16.4204 21.3449 16.4831 21.4958 16.575 21.6292C16.6162 21.695 16.6642 21.7565 16.7054 21.8201L17.6026 23.4815L17.7641 23.5824C18.0493 23.9539 18.3309 23.9641 19.2532 23.7916C19.5823 23.7731 19.9094 23.7286 20.2314 23.6585C20.875 23.6585 21.4662 23.6994 22.0456 23.6314C22.1511 23.619 22.283 23.502 22.3803 23.3689L22.3951 23.3608C22.3951 23.3608 22.3951 23.3484 22.3951 23.3462C22.4509 23.276 22.4873 23.1926 22.5005 23.1042C22.5049 23.0245 22.5005 22.944 22.5005 22.8643C22.5676 22.5177 22.6184 22.1177 22.5005 22.1133C22.2963 22.1053 20.4887 22.0928 20.4887 22.0928L19.5554 22.0197L19.1441 20.7086L22.1909 20.3575L22.1444 18.5389ZM2.05528 25.6438L2.39881 26.2084C2.49612 26.3685 2.59564 26.5265 2.69369 26.6822C2.79085 26.8151 2.92516 26.9168 3.07998 26.9747C3.24584 27.0427 3.41319 27.1086 3.57905 27.1758L4.78067 25.3703L4.83596 25.2906C4.90231 25.2 4.96202 25.1056 5.02026 25.0113L6.69736 23.6694L7.9469 22.3012L5.43603 19.2343L3.68152 21.8201L1.23479 24.4687L1.56358 24.8175C1.73756 25.11 1.89826 25.3791 2.05528 25.6438M9.12493 29.227C9.85327 29.5195 10.5005 29.7872 10.5005 29.7872C10.5875 29.8405 10.6826 29.8903 10.7858 29.9437C11.2964 30.1977 11.7796 30.5028 12.2278 30.8541C12.8418 29.8961 13.4721 28.9484 14.1386 28.0248C14.3391 27.7484 14.5477 27.4837 14.7674 27.2329C14.3826 26.6937 13.9965 26.1508 13.6093 25.6044C13.495 25.6497 13.2635 25.6965 13.0932 25.8237C12.4504 26.2998 11.8253 26.8 11.2009 27.2987C11.1183 27.3645 11.0394 27.434 10.9613 27.502L10.3863 27.3133L9.2156 26.5462L7.13157 28.4175L9.14778 29.1956L9.12493 29.227ZM9.12493 29.227C8.2403 28.8665 7.24067 28.4577 7.13452 28.4146L9.12493 29.2292V29.227ZM6.56246 17.8625C6.77108 17.5831 7.02984 17.2526 7.31955 16.9309L6.56246 17.8625ZM8.57499 22.0928C8.81213 21.6033 9.0859 21.132 9.394 20.683C9.52817 20.4906 9.7309 20.2076 10.0022 19.883C10.2805 19.5481 10.5794 19.2306 10.8971 18.9323C10.8421 17.8306 10.7863 16.7295 10.7298 15.6292C10.7553 15.5681 10.7667 15.5021 10.7631 15.436C10.7595 15.37 10.7411 15.3056 10.7091 15.2475C10.6477 15.1044 10.5344 14.9894 10.3916 14.9252C10.2489 14.8611 10.087 14.8524 9.93805 14.9009C9.65507 14.9783 9.3896 15.1086 9.15589 15.2848C8.97823 15.431 8.86102 15.5188 8.70105 15.6599C8.2521 16.0607 8.04937 16.2142 7.87392 16.37C7.71469 16.5118 7.56135 16.6676 7.41023 16.8299H7.40212C7.38797 16.8308 7.37415 16.8344 7.36148 16.8407C7.34881 16.847 7.33755 16.8558 7.3284 16.8665C7.10724 17.0859 5.97566 18.4321 6.0538 18.4833L8.57499 22.0928Z" fill="white"/>
</g>
<defs>
<clipPath id="clip0_285_268">
<rect width="47" height="68" fill="white"/>
</clipPath>
</defs>
</svg>
