<svg width="185" height="297" viewBox="0 0 185 297" fill="none" xmlns="http://www.w3.org/2000/svg">
<g opacity="0.05">
<mask id="mask0_16_170" style="mask-type:alpha" maskUnits="userSpaceOnUse" x="6" y="17" width="242" height="326">
<path d="M89.9471 29.8274C90.1471 30.4938 91.2262 30.9982 92.0337 31.3333C91.3847 30.4147 90.7395 29.5074 90.0943 28.5889C89.9163 28.9828 89.8649 29.422 89.9471 29.8463M30.2082 161.632C31.0119 159.637 31.9024 157.691 32.8495 155.801L30.3516 151.103C29.2824 150.611 28.1644 150.232 27.016 149.973L19.3637 148.2C18.7515 147.018 17.7755 146.062 16.579 145.474C15.7942 145.098 14.9905 144.767 14.1754 144.45C12.4725 147.768 10.9779 151.188 9.70029 154.69C8.94563 156.795 8.30417 158.948 7.68158 161.113L6.85522 165.412C6.91487 166.308 7.02447 167.201 7.1835 168.085C7.56083 169.775 8.69282 170.641 10.3908 170.799L15.5036 171.91L13.9943 200.898L14.3113 201.7C14.1717 203.379 14.0019 205.088 13.8773 206.748C13.9188 207.256 13.9604 207.761 13.9943 208.254C14.1 209.805 14.2056 211.318 14.3415 212.772C14.4282 213.69 14.5339 214.586 14.6811 215.486C15.0584 217.745 16.8733 218.791 19.1373 218.528C21.024 218.306 21.8503 217.165 21.9748 214.763C22.1107 212.229 22.239 209.703 22.3522 207.17C22.4239 205.713 22.5107 204.256 22.5823 202.806C22.7333 200.171 22.8691 197.559 23.0389 194.938C23.1031 193.85 23.1974 192.751 23.2955 191.663C23.2955 191.663 23.2955 191.663 23.2729 191.663C23.42 190.025 23.6011 188.083 23.8238 186.585C24.2992 183.403 25.5821 176.623 25.5821 176.623L26.5556 172.61C27.5439 168.869 28.7561 165.191 30.1855 161.595M144.407 277.351C141.538 281.135 138.317 284.639 134.785 287.816C132.839 289.594 131.097 291.582 129.589 293.742C128.565 295.179 127.632 296.678 126.793 298.23C125.893 299.899 125.06 301.61 124.295 303.365C123.65 304.87 123.541 306.331 125.05 307.453C126.458 308.507 128.001 308.432 129.518 307.133C130.218 306.469 130.878 305.763 131.495 305.021L137.615 298.493C139.226 296.784 140.823 295.071 142.422 293.351C144.954 290.617 147.599 287.956 149.95 285.068C150.15 284.812 150.373 284.583 150.565 284.315C152.837 281.375 154.88 278.265 156.674 275.013C157.497 273.533 158.27 272.035 158.991 270.495C161.965 264.119 164.343 257.483 166.092 250.67C167.301 246.12 168.196 241.493 168.771 236.82L169.149 232.958C169.678 226.607 169.4 220.216 168.322 213.935C167.975 213.679 167.613 213.427 167.266 213.182C163.074 210.14 159.342 210.14 156.402 213.212C156.723 215.072 157.059 216.932 157.357 218.81C158.166 223.931 158.554 229.11 158.519 234.294C158.519 235.54 158.478 236.798 158.406 238.059C158.168 243.105 157.429 248.115 156.202 253.016C154.489 259.838 151.707 266.347 147.958 272.302C146.864 274.045 145.694 275.724 144.418 277.362M14.4547 137.787C14.4372 137.719 14.4158 137.653 14.3905 137.587C14.3672 137.621 14.3457 137.656 14.3264 137.693L14.4547 137.787ZM55.1723 188.377C55.9006 187.669 56.21 186.98 55.7421 186.389C55.4133 185.989 55.2145 185.5 55.1723 184.985L57.7005 180.983C59.528 176.397 61.7526 171.98 64.349 167.78C64.666 167.26 64.9829 166.756 65.3037 166.248C63.5708 164.817 61.6929 163.57 59.7003 162.528C58.3268 161.854 56.9269 161.177 55.5497 160.522C53.2304 165.792 50.8343 171.02 48.3615 176.205C46.3844 180.315 45.0836 184.716 44.509 189.239L43.977 193.794C42.928 203.446 41.8903 213.109 40.864 222.782C39.8377 232.57 38.7585 242.358 37.8793 252.169C40.0886 256.507 41.8157 261.073 43.0299 265.786C43.6416 265.433 44.1684 264.951 44.5731 264.374C45.2938 263.244 45.4825 261.739 45.7806 260.398C49.2294 244.737 50.6859 228.82 51.2104 212.851C51.4631 204.557 52.7949 196.331 55.1723 188.38M197.716 235.062C196.633 234.249 194.562 233.594 193.532 234.091C193.093 234.304 192.64 234.488 192.177 234.641C191.723 239.809 190.788 244.925 189.385 249.921H182.97C183.558 246.921 183.968 243.889 184.197 240.841C184.312 239.099 184.404 237.367 184.472 235.646C183.283 235.646 182.08 235.646 180.895 235.729C179.178 235.834 177.42 235.804 175.684 235.845C174.875 247.679 171.852 259.256 166.771 269.979C167.839 269.979 168.911 269.979 169.979 270.055C171.673 270.16 173.503 270.119 175.069 269.569C176.142 269.219 177.234 268.93 178.34 268.703L181.736 268.142C185.021 267.813 188.321 267.658 191.622 267.679C192.396 266.358 193.132 265.006 193.785 263.591C197.548 255.261 199.846 246.346 200.576 237.238C199.622 236.508 198.69 235.77 197.709 235.062M155.678 302.71C156.968 300.406 158.768 298.369 160.527 296.362C162.59 294.03 164.841 291.871 167.258 289.906C165.32 289.967 163.392 290.21 161.5 290.632C160.187 290.877 158.968 291.574 157.655 291.871C155.825 292.247 153.984 292.65 152.131 293.031C149.256 296.331 146.138 299.413 142.803 302.25C143.883 305.736 145.23 309.151 146.309 312.633C150.189 310.132 153.404 306.729 155.678 302.717M174.363 212.421C174.741 214.586 175.016 216.732 175.25 218.863C175.757 223.27 175.955 227.706 175.843 232.141C178.756 231.764 181.676 231.41 184.589 231.053C184.589 229.152 184.589 227.262 184.555 225.372C184.321 216.337 183.212 207.403 180.703 198.575C180.387 197.45 179.951 196.362 179.401 195.33C179.295 195.142 179.22 194.92 179.106 194.739C178.827 194.236 178.43 193.809 177.948 193.495C177.466 193.181 176.914 192.989 176.341 192.936C175.678 192.86 175.007 192.924 174.371 193.124C172.424 193.737 171.545 194.889 171.545 197.054C171.544 198.082 171.651 199.108 171.862 200.115C172.669 204.226 173.643 208.303 174.363 212.421ZM116.149 319.873C113.179 321.828 110.917 324.682 109.693 328.016C108.889 330.274 109.723 332.315 111.632 333.316C113.21 334.141 114.764 333.602 116.224 331.566C117.261 330.138 118.423 328.805 119.696 327.583C119.074 324.616 118.461 321.683 117.854 318.785C117.281 319.161 116.7 319.492 116.141 319.873M140.902 315.649C141.57 315.34 142.215 315.012 142.86 314.666L146.301 312.626L142.796 302.243L139.992 304.577C135.228 308.344 130.157 311.708 124.831 314.632C123.741 315.223 122.662 315.859 121.582 316.481C122.058 318.627 122.545 320.769 123.02 322.915L127.695 321.879C132.05 319.692 136.506 317.738 140.902 315.66M83.657 260.756C86.7058 249.266 87.5435 237.637 84.1777 226.027C83.1363 222.417 81.7213 218.908 80.6195 215.316C79.6648 212.226 79.412 209.003 81.2345 206.138C83.1697 203.041 84.9332 199.84 86.5172 196.55C84.5399 193.096 82.5363 189.653 80.5063 186.219C80.3667 186.472 80.2195 186.728 80.0724 186.972C77.9216 190.628 75.9217 194.377 73.8049 198.063C73.2238 199.087 72.3975 200.006 71.0202 199.456C69.643 198.906 68.9034 197.852 69.0732 196.32C69.1388 195.594 69.313 194.882 69.5901 194.208C70.4391 192.326 71.1485 190.353 72.3031 188.674C74.0817 186.064 75.7033 183.351 77.1594 180.55C76.9594 180.215 76.7594 179.876 76.567 179.537C74.5671 176.149 72.2805 175.772 68.9675 177.963C67.9072 178.671 66.8394 179.356 65.7791 180.053C64.5415 182.334 63.3101 184.613 62.085 186.889C57.459 195.465 58.6023 204.282 62.934 212.753C64.1717 215.185 65.6621 217.477 66.9979 219.864C71.9824 228.734 74.5445 238.243 74.0502 248.476C73.7219 255.391 71.9296 261.983 69.5222 268.47C67.3412 274.384 65.4055 280.393 63.4849 286.393C63.451 286.51 63.4623 286.627 63.4321 286.744C65.8659 287.734 68.2997 288.675 70.7334 289.646C73.9342 287.115 76.327 283.708 77.6197 279.843C79.7479 273.515 81.9515 267.201 83.657 260.756ZM143.619 166.816L148.309 171.368C150.863 171.894 153.517 171.649 155.931 170.664C154.987 168.584 153.926 166.559 152.754 164.599L150.49 161.188C146.743 156.106 142.147 152.42 136.906 150.244L133.306 149.043C129.113 147.919 124.74 147.631 120.435 148.196C122.201 149.877 124.083 151.43 126.069 152.846C127.748 154.016 128.767 154.589 129.604 154.374L133.042 158.082C135.297 159.015 137.391 160.296 139.245 161.881C140.916 163.32 142.386 164.974 143.619 166.801M143.588 136.804C142.211 139.564 140.823 142.35 139.438 145.151C141.033 145.795 142.591 146.528 144.105 147.345C148.118 149.503 151.762 152.281 154.904 155.575C156.776 153.113 158.621 150.634 160.44 148.14C155.617 143.296 149.888 139.444 143.577 136.804M84.789 166.225C87.2504 162.649 90.1044 159.359 93.2978 156.414C95.9117 153.979 98.7 151.737 101.641 149.706C105.859 146.736 110.572 144.537 115.56 143.212C122.335 141.472 129.468 141.718 136.106 143.92C136.913 142.463 137.717 141.002 138.532 139.545C139.517 137.794 139.728 136.345 139.049 135.11C133.95 133.454 128.681 132.369 123.341 131.876C120.058 132.253 117.443 132.321 114.915 132.859C113.326 133.198 111.791 133.612 110.278 134.075C101.559 136.649 93.628 141.366 87.2115 147.793C84.5349 150.463 82.1075 153.37 79.9592 156.478C78.1027 159.14 76.3594 161.873 74.6539 164.64C76.0613 166.056 77.6725 167.324 79.2045 168.729C81.0911 167.885 82.9438 167.061 84.7965 166.225M155.157 89.9454C154.916 93.2207 154.746 96.5073 154.554 99.7901C156.936 100.942 159.287 102.164 161.606 103.457C169.118 107.706 176.202 112.668 182.759 118.275C183.963 119.299 185.181 120.323 186.355 121.388C190.241 124.874 193.958 128.56 197.565 132.385C198.245 131.677 198.912 130.958 199.569 130.242C201.078 128.56 201.792 126.015 202.52 123.756C202.561 123.628 202.584 123.511 202.618 123.379C199.599 120.082 196.441 116.944 193.143 113.968C191.988 112.933 190.834 111.909 189.649 110.907C183.361 105.545 176.69 100.647 169.688 96.2513C165.098 93.3297 160.333 90.6895 155.421 88.3455C155.303 88.8738 155.221 89.4096 155.176 89.9492M82.0269 102.23C82.8533 101.661 83.691 101.123 84.5249 100.592C87.2736 98.849 90.135 97.2895 93.0903 95.9237C93.1204 92.4301 93.1091 88.9742 93.0261 85.5219C90.2695 86.6445 87.5764 87.9164 84.9588 89.3318C84.1664 89.7685 83.4042 90.2541 82.6193 90.7059C76.4966 94.339 70.8866 98.7701 65.9376 103.882C61.77 108.169 57.9966 112.821 54.663 117.781C54.4479 118.086 54.2177 118.384 53.9951 118.689C55.9308 121.045 57.7005 123.029 59.3079 124.712L66.4545 132.844L74.6275 126.952L67.8846 115.274C68.7864 114.197 69.7033 113.121 70.658 112.097C74.0629 108.391 77.8768 105.081 82.0269 102.23ZM220.25 148.143C218.564 144.962 216.745 141.86 214.764 138.837C213.255 136.578 211.745 134.32 210.044 132.151C209.968 132.057 209.897 131.974 209.821 131.888C207.557 133.823 205.184 135.829 202.652 137.994C203.214 138.649 203.784 139.312 204.323 139.989C205.289 141.164 206.21 142.346 207.119 143.551C208.093 144.849 209.006 146.186 209.923 147.541C211.261 149.538 212.498 151.601 213.628 153.723C215.026 156.313 216.246 158.995 217.281 161.749C217.851 163.277 218.383 164.821 218.892 166.364C221.05 163.933 223.21 161.499 225.371 159.065C223.824 155.334 222.13 151.694 220.258 148.147M221.443 174.523C221.941 176.156 222.447 177.805 222.952 179.443C222.981 179.554 223.016 179.664 223.058 179.77C223.745 181.946 224.446 184.111 225.163 186.265C225.82 185.854 226.518 184.913 227.537 183.415C228.88 181.427 230.269 179.466 231.619 177.478C231.604 177.399 231.584 177.321 231.559 177.244L236.521 170.242L236.555 170.34C238.482 167.579 240.405 164.818 242.324 162.058C241.073 158.08 239.606 154.173 237.932 150.353L220.103 170.201C220.549 171.639 220.983 173.084 221.428 174.523M39.2905 145.99C40.3441 144.701 41.4783 143.48 42.6865 142.335C43.5204 141.54 44.3996 140.772 45.3089 140.042C45.3844 139.989 45.4372 139.925 45.5127 139.872C49.7206 136.548 53.6342 132.869 57.2099 128.876C55.8214 126.617 53.98 124.008 52.0028 121.38C49.5954 124.459 46.7402 127.16 43.5317 129.395C42.1623 130.382 40.8866 131.492 39.7207 132.712C39.6679 132.765 39.6263 132.806 39.5735 132.851C38.7358 133.685 37.9233 134.539 37.136 135.415C34.9523 137.839 32.9472 140.417 31.1364 143.129C32.5212 143.664 33.9098 144.213 35.287 144.721C36.6002 145.196 37.9284 145.599 39.2679 145.99M119.82 80.1874C115.752 80.2124 111.694 80.584 107.689 81.298L103.052 82.258C100.601 82.8665 98.1841 83.6029 95.8108 84.4641C96.0221 87.8335 96.456 91.1087 96.9428 94.3275C99.2924 93.4154 101.697 92.651 104.142 92.0386L107.761 91.2555C111.828 90.5153 115.964 90.2124 120.096 90.352C120.073 88.7257 120.032 87.1106 120.013 85.4843C119.99 83.297 119.96 81.5728 119.82 80.1912M60.104 53.3378C58.5985 53.5176 57.1269 53.9132 55.7346 54.5124C53.7641 55.3016 51.9585 56.4506 50.4104 57.9006C47.9929 60.1013 45.7686 62.5044 43.7619 65.0836C43.0865 65.9908 42.4488 66.932 41.7922 67.8506C40.4602 69.6877 39.1245 71.5362 37.8453 73.4035C39.8037 75.8656 41.7507 78.2976 43.6864 80.7446C45.1052 79.3855 46.5881 78.0641 48.1125 76.7954C48.5162 76.4679 48.9049 76.1291 49.3086 75.794C52.6556 73.1098 56.5496 71.9277 60.8587 72.6355C63.6961 73.1 66.5773 73.2415 69.4467 73.0571C72.4781 72.8473 75.4745 72.2838 78.3744 71.3781C78.3744 68.7918 77.3065 66.6271 75.4425 64.4285C75.284 64.2478 75.1444 64.0709 74.9973 63.8902C71.2714 64.641 67.4784 65.0093 63.6774 64.9894H58.9909C57.7005 64.9894 56.7571 64.5113 56.5571 63.1071C56.3572 61.7029 57.1496 60.9085 58.4212 60.6563C58.9494 60.5584 59.489 60.4455 60.0173 60.3175C62.4435 59.798 64.8773 59.2295 67.3224 59.1128C68.511 59.0601 69.6958 58.9886 70.8693 58.902C69.1663 56.8013 67.4796 54.6893 65.8093 52.566C63.9226 52.871 62.036 53.1571 60.104 53.3566M164.187 68.1329C164.941 70.2449 166.451 71.6416 168.485 72.5715C174.714 75.4475 180.616 78.9813 186.091 83.1126L199.675 94.8282C200.052 95.1859 200.456 95.5811 200.859 95.9275C201.063 96.1174 201.287 96.2841 201.527 96.4244L203.123 94.256L204.659 90.657C204.229 89.2451 203.575 87.9107 202.724 86.7041C199.76 82.6944 196.351 79.0319 192.562 75.7865L192.528 75.7451C192.528 75.7451 178.367 62.9904 177.507 62.6441C176.646 62.2977 167.047 55.3142 167.047 55.3142L165.16 59.03C164.274 60.837 163.406 62.5913 162.549 64.3231C163.191 65.5448 163.742 66.8119 164.198 68.1141M11.236 116.836C12.9529 117.589 14.1075 116.52 15.1754 115.391C16.33 114.175 17.462 112.94 18.6053 111.724L21.3145 108.949C21.5824 108.693 21.8239 108.419 22.0692 108.166C25.7794 104.621 29.0331 100.629 31.7552 96.2814L34.3098 92.208C36.2784 89.0399 38.5532 86.0717 41.1017 83.346C40.381 82.4161 39.6716 81.4636 38.9547 80.5451C37.8831 79.1822 36.8039 77.842 35.7248 76.4905C34.9324 77.6613 34.1286 78.8359 33.3325 80.0067C31.8232 82.2354 30.3138 84.4528 28.7404 86.6175L26.4311 89.7346C23.1804 94.0702 19.5418 98.1024 15.5602 101.782C13.1566 104.067 12.6661 104.541 12.6661 104.541C10.7328 106.841 9.57378 109.69 9.35315 112.684C9.18335 114.427 9.42862 116.042 11.2058 116.844M95.9278 44.5812L77.582 50.0211C75.0312 50.6762 72.4692 51.2785 69.8845 51.7943C71.8928 54.0742 74.0241 56.2434 76.2689 58.2921C76.7254 58.2168 77.1782 58.1528 77.6348 58.07V57.9947L81.2647 57.2418C83.5542 56.6381 85.7747 55.7991 87.8906 54.7382L98.8596 51.4969L97.1466 47.4611C96.8371 46.6066 96.4447 45.6579 95.9278 44.5774M102.659 56.8841C102.667 56.5091 102.603 56.1361 102.471 55.7848C98.7427 56.7147 95.0599 57.8328 91.396 59.1429C90.1999 59.5759 89.0038 59.9787 87.8076 60.3777L81.6043 62.3241L82.0722 81.3356C82.0722 81.5013 82.0383 81.6632 82.0383 81.8401L81.9666 82.0961L82.1137 84.2608C82.1137 84.3436 82.1137 84.4076 82.1137 84.4829C82.1137 84.6523 82.1326 84.8104 82.1552 84.9798L95.7316 78.6815L101.214 76.5884L103.788 75.9145L102.686 69.1381V63.7735C102.686 61.4394 102.686 59.158 102.663 56.8879M109.576 50.0098L126.824 49.6635L126.842 41.5732C124.548 41.4452 122.228 41.3812 119.9 41.4038C118.066 41.4239 116.248 41.4766 114.447 41.5619L109.629 42.025C109.599 41.9882 109.568 41.953 109.534 41.9195C108.191 42.0588 106.855 42.217 105.535 42.4165C105.546 42.5328 105.574 42.6468 105.618 42.7553C106.942 45.1722 108.044 47.7284 109.576 50.0098ZM134.359 277.539C140.456 272.585 144.784 266.29 147.758 259.009C150.512 252.301 151.663 245.227 152.912 238.138C150.648 238.138 148.384 238.138 146.098 238.16C145.135 238.139 144.181 237.968 143.271 237.652C142.139 244.192 140.283 250.569 138.294 256.939C137.349 260.027 135.656 262.836 133.363 265.116C131.67 266.76 129.896 268.318 128.046 269.784C122.733 274.079 118.666 279.237 116.009 285.55C116.594 288.679 117.217 291.95 117.896 295.594C119.028 295.406 120.13 295.218 121.254 295.056C121.605 294.401 121.971 293.761 122.333 293.102C125.529 287.274 129.099 281.77 134.348 277.524M144.509 232.476C144.425 232.891 144.458 233.321 144.602 233.719C144.746 234.118 144.997 234.469 145.328 234.735C145.957 235.207 146.712 235.484 147.497 235.529C148.49 235.634 149.528 235.393 150.546 235.265C151.508 235.149 152.471 235.021 153.437 234.889C153.831 232.013 153.937 229.105 153.754 226.208L153.859 226.05L153.561 224.137C153.371 222.31 153.086 220.495 152.708 218.697L151.535 214.074C150.761 211.409 149.965 208.77 149.184 206.108C145.456 205.22 142.471 203.036 139.57 200.551L137.762 199.046C138.178 201.117 138.86 203.127 139.792 205.024C140.908 207.257 141.821 209.585 142.521 211.981L143.875 218.212L144.385 225.628V232.133L144.509 232.476ZM115.164 305.928C114.93 304.799 114.685 303.639 114.455 302.499C111.259 300.955 109.847 303.534 108.04 304.822C107.372 305.294 106.801 305.889 106.357 306.576L100.637 312.712C99.3464 314.218 97.9955 315.724 96.5692 317.181C96.2636 317.475 95.8599 317.791 95.7882 318.152C95.5844 319.09 95.1429 320.347 95.5542 320.949C96.041 321.646 97.3239 322.049 98.2748 322.079C98.9993 322.039 99.7069 321.845 100.35 321.51L104.044 319.628C107.125 317.754 109.713 315.173 111.591 312.099C112.828 310.073 113.994 308.003 115.168 305.94M147.637 72.1724L146.294 71.4722C146.143 71.4722 140.694 69.9212 139.834 69.9212C134.68 68.6939 132.204 68.7391 126.812 68.1668C125.216 70.3842 124.031 73.0609 124.084 74.9056C124.084 75.075 124.084 75.2444 124.084 75.4138C133.538 76.1733 142.846 78.1993 151.758 81.4373C151.38 78.3653 150.965 73.8778 147.607 72.1461M160.712 81.4185C165.743 85.537 170.774 89.6493 175.805 93.7553C181.261 97.3993 186.503 101.352 191.505 105.595C193.071 106.186 194.524 105.923 195.773 104.191C196.724 102.858 197.697 101.529 198.724 100.133C196.389 98.1901 194 96.3077 191.555 94.4856C190.77 93.9021 189.966 93.3562 189.17 92.7727C187.996 91.9181 186.823 91.0523 185.615 90.2165C176.825 84.0775 167.297 79.0639 157.255 75.2933C157.233 75.3348 157.21 75.3875 157.18 75.4402C156.802 76.2533 157.221 77.7554 157.772 78.61C158.493 79.7394 159.678 80.5639 160.738 81.4298M246.837 182.888C246.278 178.281 245.451 173.71 244.358 169.199C243.871 168.872 243.415 168.533 242.898 168.228C241.226 170.701 239.585 173.096 237.966 175.464C237.181 176.616 227.231 188.527 227.231 188.527L229.22 196.599L242.622 195.416C243.38 195.576 244.169 195.505 244.886 195.213C246.505 194.603 247.181 193.218 247.181 191.614C247.181 188.697 247.203 185.771 246.856 182.888M112.64 266.012C113.191 269.204 113.719 272.411 114.262 275.604C118.643 267.596 124.095 260.436 131.506 254.763C133.016 253.633 134.08 251.721 134.872 249.948C135.581 248.385 135.71 246.559 135.951 244.805C136.249 242.746 136.596 240.694 136.936 238.646C128.235 242.87 119.552 247.098 110.557 251.48C110.387 251.555 110.229 251.638 110.07 251.71C110.153 252.206 110.247 252.715 110.346 253.215C111.1 257.421 111.889 261.72 112.64 266.015M138.06 220.41C137.974 219.744 137.868 219.089 137.751 218.434C135.147 219.047 132.585 219.838 129.97 220.376C128.563 220.674 127.05 220.429 125.778 220.429C123.609 214.97 121.82 211.525 119.564 209.447C117.747 211.684 116.489 214.318 115.892 217.135C115.564 218.675 115.236 220.229 114.907 221.784C115.606 225.681 115.662 229.713 117.088 233.485C118.126 236.222 118.632 238.989 121.164 241.078C122.209 240.931 123.462 240.984 124.529 240.574C129.354 238.744 133.84 236.127 137.804 232.83C138.336 228.734 138.589 224.611 138.06 220.406M102.554 299.897L105.01 295.21C105.327 294.555 105.636 293.889 105.931 293.223C106.957 290.964 107.953 288.705 108.972 286.446C108.421 284.662 108.165 282.772 107.783 280.935C107.191 278.104 106.599 275.288 106.025 272.43C105.984 272.189 105.953 271.933 105.901 271.677C104.391 275.883 102.652 280.012 100.976 284.161C99.1844 288.676 96.9205 292.991 94.2222 297.032L92.2337 300.571L91.8564 300.921C91.7371 301.023 91.6249 301.132 91.5206 301.249L86.4492 306.169C85.6644 306.9 84.8607 307.626 84.0155 308.311C83.5497 308.702 83.1397 309.154 82.7967 309.655C81.4836 311.568 82.6156 314.06 84.9437 314.196C85.3518 314.216 85.7609 314.188 86.1625 314.113L91.1168 312.517L93.0978 310.205C94.0471 309.577 94.9627 308.9 95.841 308.176C98.6332 305.83 100.746 302.981 102.539 299.894M130.68 193.06C129.706 192.247 128.752 191.422 127.778 190.62C127.68 190.537 127.567 190.473 127.461 190.387L122.077 184.845L115.206 191.998L121.643 206.364L128.088 215.923C131.287 216.047 134.314 216.548 136.389 213.724L130.872 193.88C130.837 193.601 130.777 193.325 130.695 193.056M170.36 307.63C171.696 306.038 173.122 304.535 174.594 303.09C175.6 302.106 176.641 301.151 177.718 300.225C180.446 297.888 183.298 295.699 186.261 293.667C186.102 293.11 185.944 292.537 185.815 291.976C185.363 289.959 183.604 288.355 181.529 287.512C179.33 289.345 177.03 291.055 174.639 292.632C174.511 292.707 174.405 292.79 174.262 292.876C173.382 293.445 172.526 294.081 171.681 294.725C168.7 297.037 165.935 299.613 163.421 302.423C161.255 304.876 159.629 307.753 158.648 310.871C158.044 312.754 157.346 314.591 156.595 316.398L155.123 317.392L152.561 324.545L155.037 323.415C154.919 323.52 154.793 323.615 154.659 323.698C153.994 324.065 153.287 324.354 152.554 324.556C152.331 324.955 152.12 325.346 151.886 325.738C154.776 327.014 156.84 328.373 159.549 326.739C165.636 323.035 171.779 319.402 178.171 315.577C178.171 314.824 178.31 314.29 178.152 313.834C177.567 312.084 176.986 310.341 176.405 308.586C175.884 308.963 175.367 309.339 174.839 309.685C172.93 310.95 170.888 310.973 168.854 309.81C168.907 309.598 168.985 309.393 169.088 309.2C169.492 308.669 169.915 308.153 170.337 307.634M197.611 293.765L196.818 292.635L195.781 293.388C195.334 293.462 194.917 293.656 194.573 293.949C193.46 294.868 192.358 295.798 191.249 296.716L179.929 306.572L180.782 310.28C180.789 311.369 181.039 312.443 181.514 313.424L181.948 314.463C183.08 313.996 184.212 313.533 185.4 313.119C189.095 311.835 192.318 309.474 194.652 306.342L198.365 299.709C198.565 299.212 198.777 298.715 198.969 298.203C199.208 297.454 199.248 296.657 199.086 295.888C199.002 295.451 198.826 295.036 198.571 294.671C198.315 294.305 197.986 293.998 197.603 293.768M193.154 282.245C195.347 282.105 196.173 280.362 195.867 278.631C195.49 276.56 196.301 274.079 194.924 272.283C194.601 271.845 194.19 271.478 193.717 271.207C193.414 271.051 193.066 271.002 192.732 271.067C191.472 271.278 190.215 271.5 188.959 271.723L175.492 272.811C173.873 272.908 172.454 272.686 171.247 273.108C169.056 273.851 166.792 274.356 164.492 274.614L156.429 287.583L169.311 285.452C170.658 285.23 172.013 285.008 173.367 284.805C173.673 284.752 173.926 284.688 174.201 284.635L186.906 282.505C188.994 282.452 191.072 282.364 193.139 282.241M153.803 112.04C153.603 114.676 155.274 116.087 156.935 116.912C160.821 118.824 163.945 121.697 167.122 124.494C168.666 125.845 170.224 127.189 171.884 128.394C172.367 128.72 172.894 128.974 173.45 129.147C174.839 130.246 176.193 131.376 177.518 132.558C180.714 135.441 183.693 138.555 186.43 141.875C188.967 140.233 191.357 138.378 193.577 136.33C190.148 132.653 186.564 129.146 182.823 125.808C181.159 124.321 179.465 122.841 177.759 121.403C175.454 119.449 173.133 117.54 170.771 115.658C165.67 111.55 160.116 108.033 154.218 105.177C154.082 107.47 153.965 109.759 153.795 112.04M193.792 149.8C193.512 150.173 193.26 150.565 193.037 150.975C193.988 152.48 194.924 154.039 195.811 155.643C196.116 156.192 196.479 156.701 196.807 157.239L204.195 167.061C206.459 169.384 208.663 171.759 211.553 174.794C212.757 173.386 213.677 172.29 214.538 171.296C213.005 166.681 211.131 162.187 208.931 157.849L205.384 151.618C203.954 149.284 202.407 147.025 200.758 144.804C197.675 145.26 195.645 147.319 193.792 149.8ZM126.956 36.0278C127.001 33.4829 127.05 30.9342 127.103 28.4006C120.303 28.1845 113.496 28.4172 106.727 29.0971C108.093 31.3898 109.448 33.6712 110.813 35.9525C116.184 35.3716 121.602 35.3969 126.967 36.0278M71.1221 45.6503C73.1446 45.1195 75.1558 44.5623 77.1594 44.0014C79.3819 43.3765 80.8723 42.9435 80.8723 42.9435C84.9399 41.784 89.0038 40.6207 93.0676 39.5215C93.2374 39.7135 93.2902 39.7436 93.1318 39.5215C89.7358 33.8368 85.1286 27.6176 81.9666 24.8806C81.6798 24.651 81.4157 24.4063 81.1591 24.2256C81.1289 24.7451 81.0949 25.2082 81.0647 25.675L76.0802 30.0495C71.2051 33.5883 65.6734 35.9525 59.6701 37.6466C59.2928 37.7408 58.9607 37.8688 58.6098 37.9742C60.9832 40.9407 63.2887 43.8998 65.6508 46.8023C67.4922 46.4974 69.3147 46.1284 71.1145 45.6729M90.0943 28.6039L92.2752 31.3484C92.1998 31.3484 92.1167 31.3709 92.0526 31.3484C91.9884 31.3258 92.0526 31.3484 92.0337 31.3484C93.2374 33.0726 94.4336 34.793 95.6523 36.4947C96.407 37.5488 97.0296 38.121 97.7691 38.3092C98.5087 38.4975 99.486 38.2678 100.924 37.5563C101.301 37.3681 101.72 37.1535 102.184 36.9125C104.512 35.6664 104.852 34.2283 103.561 31.9168C103.15 31.1639 102.746 30.411 102.331 29.658L100.724 21.6844C100.49 20.2162 99.6445 19.6365 98.1918 19.7005C97.7805 19.7005 97.3579 19.7005 96.9428 19.7005C96.1617 19.7005 95.3656 19.7005 94.5845 19.7005C91.2262 19.7419 88.1057 20.4798 85.3927 22.0948C85.7701 22.5842 86.1889 23.0661 86.5473 23.563C87.7435 25.2232 88.9208 26.9023 90.0943 28.5926M37.1511 61.3038C37.3995 61.1612 37.6401 61.0054 37.8718 60.837C38.8151 60.182 39.649 59.3914 40.5395 58.661C42.7733 56.8013 44.9429 54.87 47.2635 53.1157C48.8503 51.8936 50.5481 50.8223 52.3348 49.9157C54.9639 48.5621 57.8273 47.7201 60.7719 47.4348L61.6586 47.3407C60.4965 45.8724 59.3293 44.4143 58.157 42.9661C57.0431 41.6594 55.8471 40.4246 54.5762 39.2692C51.9349 40.1916 49.2935 41.2231 46.7315 42.345C45.8032 42.7553 44.8448 43.1581 43.9392 43.5798C38.9509 45.8837 35.0456 49.8216 31.4458 53.9514C30.9674 54.4803 30.5844 55.0879 30.3138 55.7472C29.6346 57.4601 30.1139 59.1354 31.5402 60.6413C33.1815 62.3617 34.9361 62.5951 37.1397 61.3076M49.3803 157.834C47.0824 156.893 44.7618 156.004 42.4035 155.278C41.7614 155.086 41.1014 154.96 40.4338 154.901C35.8266 161.452 31.8684 168.315 30.0459 176.111L29.3592 180.896C29.3272 180.801 29.2855 180.708 29.2347 180.621C29.129 181.465 29.0422 182.3 28.9366 183.136C28.9894 183.072 29.0234 183.019 29.0649 182.967L28.3102 188.331C27.8763 192.175 27.514 196.023 27.1782 199.885C27.0613 201.391 26.9669 202.95 26.8613 204.47C26.5783 208.781 26.3406 213.088 26.2462 217.41C26.5104 223.155 26.7556 228.888 27.0613 234.637C27.1028 235.439 27.1367 236.241 27.1782 237.042C27.2537 238.228 27.5065 239.546 28.1404 240.487C28.6611 241.24 29.8912 241.914 30.7553 241.861C31.1579 241.789 31.5261 241.588 31.8043 241.289C32.2116 240.931 32.5218 240.477 32.7061 239.968C33.4872 237.234 34.3135 234.445 34.5248 231.625C35.0342 224.867 35.4455 218.072 35.4795 211.296C35.4795 207.092 35.687 202.937 36.1021 198.831C36.253 197.223 36.4794 195.62 36.6945 194.024C38.2717 182.85 41.479 172.068 47.0182 161.832C47.7503 160.469 48.554 159.148 49.369 157.83M243.309 241.187C242.811 240.879 241.321 241.447 240.77 242.083C239.117 243.966 237.51 245.874 235.94 247.817C235 248.98 234.053 250.14 233.136 251.326C232.077 252.688 231.176 254.166 230.45 255.73C229.94 256.803 229.528 257.919 229.22 259.066C229.011 259.825 228.841 260.594 228.71 261.37C227.806 267.594 225.357 273.493 221.586 278.533C221.209 279.041 220.832 279.527 220.432 280.039C216.526 285.151 212.41 290.094 208.357 295.097L202.859 302.19C202.014 303.319 201.146 304.449 200.297 305.578C200.452 305.861 200.641 306.124 200.859 306.361C202.32 307.965 203.878 309.539 206.195 309.614C208.386 307.104 210.553 304.579 212.696 302.039C212.293 302.039 211.889 302.039 211.478 302.07L216.1 297.849C217.549 296.076 219.02 294.311 220.439 292.504C222.662 289.665 224.854 286.811 227.231 284.12C230.11 280.814 233.242 277.761 237 275.322C240.207 273.251 241.098 270.074 241.638 266.663C241.89 265.112 240.951 264.212 239.404 264.265C238.102 264.317 236.808 264.641 235.17 264.878C235.634 263.907 235.985 263.147 236.366 262.397C237.486 260.176 238.608 257.958 239.732 255.742C241.279 252.712 242.815 249.682 244.339 246.65C244.773 245.791 245.373 244.745 245.196 243.943C244.925 242.82 244.255 241.834 243.309 241.168M62.6246 225.184C61.5341 222.744 60.1984 221.878 58.4098 222.277C56.7043 222.654 55.9421 223.949 55.9949 226.61C56.0402 228.606 56.2477 230.601 56.2817 232.596C56.4175 241.447 54.395 249.914 51.7952 258.283C50.5651 262.311 49.9086 266.512 48.9992 270.631C49.1351 270.676 49.2747 270.717 49.4105 270.77C49.6558 272.747 49.7878 274.753 50.1652 276.703C50.6104 278.86 52.0065 279.843 54.1988 279.884C56.7194 279.937 57.9721 278.574 58.5608 275.743C59.4815 271.308 60.5833 266.904 61.6926 262.51C62.8246 257.993 64.2773 253.543 65.2395 248.98C66.9979 240.796 66.0357 232.818 62.5982 225.172M92.3356 207.015C91.2904 205.009 90.1999 203.036 89.1094 201.071C88.0793 205.148 87.5209 209.278 86.9058 212.497C87.2454 216.691 87.4378 219.714 87.7435 222.71C87.902 224.295 88.6113 225.5 90.4225 225.617C92.2337 225.733 93.7242 224.864 94.094 223.072C94.42 221.534 94.4876 219.952 94.2939 218.392C94.0203 216.487 94.0203 214.553 94.2939 212.647C93.8852 210.689 93.2271 208.792 92.3356 207M146.671 325.211C146.905 324.609 147.075 323.976 147.316 323.385C147.169 320.934 145.633 319.846 143.422 320.84C141.653 321.642 139.875 322.414 138.14 323.257C136.838 323.893 135.547 324.548 134.317 325.298C131.027 327.371 127.852 329.624 124.809 332.044C124.88 333.267 124.944 334.483 125.031 335.688C125.156 337.8 126.439 338.858 128.397 338.7C130.309 338.497 132.202 338.141 134.057 337.634C138.797 334.647 142.906 330.764 146.154 326.205C146.362 325.898 146.533 325.568 146.664 325.222M199.799 196.422C199.822 196.486 199.863 196.538 199.886 196.602C200.444 197.965 201.535 198.79 203.188 198.485L216.304 198.327C216.978 198.298 217.623 198.047 218.139 197.613C218.654 197.179 219.011 196.587 219.152 195.928C219.311 195.219 219.416 194.5 219.469 193.775C219.658 191.538 219.468 189.286 218.907 187.112C216.813 184.954 214.515 182.97 211.738 181.574L199.079 170.242C198.748 169.928 198.345 169.702 197.905 169.582C197.465 169.462 197.002 169.454 196.558 169.557C196.178 169.625 195.825 169.8 195.542 170.061C195.258 170.323 195.056 170.66 194.958 171.033L192.97 172.885L198.294 191.125C198.411 191.588 198.528 192.055 198.671 192.518C199.007 193.828 199.369 195.153 199.803 196.414M17.7676 88.8462C19.2769 89.4184 20.0656 88.2363 20.8617 87.2311C21.4428 86.4782 22.0465 85.7554 22.6276 85.0024C22.7106 84.8857 22.8087 84.7803 22.8804 84.6674C23.5709 83.7337 24.2464 82.785 24.9331 81.8552C27.265 78.6326 29.6045 75.4138 31.8684 72.1498C31.9395 72.0323 31.9941 71.9057 32.0307 71.7734C32.2499 71.1713 32.2419 70.5102 32.0081 69.9136C31.076 68.0953 30.1214 67.4402 28.8309 67.8017C28.1485 68.0183 27.5153 68.3661 26.9669 68.8256C24.3774 70.8798 22.0909 73.2877 20.175 75.9785C19.3939 77.0364 18.6657 78.1131 17.9638 79.2312C17.2092 80.4359 16.4922 81.682 15.7942 82.9507C15.5336 83.5522 15.3522 84.185 15.2546 84.833C15.3074 86.9977 16.1753 88.2551 17.7827 88.8462M181.593 320.716C180.923 320.655 180.247 320.698 179.589 320.844C179.423 320.885 179.254 320.897 179.095 320.949C174.107 322.53 169.604 325.351 166.009 329.145C165.68 329.503 165.399 329.902 165.172 330.331L156.674 332.725L149.622 330.331L148.18 331.438C147.565 332.304 146.931 333.169 146.275 334.017C146.411 333.971 146.55 333.941 146.686 333.9L143.52 339.125C143.52 340.089 143.966 340.913 144.875 341.674C145.247 342.006 145.688 342.251 146.166 342.391C146.645 342.532 147.148 342.565 147.641 342.487L147.98 342.581C147.98 342.581 161.319 338.463 162.715 338.368C164.111 338.274 168.092 335.733 168.092 335.733C168.802 335.387 169.511 335.003 170.22 334.645C173.7 332.864 177.075 330.885 180.329 328.72C181.219 328.117 181.876 327.123 182.45 326.047C182.827 325.294 183.204 324.541 183.548 323.811C184.268 322.331 183.272 320.893 181.612 320.723M61.2587 32.4363C61.8511 32.6999 62.5265 32.9521 63.1453 33.2909C65.9489 32.0448 68.726 30.9267 71.3825 29.5865C72.2854 29.0784 73.0069 28.302 73.4464 27.3653C73.9332 26.3112 74.5369 24.6096 74.0502 23.9771C73.9992 23.9188 73.9423 23.8658 73.8804 23.819C73.1597 23.0661 71.6164 22.5277 70.6089 22.7386C69.5056 22.9797 68.4171 23.2839 67.3488 23.6496C65.8395 24.1352 64.383 24.7037 62.9453 25.3174C61.907 25.8176 61.0519 26.63 60.5003 27.6402C60.338 27.9564 60.172 28.2952 60.0097 28.6529C59.6324 29.5865 59.3569 30.5879 59.6324 31.2542C59.8437 31.7587 60.4814 32.1088 61.2436 32.4363M112.093 24.6736C113.745 24.9898 115.417 25.2232 117.236 25.5056C119.028 25.2232 120.933 24.9484 122.828 24.6096C124.182 24.3687 125.178 23.7023 125.326 22.1588C125.473 20.6153 124.948 19.3692 123.503 18.7254C119.462 16.9184 115.375 17.2685 111.372 18.8421C109.9 19.4143 109.508 20.8186 109.678 22.3395C109.836 23.7738 110.81 24.4289 112.093 24.6736ZM99.6407 200.235L117.375 177.948L114.047 171.925L114.017 171.85C113.903 170.814 113.444 169.847 112.715 169.101C112.092 168.402 111.226 167.965 110.293 167.878L96.4862 160.913C96.4523 160.955 96.4108 160.996 96.3693 161.049C96.3791 161.046 96.3896 161.046 96.3994 161.049L91.7545 167.449C89.4264 171.051 87.2265 174.737 85.0644 178.453C86.9058 181.506 88.7245 184.57 90.5584 187.624L93.2902 192.183C93.2902 192.183 97.5994 203.793 99.652 200.254M104.689 224.325C104.954 225.869 105.223 227.411 105.497 228.952C105.633 229.705 105.919 230.409 106.108 231.147L107.18 236.282L108.885 243.032L111.444 242.927C111.444 242.957 111.444 242.998 111.444 243.032C112.617 242.945 113.825 242.863 115.217 242.768C114.443 238.65 113.798 234.908 113.077 231.264L110.813 220.809C110.391 219.055 109.934 217.312 109.383 215.591C109.006 214.345 108.527 213.107 108.051 211.883C108.127 211.789 108.18 211.714 108.244 211.62L108.58 211.65L114.923 203.243L111.757 196.802C109.798 198.259 108.572 199.377 108.04 200.401L101.392 206.816L101.908 211.01L104.689 224.325ZM159.78 161.662L164.715 171.356L168.081 181.02C168.42 182.067 168.766 183.112 169.118 184.156C169.639 185.722 170.526 186.841 172.356 186.81C174.186 186.78 175.544 185.805 176.107 183.957C176.276 183.504 176.365 183.025 176.371 182.541C176.318 181.77 176.307 180.99 176.284 180.207C176.261 179.424 176.22 178.701 176.148 177.967C176.088 177.196 175.952 176.432 175.744 175.686C175.492 174.843 175.227 173.995 174.963 173.141C174.039 170.037 172.895 167.003 171.541 164.061L167.987 157.661C166.578 155.435 165.021 153.307 163.326 151.291C162.142 152.992 160.957 154.702 159.738 156.456L159.802 156.52L158.368 158.602L159.78 161.662ZM198.569 208.653C198.018 206.116 197.403 203.605 196.747 201.09L196.686 201.184L195.584 196.791C195.584 196.791 195.607 196.768 195.607 196.76C195.415 196.007 195.23 195.288 195.022 194.551C193.317 188.173 191.626 181.751 190.536 175.264C190.107 175.655 189.621 175.978 189.094 176.224C186.453 177.376 184.363 179.153 182.491 181.118C183.582 187.646 184.68 194.174 186.679 200.503L198.569 208.653ZM176.246 139.071C175.578 138.182 174.861 137.772 174.16 137.749C173.379 137.708 172.616 138.152 171.99 139.018C170.424 141.164 168.888 143.328 167.341 145.523C169.133 147.492 170.783 149.585 172.277 151.788C172.594 152.251 172.858 152.729 173.145 153.192L176.51 159.498L181.453 175.385C183.453 173.291 185.129 170.999 186.155 168.021L190.007 164.452C190.153 164.5 190.302 164.535 190.453 164.557C192.37 164.493 193.162 163.289 193.162 161.546C193.162 160.416 192.083 158.91 190.675 157.92L186.668 152.093L181.484 146.009C179.48 143.374 177.861 141.216 176.242 139.071M146.622 130.694L163.979 142.071L167.579 137.825C167.719 137.93 167.854 138.035 168.002 138.141C168.862 136.906 169.454 136.07 170.035 135.204C170.224 134.918 170.383 134.613 170.552 134.316C167.64 131.733 164.545 129.361 161.293 127.219C158.047 125.107 154.629 123.269 151.075 121.727C149.59 124.708 148.109 127.698 146.63 130.694M130.597 125.405L136.781 127.02C138.136 127.423 139.479 127.844 140.815 128.319C141.683 128.624 142.509 128.985 143.354 129.32C143.53 129.187 143.688 129.032 143.822 128.857C144.064 128.492 144.206 128.07 144.234 127.634L144.456 126.967L146.573 119.924C142.056 118.302 137.422 117.027 132.71 116.11L125.669 115.643V119.163C125.869 120.247 125.692 121.798 126.344 122.34C127.699 123.44 129.14 124.441 130.601 125.405M134.838 108.547C134.891 108.569 134.955 108.569 135.015 108.588L144.139 112.454C145.803 113.207 147.456 113.96 149.105 114.736L150.377 103.442C148.588 102.689 146.765 102.026 144.924 101.401C144.343 101.191 143.856 101.025 143.603 100.938C142.415 100.562 136.91 97.8851 136.129 98.1487C135.347 98.4122 124.76 96.9967 124.76 96.9967L125.235 107.24L134.838 108.547ZM151.033 98.1637L151.576 86.6288C146.584 84.4809 141.383 82.8498 136.057 81.761C132.164 80.9829 128.219 80.4884 124.254 80.2815C124.35 83.7325 124.451 87.1834 124.56 90.6344C125.895 90.7812 127.25 90.9506 128.616 91.1803C132.243 91.8126 135.825 92.6777 139.34 93.7703L151.033 98.1637ZM200.765 286.559C200.775 287.042 200.889 287.518 201.099 287.953C201.308 288.389 201.609 288.775 201.98 289.085C202.419 289.498 202.949 289.801 203.527 289.97L207.591 288.344C210.235 286.354 212.591 284.009 214.591 281.375L217.066 277.351C217.753 275.978 218.314 274.545 218.741 273.07C218.934 272.419 219.168 271.794 219.368 271.15L221.824 264.528C221.296 263.354 220.764 262.183 220.288 261.001C218.943 257.714 217.209 254.6 215.123 251.725C215.123 251.747 215.123 251.777 215.123 251.8L212.542 246.906C213.697 239.475 213.935 231.931 213.251 224.442C213.111 222.899 212.911 221.355 212.689 219.827C212.391 217.692 212.044 215.557 211.674 213.427C211.47 212.297 211.259 211.168 211.07 210.038C210.994 209.647 210.867 209.268 210.693 208.909C210.078 207.67 208.934 207.155 207.433 207.324C205.652 207.512 205.037 208.314 205.037 210.712C205.037 211.623 205.059 212.531 205.059 213.438C205.112 217.684 205.206 221.942 205.112 226.189C204.999 230.974 205.006 235.789 204.689 240.551C204.572 242.253 204.425 243.939 204.203 245.633C203.232 253.501 200.873 261.134 197.233 268.18L201.829 284.086L201.075 285.125C200.848 285.568 200.735 286.061 200.746 286.559M106.406 63.1485L127.295 62.4633L139.215 62.9076C139.302 62.9377 139.374 62.9904 139.449 63.0243L146.509 65.5466C146.486 65.6106 146.456 65.6746 146.433 65.7499C148.086 66.213 149.739 66.7099 151.38 67.2784C152.244 67.5871 152.946 67.5871 153.444 67.2784H154.289L154.184 65.9795C154.22 65.8804 154.248 65.7784 154.267 65.6746C154.313 64.9467 154.224 64.2164 154.003 63.5212L153.78 60.5735L144.456 56.4323C144.385 56.3938 144.303 56.3792 144.222 56.3909L142.739 56.0973C138.482 54.6953 134.066 53.8327 129.593 53.5298L121.292 53.2738C118.516 53.3202 115.745 53.515 112.991 53.8573L105.542 55.1034L105.731 57.7387L106.406 63.1485ZM199.388 105.576C197.841 107.481 197.29 108.874 197.747 110.139V110.922L198.614 111.513C199.296 112.177 200.056 112.754 200.878 113.234C201.988 113.923 203.09 114.63 204.701 115.643L207.833 120.27C207.833 120.458 207.802 120.646 207.802 120.838C208.297 121.369 208.817 121.885 209.312 122.423C212.149 121.158 214.5 119.381 216.681 117.461C214.711 115.203 212.677 113.023 210.58 110.922C210.569 110.962 210.555 111.001 210.538 111.039L207.7 108.072C205.753 106.225 203.774 104.426 201.761 102.674C200.969 103.634 200.188 104.616 199.403 105.576M224.778 143.434L230.121 153.711C232.178 151.396 234.219 149.085 236.276 146.769C235.068 144.26 233.773 141.785 232.389 139.345C232.389 139.345 228.457 132.893 228.035 132.226C227.884 132.004 227.759 131.782 227.612 131.56C225.59 128.548 223.416 125.676 221.198 122.867L217.194 126.29L214.76 128.857L224.778 143.434ZM233.774 244.112C239.672 234.034 241.947 223.008 240.464 211.074C240.286 209.642 240.034 208.221 239.709 206.816C239.392 205.378 239.011 203.962 238.577 202.569C238.06 200.879 236.642 200.152 235.053 200.205C234.884 200.188 234.713 200.188 234.544 200.205C234.031 200.26 233.537 200.431 233.101 200.705C232.664 200.979 232.295 201.349 232.023 201.786L225.378 205.261L219.258 206.108C217.522 206.507 216.617 207.576 216.579 209.7L215.202 221.886L225.156 231.151L233.774 244.112ZM87.3435 295.602C88.751 293.742 90.1169 291.837 91.3319 289.864C96.4447 281.552 98.7879 272.152 100.965 262.71C101.644 259.785 102.342 256.848 103.022 253.912C102.829 252.677 102.644 251.431 102.429 250.185C102.376 249.846 102.184 249.537 102.108 249.202C101.54 246.552 100.98 243.897 100.429 241.236C100.052 239.388 99.7086 237.539 99.3162 235.695C98.5842 232.344 97.8748 229.005 97.1352 225.658C95.7793 231.036 94.9391 236.531 94.626 242.068C94.2864 248.607 93.5355 255.147 92.5507 261.618C90.7697 273.228 86.77 283.852 79.2347 292.767L76.5141 295.809C75.9337 296.426 75.4548 297.132 75.0954 297.898C73.9634 300.266 74.4275 302.378 76.3443 303.711C78.1518 304.957 80.0158 304.788 81.7515 302.63C82.6608 301.501 83.5853 300.372 84.4947 299.242L87.3435 295.602ZM144 51.7115C144.298 51.8395 148.15 52.5547 148.15 52.5547L151.825 53.9514C155.207 55.5116 158.143 57.8901 160.368 60.8709C161.9 57.4827 163.089 54.2375 163.387 52.167C160.796 50.7188 158.053 49.1941 155.157 47.5929L150.735 44.7506C146.033 43.8659 141.343 43.0715 136.63 42.4692L130.027 41.5619C129.393 43.7793 129.65 48.248 129.454 49.8442C134.208 50.1905 138.959 50.8042 143.724 51.6173C143.818 51.6458 143.91 51.681 144 51.7227M139.374 38.0231L139.619 38.1925C139.619 38.1925 145.366 38.9831 145.656 39.2353C146.033 38.8363 146.682 36.4495 146.818 35.8245C147.196 34.1229 146.441 32.8806 144.256 32.0147C140.392 30.4712 135.227 28.875 131.14 28.314C130.431 29.8199 129.631 35.2147 129.672 36.3742C129.777 36.3936 129.883 36.4074 129.989 36.4156L139.374 38.0231ZM120.201 96.2814L104.787 98.7548C104.172 98.7466 103.561 98.8618 102.991 99.0936C101.297 99.7901 99.5954 100.475 97.8748 101.164L88.2642 104.902L90.7508 109.909C90.9028 110.727 91.2241 111.504 91.6941 112.191C91.9054 112.53 92.1507 112.846 92.362 113.173L96.9541 121.727L97.7805 122.246C99.2407 124.159 100.682 124.211 105.403 123.323C107.087 123.228 108.762 122.999 110.41 122.638C113.704 122.638 116.73 122.849 119.696 122.499C120.235 122.435 120.911 121.832 121.409 121.147L121.484 121.106C121.484 121.106 121.484 121.042 121.484 121.03C121.77 120.669 121.956 120.239 122.024 119.784C122.047 119.374 122.024 118.96 122.024 118.549C122.367 116.765 122.628 114.706 122.024 114.683C120.979 114.642 111.727 114.578 111.727 114.578L106.95 114.201L104.844 107.451L120.439 105.644L120.201 96.2814ZM17.3752 132.859L19.1335 135.765C19.6316 136.59 20.141 137.403 20.6429 138.205C21.1402 138.889 21.8276 139.412 22.6201 139.711C23.4691 140.061 24.3256 140.4 25.1746 140.746L31.3251 131.451L31.6081 131.041C31.9477 130.574 32.2533 130.088 32.5514 129.602L41.1357 122.694L47.5314 115.651L34.6795 99.8616L25.6991 113.173L13.1755 126.809L14.8584 128.605C15.7489 130.111 16.5715 131.496 17.3752 132.859ZM53.5611 151.306C57.2892 152.812 60.6021 154.19 60.6021 154.19C61.0474 154.464 61.5341 154.72 62.0624 154.995C64.6758 156.303 67.1488 157.874 69.443 159.682C72.5861 154.75 75.8123 149.871 79.2234 145.117C80.2497 143.694 81.3176 142.331 82.442 141.04C80.4723 138.264 78.4964 135.469 76.5141 132.656C75.9293 132.889 74.7445 133.13 73.8728 133.785C70.5825 136.236 67.3828 138.811 64.1868 141.378C63.7642 141.717 63.3604 142.075 62.9604 142.425L60.0173 141.454L54.0253 137.505L43.3581 147.138L53.6781 151.144L53.5611 151.306ZM53.5611 151.306C49.0332 149.45 43.9166 147.345 43.3732 147.123L53.5611 151.317V151.306ZM40.4452 92.7991C41.513 91.361 42.8374 89.6593 44.3203 88.0029L40.4452 92.7991ZM50.7463 114.578C51.9601 112.057 53.3614 109.631 54.9384 107.319C55.6251 106.329 56.6628 104.872 58.0514 103.201C59.476 101.477 61.0058 99.8426 62.6322 98.3068C62.3504 92.6347 62.0649 86.9663 61.7756 81.3018C61.9061 80.9871 61.9644 80.6473 61.9461 80.3072C61.9278 79.9672 61.8335 79.6355 61.67 79.3366C61.3556 78.6 60.7757 78.008 60.0448 77.6776C59.314 77.3472 58.4854 77.3024 57.7231 77.5521C56.2747 77.9507 54.9159 78.6215 53.7196 79.5286C52.8103 80.2815 52.2103 80.7333 51.3915 81.4599C49.0936 83.5229 48.0559 84.3135 47.1579 85.1154C46.3428 85.8457 45.558 86.6476 44.7844 87.4833H44.7429C44.6706 87.4876 44.5998 87.5065 44.5349 87.5388C44.4701 87.5712 44.4125 87.6164 44.3656 87.6716C43.2336 88.801 37.4416 95.7317 37.8416 95.9953L50.7463 114.578Z" fill="black"/>
</mask>
<g mask="url(#mask0_16_170)">
<rect width="283.875" height="375.394" transform="matrix(0.962576 -0.271011 0.275331 0.961349 -78.0967 35.1703)" fill="black"/>
</g>
</g>
</svg>
