<svg width="24" height="30" viewBox="0 0 24 30" fill="none" xmlns="http://www.w3.org/2000/svg">
<path d="M24 12.2727C24 21.8182 12 30 12 30C12 30 0 21.8182 0 12.2727C4.74244e-08 9.0178 1.26428 5.89618 3.51472 3.5946C5.76515 1.29302 8.8174 0 12 0C15.1826 0 18.2348 1.29302 20.4853 3.5946C22.7357 5.89618 24 9.0178 24 12.2727Z" fill="black"/>
<path d="M12 16.3636C14.2091 16.3636 16 14.5321 16 12.2727C16 10.0134 14.2091 8.18182 12 8.18182C9.79086 8.18182 8 10.0134 8 12.2727C8 14.5321 9.79086 16.3636 12 16.3636Z" fill="#F6F7FA"/>
</svg>
