<svg width="50" height="50" viewBox="0 0 50 50" fill="none" xmlns="http://www.w3.org/2000/svg">
<rect width="50" height="50" fill="white"/>
<rect x="0.5" y="0.5" width="49" height="49" stroke="black" stroke-opacity="0.1"/>
<path d="M9.892 33V16.5H17.262C20.276 16.5 22.564 18.7 22.564 21.582C22.564 24.486 20.276 26.708 17.262 26.708H12.62V33H9.892ZM12.62 24.112H17.174C18.714 24.112 19.814 23.078 19.814 21.582C19.814 20.108 18.714 19.074 17.174 19.074H12.62V24.112ZM31.5945 33.682V31.878C27.2825 31.724 24.0925 28.71 24.0925 24.684C24.0925 20.68 27.3045 17.622 31.5945 17.468V15.818H34.3225V17.468C38.6345 17.6 41.8465 20.636 41.8465 24.684C41.8465 28.732 38.6345 31.746 34.3225 31.878V33.682H31.5945ZM26.8425 24.684C26.8425 27.28 28.9105 29.282 31.6385 29.282V20.086C28.9105 20.086 26.8425 22.088 26.8425 24.684ZM34.3005 29.282C37.0285 29.282 39.0965 27.302 39.0965 24.684C39.0965 22.066 37.0285 20.086 34.3005 20.086V29.282Z" fill="black"/>
</svg>
