<svg width="50" height="50" viewBox="0 0 50 50" fill="none" xmlns="http://www.w3.org/2000/svg">
<rect width="50" height="50" fill="white"/>
<rect x="0.5" y="0.5" width="49" height="49" stroke="black" stroke-opacity="0.1"/>
<path d="M38.1305 20.1388C37.8867 19.4791 37.5932 18.8412 37.2559 18.2323C36.6175 17.0791 35.8226 16.0245 34.8974 15.101C34.8748 15.0784 34.8561 15.0593 34.8336 15.0367H34.832C34.8058 15.0107 34.7808 14.9855 34.753 14.96L34.7511 14.9586C34.6718 14.8796 34.5899 14.8011 34.5074 14.7277C32.0127 12.414 28.667 11 24.9992 11C22.8694 11 20.848 11.477 19.0401 12.329C18.916 12.3875 18.7923 12.4478 18.6708 12.51C17.3447 13.1831 16.1401 14.0606 15.1009 15.101C13.581 16.6191 12.4096 18.4888 11.7146 20.5755C11.6796 20.6805 11.6451 20.7873 11.6128 20.8936L11.6086 20.9054C11.5865 20.9774 11.5653 21.052 11.5444 21.1258C11.4928 21.3025 11.4457 21.4791 11.4027 21.6592C11.3857 21.7213 11.3719 21.7838 11.358 21.8472C11.1237 22.8601 11 23.9155 11 24.9992C11 28.8615 12.5685 32.3669 15.1009 34.8976C16.526 36.322 18.2589 37.4421 20.1907 38.1504C20.2508 38.1726 20.3122 38.1947 20.3744 38.215C20.7435 38.3453 21.1211 38.4594 21.5042 38.5579C21.571 38.5749 21.6391 38.5918 21.7075 38.6065C22.7637 38.863 23.8669 38.9984 24.9992 38.9984C28.8618 38.9984 32.3666 37.4304 34.8973 34.8975C35.3617 34.4345 35.792 33.9392 36.1856 33.4141C37.9506 31.0723 38.9987 28.1549 38.9987 24.9992C38.9987 23.2915 38.6916 21.6535 38.1305 20.1388ZM16.1835 33.8156C13.9263 31.5558 12.532 28.4444 12.532 24.9992C12.532 24.3625 12.5796 23.7384 12.6716 23.1287C13.0962 23.4256 13.8709 23.8409 13.8807 23.8431C13.9097 23.8522 13.9431 23.857 13.9836 23.857C14.0463 23.857 14.1216 23.8457 14.1995 23.8331C14.2817 23.821 14.3655 23.8089 14.4321 23.8089C14.4529 23.8089 14.4727 23.8097 14.4883 23.8127C14.5171 23.8257 14.5645 23.9351 14.5894 23.9937C14.6411 24.1118 14.694 24.2341 14.803 24.2876C14.9041 24.3387 15.1228 24.3653 15.4433 24.3995C15.5495 24.4113 15.658 24.4243 15.7137 24.4334C15.7345 24.4715 15.7599 24.5649 15.7766 24.63C15.8255 24.8131 15.8738 25.0002 16.0134 25.0836C16.1291 25.1543 16.5064 25.5132 16.7169 25.7246C16.7447 25.7515 16.7796 25.7654 16.8159 25.7654C16.8391 25.7654 16.8645 25.7597 16.8853 25.7458C16.902 25.7363 17.2696 25.521 17.3979 25.4408C17.4246 25.4494 17.4719 25.4794 17.5148 25.5163C17.5216 25.7181 17.5472 26.3856 17.5484 26.5206C17.5248 26.6043 17.2446 26.8955 16.9356 27.1568C16.905 27.1824 16.8864 27.2184 16.8853 27.257C16.884 27.2952 16.8505 28.1766 16.8853 28.5308C16.9217 28.8897 17.5107 29.5911 17.6691 29.7734C17.7361 29.9553 17.9188 30.4392 17.9886 30.5429C18.0582 30.6475 18.7646 31.1774 19.2187 31.5129V33.6013C19.2187 33.8353 19.3101 33.988 19.383 34.1122C19.4277 34.1859 19.4624 34.2441 19.4624 34.297V35.7596C19.4624 35.9498 19.5177 36.1056 19.5945 36.2375C18.3229 35.6245 17.1722 34.8025 16.1835 33.8156ZM35.7949 19.8455C35.5507 19.6719 35.1679 19.602 35.1679 19.602L34.8891 19.5664C34.7499 19.2882 34.8196 18.6615 34.3323 18.8004C33.8444 18.9401 32.2425 19.2183 31.8942 19.2882C31.5464 19.3576 31.1282 19.9144 30.8498 20.3324C30.571 20.7503 29.805 22.074 29.6657 22.2828C29.5265 22.4915 29.4567 23.8153 29.4567 24.1629C29.4567 24.5119 30.9894 25.9745 31.4765 26.0439C31.9641 26.1133 33.2871 25.7653 33.6357 25.6958C33.984 25.6255 34.1927 26.1133 34.4714 26.1133C34.75 26.1133 35.0983 26.2526 34.8196 26.6714C34.541 27.0881 34.541 27.2973 34.8196 27.5759C35.0983 27.855 35.6553 28.8996 35.307 29.7355C34.9587 30.571 35.2378 30.9885 35.4466 31.337C35.4865 31.4038 35.5286 31.4967 35.5733 31.606C35.0714 32.4064 34.4809 33.1476 33.8152 33.8155C31.5555 36.0719 28.4441 37.4664 24.9992 37.4664C23.8484 37.4664 22.7359 37.3097 21.6784 37.0198C21.6828 37.0024 21.6869 36.9829 21.6899 36.9629C21.7075 36.8323 21.6535 36.7351 21.5977 36.6665C21.6759 36.6292 21.7384 36.5693 21.7828 36.4894C21.8501 36.367 21.8611 36.2169 21.8501 36.0984L21.9178 36.0997C22.0877 36.0997 22.283 36.084 22.4334 35.9769C22.6797 35.8015 22.6843 35.4309 22.638 35.1735C22.656 35.1813 22.6744 35.19 22.6911 35.1952C22.7103 35.203 22.7313 35.2048 22.7526 35.2048C22.9755 35.2048 23.222 34.8041 23.2884 34.539C23.3137 34.4417 23.4069 34.2265 23.4978 34.0168C23.7107 33.5225 23.8387 33.2118 23.814 33.0573C23.8177 32.96 24.1996 32.6558 24.5392 32.5876C24.942 32.5074 25.0854 32.3594 25.2373 31.8642C25.3822 31.3941 25.4534 30.6112 25.4159 30.2765C25.4048 30.1668 25.6424 29.8326 25.8017 29.6113C26.0606 29.2458 26.2183 29.0123 26.2183 28.83C26.2183 28.4091 25.8642 28.1252 25.5981 27.9477C25.3336 27.7711 24.8697 27.7303 24.5618 27.7047C24.4756 27.6973 24.4003 27.6908 24.3653 27.6834C24.3334 27.6769 24.2777 27.6162 24.2332 27.5693C24.1372 27.466 24.0058 27.3254 23.7968 27.2989C23.7731 27.2958 23.7484 27.295 23.7247 27.295C23.592 27.295 23.4741 27.3366 23.3585 27.377C23.2554 27.4143 23.1577 27.4499 23.0605 27.4499C23.0308 27.4499 23.0032 27.4465 22.9755 27.4395C22.9238 27.4287 22.904 27.4143 22.9001 27.4143C22.9012 27.3909 22.9459 27.3124 23.0557 27.2394C23.1618 27.1687 23.2623 27.0125 23.1466 26.6583C23.0644 26.4031 22.9123 26.1618 22.8515 26.0715C22.6328 25.743 22.2341 25.743 22.1033 25.743C21.9835 25.743 21.8663 25.7547 21.7463 25.7651L21.7203 25.766C21.5989 25.766 21.528 25.6592 21.39 25.4335C21.3118 25.3055 21.224 25.1622 21.102 25.0147C20.8368 24.697 20.4667 24.6549 20.1379 24.6549C20.0944 24.6549 20.0528 24.6549 20.0122 24.6566C19.9775 24.6566 19.9438 24.6575 19.9122 24.6575C19.8677 24.6575 19.8271 24.6566 19.792 24.6519C19.6711 24.6367 19.4912 24.5447 19.3326 24.4631C19.1586 24.3737 18.9941 24.2886 18.8547 24.2691L18.82 24.2665C18.6208 24.2665 18.3953 24.4978 18.0735 24.8485C17.9937 24.9353 17.8908 25.0477 17.8363 25.095C17.8255 25.0824 17.8113 25.0664 17.8005 25.0524C17.7419 24.9778 17.6623 24.8797 17.5215 24.832C17.491 24.822 17.4603 24.8164 17.4297 24.8164C17.3197 24.8164 17.2376 24.8797 17.1662 24.9344C17.1026 24.9821 17.0482 25.0225 16.9824 25.0225C16.9438 25.0225 16.899 25.0091 16.8474 24.9813C16.6554 24.8763 16.7191 24.4739 16.7695 24.151C16.7933 24.0026 16.8157 23.8628 16.8157 23.7452C16.8157 23.4779 16.6577 23.4488 16.5913 23.4488C16.5271 23.4488 16.4644 23.471 16.3919 23.4996C16.3099 23.5291 16.215 23.5642 16.1161 23.5642C16.0716 23.5642 16.0299 23.5569 15.9896 23.543C15.9102 23.517 15.875 23.4892 15.8696 23.4727C15.8501 23.4193 15.9531 23.2622 16.0282 23.1463C16.0629 23.0934 16.0994 23.0378 16.1341 22.981C16.2793 22.7393 16.3546 22.5609 16.2775 22.4259C16.23 22.3443 16.1427 22.3017 16.0171 22.3017C15.9687 22.3017 15.9143 22.3074 15.8501 22.3199C15.8027 22.3286 15.758 22.333 15.7135 22.333C15.6537 22.333 15.6076 22.3247 15.5673 22.3178C15.5296 22.3117 15.5005 22.3061 15.4751 22.3061C15.283 22.3061 15.2594 22.497 15.2494 22.5795C15.2136 22.8694 15.0395 23.017 14.7344 23.017C14.7118 23.017 14.6902 23.0156 14.6663 23.0143C14.3416 22.9935 14.2034 22.7631 14.2034 22.2479C14.2034 22.0239 14.2386 21.9649 14.3428 21.7892C14.3944 21.7045 14.4586 21.5973 14.5365 21.4402C14.7091 21.096 14.8458 21.0318 15.0198 20.9516C15.0712 20.9272 15.1243 20.9026 15.1789 20.8712C15.2205 20.8461 15.2553 20.8352 15.2802 20.8352C15.2986 20.8352 15.3178 20.8426 15.3514 20.8539C15.3976 20.8712 15.4599 20.8934 15.5423 20.8934C15.566 20.8934 15.5909 20.8926 15.6187 20.8886C15.875 20.8448 15.9292 20.6946 15.9768 20.5623C15.9827 20.5484 15.9878 20.5336 15.9952 20.515C16.0089 20.5197 16.0228 20.5232 16.0369 20.5258C16.1498 20.5583 16.3379 20.6109 16.6415 20.6109C16.7417 20.6109 16.8142 20.6121 16.8671 20.6153C16.8294 20.8062 16.8307 21.1742 17.2081 21.6043C17.3322 21.7449 17.4411 21.8104 17.5522 21.8104C17.9092 21.8104 17.9394 21.2089 17.9394 20.5397C17.9394 20.1352 18.0928 20.0245 18.5468 19.7003L18.5763 19.6786C18.8228 19.5037 18.9693 19.2958 19.111 19.0949C19.2645 18.8783 19.409 18.6734 19.6809 18.5042C19.936 18.3432 20.3342 18.1665 20.7188 17.9938C21.163 17.7963 21.582 17.6093 21.7788 17.4522C22.0045 17.2708 21.9598 16.9869 21.9234 16.7565C21.876 16.4604 21.89 16.3993 22.0085 16.364C22.2036 16.3089 22.4125 16.2764 22.6341 16.2417C22.9513 16.1917 23.2803 16.1401 23.6177 16.013C23.968 15.8824 24.0491 15.6953 24.0561 15.5603C24.0689 15.332 23.872 15.1493 23.6998 15.0629C23.6244 15.0251 23.6158 14.8402 23.6103 14.6762C23.6021 14.4666 23.5939 14.2509 23.4584 14.1172C23.382 14.0391 23.2842 14 23.1713 14C23.0238 14 22.8651 14.0651 22.6813 14.1428C22.5598 14.1927 22.4235 14.2482 22.2786 14.2899C22.263 14.2943 22.2493 14.2973 22.2382 14.2973C22.1838 14.2973 22.1449 14.184 22.0965 14.0252C22.0221 13.7904 21.9123 13.4388 21.5265 13.4388C21.4833 13.4388 21.4357 13.4428 21.3858 13.4527C20.8941 13.5512 20.7784 14.0785 20.6951 14.4639C20.6656 14.6024 20.6198 14.8124 20.5792 14.8402C20.2895 14.8402 20.1962 15.0251 20.1055 15.2047C20.0482 15.3193 19.9831 15.4487 19.8562 15.5754C19.7782 15.6535 19.7242 15.6748 19.7086 15.6765C19.685 15.6544 19.6489 15.4847 19.8006 15.1818C19.8648 15.0546 19.9371 14.8693 19.848 14.7178C19.7434 14.5407 19.4958 14.529 19.21 14.5186C19.0958 14.513 18.9773 14.5086 18.8589 14.4935C18.633 14.4653 18.5735 14.408 18.5707 14.3958C18.5707 14.3902 18.5735 14.3511 18.6349 14.2756C20.4972 13.1685 22.6727 12.5318 24.9992 12.5318C27.8202 12.5318 30.4175 13.4671 32.507 15.0456C32.4744 15.1762 32.3688 15.3663 32.2772 15.5265C32.1381 15.7708 32.2078 15.9102 32.2078 15.9102C32.2078 15.9102 32.8697 15.8055 33.0086 15.7362C33.0576 15.7119 33.1018 15.6398 33.1344 15.5526C33.2054 15.6125 33.2748 15.6728 33.3427 15.7362C33.1771 15.8863 32.9993 16.0438 32.9391 16.0846C32.8349 16.1536 32.4866 16.2586 32.3471 16.3276C32.2078 16.3975 32.7648 16.6415 32.7648 16.7456C32.7648 16.8502 32.7648 17.3376 32.5559 17.3718C32.3471 17.407 31.3723 17.407 31.3723 17.407C31.3723 17.407 31.0585 18.5211 31.1282 18.6257C31.1979 18.7307 31.6506 18.9746 31.9293 18.9399C32.2078 18.9039 32.8349 18.5919 32.8349 18.5919L33.1131 17.9652L33.6701 17.3718C33.6701 17.3718 34.0881 17.5458 34.2276 17.407C34.3667 17.2681 34.6455 17.1293 34.6455 17.1293C34.6455 17.1293 34.9242 17.6509 35.0982 17.7208L35.1318 17.736L35.1327 17.7382C35.3339 18.0151 35.5218 18.3002 35.6969 18.5945L35.6987 18.5967V18.598L35.7012 18.6041C35.7108 18.6245 35.7208 18.6427 35.7334 18.6545C36.0187 19.1379 36.274 19.6405 36.4937 20.1609C36.2693 20.1462 36.006 19.9956 35.7949 19.8455Z" fill="black"/>
</svg>
