<svg width="193" height="266" viewBox="0 0 193 266" fill="none" xmlns="http://www.w3.org/2000/svg">
<path d="M66.8025 10.0724C66.9627 10.6165 67.8274 11.0284 68.4743 11.302C67.9543 10.5519 67.4374 9.81111 66.9204 9.06106C66.7778 9.38272 66.7367 9.74136 66.8025 10.0878M18.9408 117.695C19.5847 116.065 20.2982 114.476 21.057 112.933L19.0557 109.097C18.1991 108.695 17.3033 108.386 16.3833 108.175L10.2524 106.727C9.76188 105.761 8.97994 104.981 8.02136 104.501C7.39256 104.194 6.74864 103.923 6.09565 103.665C4.73126 106.374 3.53382 109.166 2.51025 112.026C1.90563 113.745 1.39171 115.503 0.892895 117.27L0.230835 120.781C0.278622 121.513 0.366429 122.241 0.493845 122.963C0.796155 124.344 1.70309 125.051 3.06348 125.18L7.15978 126.087L5.95054 149.756L6.20448 150.411C6.09263 151.782 5.95659 153.177 5.85682 154.533C5.89008 154.948 5.92333 155.36 5.95054 155.762C6.03519 157.029 6.11983 158.265 6.22867 159.451C6.2982 160.201 6.38284 160.933 6.50074 161.668C6.80305 163.512 8.25717 164.366 10.071 164.151C11.5826 163.97 12.2446 163.039 12.3444 161.077C12.4532 159.009 12.556 156.946 12.6467 154.877C12.7041 153.688 12.7737 152.498 12.8311 151.314C12.952 149.163 13.0609 147.029 13.1969 144.89C13.2483 144.002 13.3239 143.104 13.4025 142.216C13.4025 142.216 13.4025 142.216 13.3843 142.216C13.5022 140.878 13.6474 139.292 13.8257 138.069C14.2066 135.471 15.2345 129.935 15.2345 129.935L16.0144 126.658C16.8063 123.604 17.7774 120.6 18.9227 117.664M110.435 212.182C108.136 215.272 105.555 218.133 102.726 220.727C101.167 222.179 99.7709 223.802 98.5632 225.566C97.7428 226.739 96.9946 227.963 96.3231 229.23C95.6016 230.593 94.9345 231.99 94.3218 233.423C93.8049 234.652 93.7172 235.845 94.9264 236.761C96.054 237.622 97.2905 237.56 98.5058 236.5C99.0668 235.957 99.5958 235.382 100.09 234.775L104.993 229.445C106.284 228.05 107.563 226.651 108.845 225.246C110.873 223.014 112.992 220.841 114.876 218.483C115.036 218.274 115.214 218.087 115.369 217.869C117.189 215.468 118.825 212.929 120.263 210.273C120.922 209.065 121.542 207.841 122.119 206.584C124.502 201.378 126.407 195.959 127.809 190.397C128.777 186.681 129.494 182.903 129.955 179.088L130.257 175.934C130.681 170.749 130.459 165.53 129.595 160.401C129.317 160.192 129.027 159.986 128.749 159.786C125.39 157.303 122.4 157.303 120.045 159.811C120.302 161.329 120.571 162.848 120.81 164.382C121.458 168.563 121.769 172.792 121.741 177.025C121.741 178.042 121.708 179.069 121.651 180.099C121.46 184.219 120.868 188.31 119.885 192.312C118.513 197.882 116.283 203.197 113.28 208.06C112.403 209.483 111.466 210.854 110.444 212.191M6.31936 98.2242C6.30538 98.1689 6.28822 98.1145 6.26797 98.0613C6.24926 98.089 6.2321 98.1177 6.21657 98.1473L6.31936 98.2242ZM38.9416 139.532C39.5251 138.954 39.773 138.392 39.3981 137.909C39.1347 137.583 38.9754 137.183 38.9416 136.762L40.9671 133.495C42.4313 129.751 44.2136 126.144 46.2938 122.714C46.5477 122.29 46.8017 121.878 47.0587 121.463C45.6703 120.295 44.1657 119.277 42.5693 118.426C41.4689 117.876 40.3474 117.323 39.2439 116.788C37.3857 121.091 35.4661 125.36 33.4849 129.594C31.9009 132.95 30.8587 136.543 30.3983 140.236L29.9721 143.955C29.1317 151.837 28.3003 159.727 27.478 167.625C26.6558 175.617 25.7911 183.609 25.0868 191.62C26.8568 195.162 28.2405 198.891 29.2133 202.739C29.7034 202.451 30.1254 202.057 30.4497 201.586C31.0272 200.664 31.1783 199.434 31.4171 198.34C34.1802 185.552 35.3472 172.555 35.7674 159.516C35.9698 152.744 37.0368 146.027 38.9416 139.535M153.145 177.652C152.278 176.988 150.618 176.453 149.793 176.859C149.441 177.033 149.079 177.183 148.707 177.308C148.343 181.528 147.594 185.705 146.47 189.785H141.331C141.802 187.335 142.13 184.86 142.314 182.371C142.406 180.948 142.48 179.534 142.534 178.129C141.582 178.129 140.618 178.129 139.668 178.196C138.293 178.282 136.884 178.258 135.493 178.291C134.845 187.954 132.423 197.407 128.353 206.163C129.208 206.163 130.067 206.163 130.922 206.225C132.28 206.311 133.746 206.277 135.001 205.828C135.86 205.542 136.736 205.306 137.622 205.121L140.342 204.663C142.974 204.394 145.618 204.268 148.263 204.285C148.883 203.206 149.472 202.102 149.995 200.947C153.011 194.145 154.851 186.866 155.437 179.429C154.672 178.832 153.925 178.23 153.139 177.652M119.465 232.888C120.499 231.007 121.941 229.344 123.35 227.705C125.003 225.801 126.806 224.038 128.743 222.433C127.19 222.483 125.646 222.682 124.13 223.027C123.078 223.227 122.101 223.795 121.049 224.038C119.583 224.345 118.108 224.674 116.623 224.985C114.32 227.68 111.822 230.196 109.15 232.513C110.015 235.359 111.094 238.148 111.959 240.991C115.068 238.949 117.643 236.17 119.465 232.894M134.435 159.165C134.738 160.933 134.958 162.685 135.146 164.425C135.552 168.023 135.711 171.646 135.62 175.267C137.954 174.959 140.294 174.67 142.628 174.378C142.628 172.826 142.628 171.283 142.601 169.74C142.413 162.362 141.524 155.068 139.514 147.859C139.261 146.94 138.912 146.052 138.471 145.21C138.386 145.056 138.326 144.875 138.235 144.727C138.012 144.317 137.693 143.968 137.307 143.711C136.921 143.455 136.479 143.298 136.019 143.255C135.489 143.193 134.951 143.245 134.441 143.408C132.881 143.909 132.177 144.85 132.177 146.617C132.177 147.457 132.262 148.295 132.431 149.117C133.078 152.473 133.858 155.802 134.435 159.165ZM87.7949 246.902C85.4159 248.499 83.603 250.829 82.6224 253.551C81.9785 255.395 82.6466 257.062 84.1763 257.879C85.4399 258.552 86.6854 258.113 87.8554 256.45C88.686 255.284 89.6168 254.196 90.6366 253.198C90.1388 250.775 89.6471 248.381 89.1614 246.014C88.7019 246.321 88.2363 246.592 87.7889 246.902M107.626 243.453C108.162 243.201 108.678 242.934 109.195 242.651L111.953 240.985L109.144 232.507L106.898 234.413C103.081 237.489 99.018 240.235 94.7511 242.623C93.8774 243.106 93.0128 243.625 92.1482 244.132C92.5291 245.885 92.9191 247.634 93.3 249.386L97.0456 248.541C100.534 246.755 104.105 245.159 107.626 243.462M61.763 198.632C64.2057 189.25 64.8768 179.755 62.1802 170.275C61.3458 167.327 60.2122 164.462 59.3294 161.529C58.5646 159.005 58.362 156.374 59.8222 154.035C61.3726 151.506 62.7855 148.892 64.0545 146.206C62.4704 143.386 60.8652 140.574 59.2387 137.771C59.1269 137.977 59.009 138.186 58.8911 138.385C57.1679 141.37 55.5657 144.432 53.8697 147.441C53.4041 148.277 52.7421 149.027 51.6386 148.579C50.5352 148.13 49.9427 147.269 50.0787 146.018C50.1313 145.425 50.2709 144.844 50.4929 144.294C51.1731 142.757 51.7414 141.146 52.6665 139.775C54.0914 137.644 55.3906 135.429 56.5572 133.141C56.397 132.868 56.2368 132.591 56.0826 132.314C54.4804 129.548 52.6484 129.24 49.9941 131.029C49.1446 131.607 48.2891 132.167 47.4396 132.735C46.448 134.598 45.4614 136.459 44.4799 138.318C40.7736 145.32 41.6896 152.519 45.1601 159.436C46.1517 161.422 47.3459 163.294 48.416 165.243C52.4095 172.485 54.4622 180.25 54.0662 188.605C53.8032 194.251 52.3672 199.634 50.4385 204.93C48.6911 209.76 47.1403 214.666 45.6015 219.565C45.5743 219.661 45.5834 219.756 45.5592 219.851C47.5091 220.66 49.459 221.428 51.4089 222.221C53.9733 220.154 55.8904 217.373 56.9261 214.217C58.6311 209.049 60.3966 203.894 61.763 198.632ZM109.803 121.927L113.561 125.644C115.607 126.074 117.733 125.874 119.667 125.069C118.911 123.371 118.061 121.718 117.122 120.117L115.308 117.332C112.306 113.182 108.624 110.173 104.425 108.396L101.541 107.415C98.1819 106.498 94.6777 106.263 91.2292 106.724C92.6436 108.096 94.1519 109.365 95.7427 110.52C97.0879 111.476 97.9042 111.943 98.5753 111.768L101.329 114.796C103.136 115.557 104.814 116.604 106.299 117.897C107.638 119.072 108.816 120.424 109.803 121.915M109.779 97.4219C108.675 99.6751 107.563 101.95 106.453 104.237C107.732 104.763 108.98 105.362 110.193 106.029C113.408 107.791 116.328 110.059 118.845 112.749C120.345 110.738 121.823 108.715 123.28 106.678C119.416 102.722 114.826 99.5775 109.77 97.4219M62.6699 121.445C64.642 118.525 66.9285 115.838 69.487 113.434C71.5812 111.446 73.8152 109.615 76.1711 107.956C79.5506 105.532 83.3266 103.736 87.3233 102.654C92.7508 101.233 98.4659 101.434 103.784 103.232C104.431 102.042 105.075 100.849 105.728 99.6597C106.517 98.2303 106.686 97.0469 106.142 96.0386C102.057 94.6859 97.8354 93.8003 93.557 93.3981C90.9269 93.7055 88.8318 93.7608 86.8064 94.2004C85.5336 94.477 84.3032 94.8152 83.091 95.1933C76.1059 97.2953 69.7516 101.147 64.6108 106.395C62.4664 108.574 60.5215 110.948 58.8004 113.486C57.313 115.66 55.9163 117.891 54.5499 120.151C55.6775 121.307 56.9684 122.342 58.1957 123.489C59.7073 122.8 61.1916 122.127 62.676 121.445M119.048 59.1604C118.854 61.8347 118.718 64.5183 118.564 67.1988C120.473 68.1394 122.356 69.1374 124.214 70.1928C130.233 73.6622 135.908 77.714 141.162 82.2919C142.126 83.128 143.103 83.9641 144.043 84.834C147.157 87.6805 150.134 90.6899 153.024 93.8131C153.569 93.2352 154.104 92.648 154.63 92.064C155.839 90.6899 156.41 88.6119 156.994 86.7676C157.027 86.663 157.045 86.5678 157.072 86.4602C154.654 83.7674 152.123 81.2058 149.481 78.7753C148.556 77.9299 147.631 77.0938 146.682 76.2761C141.644 71.8978 136.299 67.8983 130.69 64.3092C127.012 61.9237 123.195 59.7679 119.259 57.8539C119.164 58.2853 119.099 58.7229 119.063 59.1634M60.457 69.1907C61.1191 68.7265 61.7902 68.2869 62.4583 67.8535C64.6606 66.4304 66.9531 65.157 69.3208 64.0418C69.3449 61.1892 69.3359 58.3673 69.2694 55.5485C67.0609 56.4651 64.9032 57.5036 62.806 58.6593C62.1711 59.0159 61.5605 59.4124 60.9317 59.7813C56.0263 62.7478 51.5316 66.3659 47.5665 70.5401C44.2275 74.0406 41.2044 77.8389 38.5335 81.8892C38.3612 82.1382 38.1768 82.381 37.9984 82.63C39.5493 84.5543 40.9671 86.1743 42.2549 87.5483L47.9807 94.1881L54.5287 89.3773L49.1264 79.8419C49.849 78.9628 50.5836 78.0836 51.3484 77.2475C54.0764 74.2216 57.132 71.5188 60.457 69.1907M171.199 106.681C169.848 104.083 168.391 101.55 166.804 99.0818C165.594 97.2374 164.385 95.3931 163.022 93.6225C162.961 93.5456 162.904 93.478 162.843 93.4073C161.03 94.9873 159.128 96.6257 157.099 98.3932C157.55 98.9281 158.006 99.4691 158.439 100.022C159.213 100.982 159.95 101.947 160.679 102.93C161.459 103.991 162.19 105.082 162.925 106.189C163.997 107.819 164.988 109.504 165.894 111.236C167.013 113.351 167.991 115.541 168.82 117.79C169.277 119.038 169.703 120.298 170.111 121.559C171.84 119.573 173.57 117.586 175.302 115.598C174.062 112.552 172.705 109.579 171.205 106.684M172.155 128.22C172.554 129.554 172.959 130.9 173.364 132.237C173.386 132.328 173.415 132.418 173.448 132.505C173.999 134.282 174.561 136.049 175.135 137.807C175.661 137.472 176.221 136.704 177.037 135.481C178.113 133.857 179.226 132.256 180.308 130.633C180.296 130.568 180.279 130.505 180.259 130.442L184.235 124.725L184.262 124.805C185.806 122.55 187.347 120.296 188.884 118.042C187.882 114.794 186.707 111.604 185.365 108.485L171.081 124.691C171.438 125.865 171.786 127.046 172.142 128.22M26.2174 104.922C27.0615 103.87 27.9702 102.873 28.9382 101.938C29.6063 101.289 30.3107 100.662 31.0392 100.065C31.0997 100.022 31.142 99.9702 31.2025 99.9272C34.5738 97.213 37.7093 94.2089 40.5741 90.9481C39.4616 89.1038 37.9863 86.9735 36.4022 84.8279C34.4735 87.3413 32.1859 89.5471 29.6154 91.3723C28.5182 92.1781 27.4961 93.0846 26.562 94.0805C26.5197 94.1235 26.4865 94.1573 26.4441 94.1942C25.773 94.8746 25.122 95.5724 24.4912 96.2876C22.7417 98.2665 21.1353 100.372 19.6845 102.586C20.794 103.023 21.9065 103.471 23.0099 103.886C24.0619 104.274 25.1261 104.603 26.1993 104.922M90.7364 51.1927C87.4772 51.2131 84.2256 51.5165 81.0171 52.0995L77.3017 52.8834C75.3383 53.3803 73.4019 53.9815 71.5004 54.6847C71.6697 57.4359 72.0174 60.1102 72.4073 62.7385C74.2898 61.9937 76.2163 61.3695 78.1754 60.8695L81.0746 60.2301C84.3333 59.6257 87.6465 59.3784 90.9571 59.4924C90.939 58.1644 90.9057 56.8457 90.8906 55.5177C90.8724 53.7318 90.8483 52.3239 90.7364 51.1958M42.8928 29.2692C41.6866 29.416 40.5075 29.7391 39.3921 30.2283C37.8134 30.8727 36.3668 31.811 35.1265 32.9949C33.1896 34.7918 31.4075 36.754 29.7998 38.86C29.2586 39.6008 28.7477 40.3693 28.2217 41.1193C27.1546 42.6194 26.0844 44.1287 25.0596 45.6534C26.6285 47.6638 28.1885 49.6496 29.7393 51.6476C30.876 50.5379 32.0641 49.459 33.2854 48.423C33.6089 48.1556 33.9203 47.879 34.2437 47.6054C36.9252 45.4136 40.0451 44.4484 43.4974 45.0263C45.7707 45.4056 48.0791 45.5211 50.378 45.3706C52.8067 45.1993 55.2073 44.7392 57.5307 43.9996C57.5307 41.8878 56.6751 40.1203 55.1817 38.3251C55.0547 38.1776 54.9429 38.0331 54.825 37.8855C51.8399 38.4986 48.801 38.7993 45.7557 38.7831H42.001C40.9671 38.7831 40.2113 38.3927 40.0511 37.2462C39.8909 36.0996 40.5257 35.451 41.5445 35.245C41.9678 35.1651 42.4001 35.0729 42.8233 34.9684C44.7671 34.5441 46.717 34.08 48.676 33.9847C49.6283 33.9417 50.5775 33.8832 51.5177 33.8125C50.1533 32.0973 48.802 30.3728 47.4637 28.6391C45.9522 28.8881 44.4406 29.1217 42.8928 29.2846M126.282 41.3499C126.887 43.0744 128.096 44.2148 129.725 44.9741C134.716 47.3224 139.445 50.2079 143.831 53.5811L154.714 63.1473C155.017 63.4393 155.34 63.7621 155.664 64.0449C155.826 64.1999 156.006 64.336 156.199 64.4506L157.477 62.68L158.708 59.7413C158.363 58.5885 157.839 57.499 157.157 56.5137C154.782 53.2397 152.051 50.2492 149.016 47.5992L148.989 47.5654C148.989 47.5654 137.643 37.1509 136.954 36.8681C136.264 36.5852 128.574 30.8831 128.574 30.8831L127.062 33.9171C126.352 35.3926 125.656 36.825 124.97 38.239C125.484 39.2366 125.926 40.2712 126.291 41.3345M3.74065 81.1176C5.11616 81.7324 6.04123 80.8594 6.89677 79.9372C7.82184 78.9443 8.72877 77.9361 9.64477 76.9432L11.8154 74.6777C12.03 74.4687 12.2235 74.2443 12.42 74.0383C15.3926 71.1433 17.9994 67.8834 20.1803 64.3338L22.2269 61.0078C23.8041 58.421 25.6267 55.9974 27.6685 53.7717C27.0911 53.0125 26.5227 52.2348 25.9483 51.4847C25.0898 50.3719 24.2252 49.2776 23.3606 48.1741C22.7257 49.1301 22.0818 50.0891 21.4439 51.0451C20.2347 52.8649 19.0254 54.6755 17.7648 56.443L15.9147 58.9882C13.3103 62.5284 10.3951 65.8208 7.20513 68.8249C5.27941 70.6908 4.88641 71.0781 4.88641 71.0781C3.33748 72.9563 2.40889 75.2825 2.23213 77.7271C2.09609 79.1503 2.29259 80.469 3.71647 81.1238M71.5941 22.1192L56.8958 26.5611C54.8522 27.096 52.7995 27.5878 50.7287 28.0089C52.3377 29.8706 54.0453 31.6417 55.8438 33.3146C56.2096 33.2531 56.5723 33.2008 56.9381 33.1332V33.0717L59.8464 32.4569C61.6806 31.964 63.4597 31.279 65.1549 30.4127L73.9431 27.7661L72.5706 24.4708C72.3227 23.773 72.0083 22.9984 71.5941 22.1161M76.9873 32.1649C76.9932 31.8587 76.9419 31.5541 76.8362 31.2673C73.8494 32.0266 70.8988 32.9395 67.9634 34.0093C67.0051 34.3628 66.0467 34.6917 65.0884 35.0175L60.1184 36.6068L60.4933 52.1302C60.4933 52.2655 60.4661 52.3977 60.4661 52.5421L60.4087 52.7512L60.5266 54.5187C60.5266 54.5863 60.5266 54.6386 60.5266 54.7001C60.5266 54.8384 60.5417 54.9675 60.5598 55.1058L71.4369 49.9631L75.8295 48.254L77.8913 47.7037L77.0085 42.1706V37.7902C77.0085 35.8844 77.0085 34.0216 76.9904 32.168M82.5287 26.5519L96.3473 26.2691L96.3624 19.6631C94.5244 19.5586 92.6651 19.5064 90.7999 19.5248C89.3307 19.5412 87.8745 19.5842 86.4315 19.6539L82.571 20.032C82.5473 20.002 82.5221 19.9732 82.4954 19.9459C81.4192 20.0597 80.349 20.1888 79.2909 20.3517C79.3002 20.4466 79.3226 20.5398 79.3575 20.6284C80.4186 22.6018 81.3013 24.689 82.5287 26.5519M102.384 212.336C107.27 208.29 110.737 203.151 113.119 197.206C115.326 191.728 116.248 185.952 117.249 180.164C115.435 180.164 113.621 180.164 111.789 180.182C111.018 180.165 110.254 180.025 109.525 179.767C108.618 185.106 107.131 190.314 105.537 195.515C104.78 198.037 103.423 200.33 101.586 202.191C100.23 203.534 98.8087 204.806 97.3268 206.003C93.0702 209.511 89.8113 213.722 87.6831 218.877C88.1516 221.431 88.6505 224.103 89.1946 227.078C90.1015 226.925 90.9843 226.771 91.8852 226.639C92.1663 226.104 92.4596 225.581 92.7498 225.043C95.3104 220.285 98.1702 215.791 102.375 212.323M110.517 175.54C110.45 175.879 110.475 176.231 110.591 176.556C110.707 176.881 110.908 177.168 111.173 177.385C111.676 177.771 112.281 177.996 112.911 178.033C113.706 178.119 114.537 177.923 115.354 177.818C116.124 177.723 116.895 177.618 117.669 177.511C117.985 175.162 118.07 172.788 117.923 170.422L118.008 170.293L117.769 168.731C117.617 167.24 117.389 165.757 117.086 164.29L116.146 160.515C115.526 158.338 114.888 156.184 114.262 154.01C111.275 153.285 108.884 151.502 106.559 149.473L105.111 148.244C105.444 149.935 105.991 151.576 106.738 153.125C107.632 154.948 108.363 156.849 108.923 158.806L110.009 163.893L110.417 169.949V175.261L110.517 175.54ZM87.0059 235.516C86.8185 234.594 86.622 233.647 86.4376 232.716C83.877 231.456 82.7463 233.561 81.2983 234.612C80.7631 234.998 80.3054 235.484 79.95 236.045L75.367 241.055C74.3331 242.285 73.2508 243.515 72.1081 244.704C71.8632 244.944 71.5397 245.202 71.4823 245.497C71.319 246.263 70.9653 247.289 71.2948 247.781C71.6848 248.35 72.7127 248.679 73.4745 248.703C74.0549 248.671 74.6219 248.513 75.1372 248.239L78.0968 246.702C80.5652 245.172 82.6382 243.064 84.143 240.554C85.1346 238.901 86.0687 237.21 87.0089 235.525M113.023 44.6482L111.946 44.0765C111.826 44.0765 107.46 42.81 106.771 42.81C102.641 41.8079 100.658 41.8448 96.3382 41.3775C95.0594 43.1881 94.1102 45.3737 94.1525 46.8799C94.1525 47.0183 94.1525 47.1566 94.1525 47.2949C101.727 47.915 109.184 49.5693 116.324 52.2132C116.022 49.7049 115.689 46.0407 112.999 44.6267M123.498 52.1979C127.529 55.5608 131.559 58.9186 135.59 62.2712C139.961 65.2466 144.161 68.4745 148.169 71.9388C149.424 72.4214 150.588 72.2062 151.588 70.7922C152.35 69.704 153.13 68.6189 153.952 67.4785C152.082 65.8923 150.168 64.3554 148.209 62.8676C147.58 62.3911 146.936 61.9454 146.298 61.4689C145.358 60.7711 144.418 60.0641 143.45 59.3817C136.408 54.369 128.774 50.2753 120.729 47.1965C120.71 47.2304 120.692 47.2734 120.668 47.3164C120.366 47.9804 120.701 49.2069 121.143 49.9047C121.72 50.8269 122.669 51.5001 123.519 52.2071M192.5 135.05C192.052 131.288 191.389 127.556 190.514 123.873C190.124 123.606 189.758 123.329 189.344 123.08C188.005 125.1 186.69 127.055 185.393 128.988C184.764 129.929 176.792 139.655 176.792 139.655L178.385 146.245L189.123 145.28C189.731 145.41 190.362 145.352 190.937 145.114C192.234 144.616 192.775 143.485 192.775 142.176C192.775 139.793 192.793 137.405 192.515 135.05M84.9834 202.923C85.4248 205.53 85.848 208.149 86.2834 210.756C89.7932 204.217 94.1616 198.371 100.099 193.738C101.308 192.816 102.161 191.254 102.796 189.807C103.364 188.531 103.467 187.04 103.66 185.607C103.899 183.926 104.177 182.251 104.449 180.578C97.4779 184.027 90.5218 187.48 83.3147 191.058C83.1787 191.119 83.0517 191.187 82.9247 191.245C82.9912 191.651 83.0668 192.066 83.1454 192.475C83.75 195.908 84.3818 199.419 84.9834 202.926M105.35 165.688C105.281 165.144 105.196 164.609 105.102 164.074C103.016 164.575 100.964 165.221 98.8685 165.661C97.7409 165.903 96.5287 165.704 95.5099 165.704C93.7716 161.246 92.3386 158.434 90.5308 156.737C89.0753 158.563 88.0672 160.714 87.5894 163.014C87.3263 164.271 87.0633 165.541 86.8003 166.81C87.3596 169.992 87.4049 173.284 88.5477 176.364C89.379 178.599 89.7841 180.858 91.8126 182.564C92.65 182.444 93.6537 182.487 94.5092 182.152C98.3745 180.659 101.969 178.522 105.144 175.829C105.571 172.485 105.773 169.119 105.35 165.685M76.9027 230.592L78.8707 226.765C79.1247 226.23 79.3726 225.686 79.6084 225.142C80.4307 223.297 81.2288 221.453 82.045 219.608C81.6036 218.151 81.398 216.608 81.0927 215.108C80.6181 212.797 80.1435 210.497 79.6839 208.164C79.6507 207.967 79.6265 207.758 79.5842 207.549C78.375 210.983 76.9813 214.355 75.639 217.743C74.2033 221.429 72.3895 224.952 70.2277 228.252L68.6345 231.142L68.3322 231.428C68.2367 231.511 68.1468 231.6 68.0632 231.695L64.0001 235.713C63.3713 236.309 62.7274 236.903 62.0502 237.462C61.6771 237.781 61.3486 238.15 61.0737 238.559C60.0217 240.121 60.9286 242.156 62.7939 242.267C63.1209 242.283 63.4486 242.26 63.7703 242.199L67.7397 240.896L69.3268 239.008C70.0874 238.495 70.821 237.942 71.5246 237.351C73.7617 235.436 75.4546 233.109 76.8906 230.589M99.4369 143.356C98.6569 142.692 97.8921 142.019 97.1121 141.364C97.0335 141.296 96.9428 141.244 96.8582 141.173L92.5442 136.649L87.0391 142.489L92.1966 154.219L97.36 162.024C99.9236 162.126 102.348 162.534 104.011 160.229L99.5911 144.026C99.5625 143.798 99.515 143.573 99.449 143.353M131.228 236.906C132.298 235.605 133.441 234.379 134.62 233.198C135.426 232.395 136.26 231.615 137.123 230.859C139.309 228.951 141.593 227.164 143.967 225.504C143.84 225.049 143.713 224.582 143.61 224.124C143.248 222.476 141.839 221.167 140.176 220.478C138.414 221.976 136.571 223.371 134.656 224.659C134.553 224.72 134.469 224.788 134.354 224.859C133.649 225.323 132.963 225.842 132.286 226.368C129.898 228.256 127.683 230.36 125.668 232.654C123.933 234.657 122.631 237.006 121.844 239.552C121.36 241.089 120.801 242.589 120.2 244.065L119.021 244.876L116.968 250.717L118.951 249.795C118.857 249.88 118.756 249.958 118.649 250.025C118.116 250.326 117.549 250.561 116.962 250.726C116.783 251.052 116.614 251.372 116.427 251.691C118.742 252.733 120.396 253.843 122.567 252.509C127.443 249.484 132.364 246.518 137.486 243.395C137.486 242.78 137.597 242.343 137.471 241.972C137.002 240.542 136.536 239.119 136.071 237.686C135.654 237.994 135.239 238.301 134.816 238.584C133.287 239.617 131.651 239.635 130.022 238.685C130.064 238.512 130.126 238.345 130.209 238.187C130.532 237.754 130.871 237.333 131.21 236.909M153.061 225.584L152.426 224.662L151.594 225.277C151.237 225.337 150.902 225.495 150.627 225.735C149.735 226.485 148.852 227.244 147.964 227.994L138.894 236.042L139.578 239.07C139.584 239.959 139.784 240.836 140.164 241.636L140.512 242.485C141.419 242.104 142.326 241.726 143.278 241.387C146.238 240.339 148.82 238.411 150.691 235.854L153.665 230.438C153.825 230.032 153.995 229.627 154.149 229.208C154.34 228.597 154.372 227.946 154.243 227.318C154.175 226.961 154.035 226.622 153.83 226.324C153.625 226.026 153.361 225.775 153.055 225.587M149.49 216.178C151.247 216.064 151.909 214.641 151.664 213.227C151.362 211.536 152.012 209.511 150.908 208.044C150.649 207.686 150.32 207.386 149.941 207.165C149.698 207.038 149.42 206.998 149.152 207.051C148.142 207.224 147.135 207.405 146.129 207.586L135.339 208.475C134.042 208.555 132.906 208.373 131.938 208.717C130.183 209.324 128.369 209.736 126.527 209.947L120.067 220.537L130.387 218.797C131.467 218.616 132.552 218.434 133.637 218.268C133.882 218.225 134.085 218.173 134.305 218.13L144.484 216.39C146.157 216.347 147.822 216.275 149.478 216.175M117.962 77.2014C117.802 79.3532 119.141 80.5059 120.472 81.1791C123.585 82.7407 126.089 85.0861 128.634 87.3701C129.87 88.4736 131.119 89.571 132.449 90.5547C132.836 90.8207 133.258 91.0279 133.704 91.1695C134.816 92.0671 135.902 92.9892 136.963 93.9545C139.523 96.3086 141.91 98.8515 144.103 101.562C146.135 100.222 148.051 98.7069 149.829 97.0346C147.082 94.0323 144.21 91.1684 141.213 88.4429C139.88 87.2286 138.523 86.0206 137.156 84.8463C135.309 83.251 133.45 81.6925 131.557 80.1555C127.47 76.8008 123.021 73.9297 118.295 71.5976C118.186 73.4696 118.092 75.3386 117.956 77.2014M150.001 108.033C149.777 108.337 149.575 108.658 149.397 108.992C150.158 110.222 150.908 111.494 151.619 112.804C151.863 113.253 152.154 113.668 152.417 114.107L158.336 122.127C160.15 124.024 161.915 125.964 164.231 128.441C165.195 127.291 165.933 126.397 166.622 125.585C165.394 121.817 163.893 118.147 162.13 114.605L159.288 109.518C158.142 107.612 156.903 105.768 155.582 103.954C153.112 104.326 151.486 106.007 150.001 108.033M96.4531 15.1352C96.4894 13.0572 96.5287 10.9761 96.571 8.90737C91.123 8.73091 85.6696 8.92089 80.2463 9.47605C81.3406 11.3481 82.4259 13.2109 83.5203 15.0737C87.8228 14.5994 92.1642 14.62 96.4622 15.1352M51.7203 22.9922C53.3407 22.5588 54.952 22.1039 56.5572 21.6458C58.3378 21.1356 59.532 20.7821 59.532 20.7821C62.7909 19.8353 66.0467 18.8854 69.3026 17.9878C69.4387 18.1446 69.481 18.1692 69.354 17.9878C66.6332 13.3462 62.942 8.26798 60.4087 6.03322C60.1789 5.84571 59.9673 5.6459 59.7617 5.49835C59.7375 5.92256 59.7103 6.30065 59.6861 6.68182L55.6926 10.2538C51.7868 13.1433 47.3549 15.0737 42.5452 16.457C42.2429 16.5338 41.9768 16.6384 41.6957 16.7244C43.5972 19.1467 45.4443 21.5628 47.3368 23.9329C48.8121 23.6839 50.2722 23.3826 51.7142 23.0107M66.9204 9.07336L68.6678 11.3143C68.6073 11.3143 68.5408 11.3327 68.4894 11.3143C68.438 11.2958 68.4894 11.3143 68.4743 11.3143C69.4387 12.7221 70.397 14.1269 71.3735 15.5164C71.9781 16.3771 72.4769 16.8443 73.0694 16.998C73.6619 17.1517 74.4449 16.9642 75.5967 16.3832C75.899 16.2295 76.2346 16.0543 76.6064 15.8576C78.4717 14.8401 78.7438 13.6658 77.7099 11.7784C77.3803 11.1636 77.0569 10.5489 76.7243 9.93407L75.4365 3.42343C75.2491 2.22459 74.5719 1.7512 73.408 1.80346C73.0785 1.80346 72.7399 1.80346 72.4073 1.80346C71.7816 1.80346 71.1437 1.80346 70.5179 1.80346C67.8273 1.83727 65.3272 2.43977 63.1536 3.75849C63.456 4.15811 63.7915 4.55157 64.0787 4.95733C65.037 6.31295 65.9802 7.68393 66.9204 9.06414M24.5033 35.7737C24.7023 35.6573 24.8951 35.53 25.0807 35.3926C25.8365 34.8577 26.5046 34.2122 27.218 33.6158C29.0077 32.0973 30.746 30.5203 32.6052 29.0879C33.8765 28.09 35.2368 27.2153 36.6683 26.475C38.7746 25.3697 41.0687 24.6822 43.4279 24.4493L44.1383 24.3724C43.2072 23.1736 42.2721 21.9829 41.3329 20.8005C40.4405 19.7335 39.4822 18.7252 38.464 17.7819C36.3478 18.535 34.2316 19.3773 32.179 20.2933C31.4353 20.6284 30.6674 20.9573 29.9419 21.3015C25.9453 23.1828 22.8164 26.3982 19.9324 29.7703C19.5491 30.2021 19.2422 30.6982 19.0254 31.2366C18.4813 32.6352 18.8652 34.0031 20.008 35.2327C21.323 36.6375 22.7287 36.8281 24.4942 35.7768M34.3012 114.593C32.4601 113.825 30.6009 113.099 28.7115 112.506C28.197 112.349 27.6683 112.246 27.1334 112.198C23.4422 117.547 20.271 123.151 18.8108 129.517L18.2606 133.424C18.235 133.346 18.2015 133.271 18.1608 133.2C18.0762 133.888 18.0067 134.571 17.922 135.253C17.9643 135.201 17.9915 135.158 18.0248 135.115L17.4202 139.495C17.0725 142.634 16.7823 145.775 16.5133 148.929C16.4195 150.159 16.344 151.431 16.2593 152.673C16.0326 156.193 15.8421 159.709 15.7665 163.238C15.9782 167.929 16.1747 172.611 16.4195 177.305C16.4528 177.959 16.48 178.614 16.5133 179.269C16.5737 180.237 16.7763 181.313 17.2841 182.082C17.7013 182.696 18.6869 183.247 19.3792 183.204C19.7017 183.145 19.9967 182.981 20.2196 182.736C20.5459 182.444 20.7944 182.073 20.9421 181.657C21.5679 179.426 22.2299 177.148 22.3992 174.846C22.8073 169.328 23.1369 163.779 23.1641 158.246C23.1641 154.814 23.3303 151.421 23.6629 148.068C23.7838 146.756 23.9652 145.446 24.1375 144.143C25.4012 135.019 27.9708 126.216 32.4087 117.858C32.9952 116.745 33.6391 115.666 34.2921 114.59M189.673 182.653C189.274 182.401 188.08 182.866 187.639 183.385C186.315 184.922 185.027 186.48 183.769 188.067C183.017 189.017 182.258 189.963 181.523 190.932C180.674 192.044 179.952 193.251 179.371 194.528C178.962 195.404 178.632 196.315 178.385 197.252C178.218 197.871 178.082 198.499 177.977 199.133C177.253 204.215 175.291 209.032 172.269 213.147C171.967 213.562 171.665 213.959 171.344 214.377C168.215 218.551 164.917 222.587 161.67 226.672L157.266 232.464C156.589 233.386 155.893 234.308 155.213 235.23C155.337 235.461 155.489 235.676 155.664 235.87C156.833 237.179 158.082 238.464 159.938 238.526C161.694 236.476 163.43 234.415 165.147 232.341C164.823 232.341 164.5 232.341 164.171 232.365L167.874 228.919C169.035 227.472 170.214 226.03 171.35 224.554C173.131 222.237 174.887 219.907 176.792 217.709C179.099 215.01 181.608 212.517 184.619 210.525C187.188 208.834 187.902 206.24 188.334 203.455C188.537 202.188 187.784 201.454 186.544 201.497C185.502 201.54 184.465 201.804 183.153 201.998C183.524 201.205 183.806 200.584 184.111 199.972C185.008 198.158 185.907 196.347 186.807 194.537C188.047 192.064 189.277 189.589 190.499 187.114C190.846 186.413 191.327 185.558 191.185 184.904C190.968 183.987 190.431 183.182 189.673 182.638M44.9122 169.586C44.0386 167.594 42.9684 166.887 41.5355 167.213C40.169 167.52 39.5583 168.578 39.6007 170.751C39.6369 172.38 39.8032 174.009 39.8304 175.639C39.9392 182.866 38.3189 189.779 36.236 196.612C35.2504 199.901 34.7244 203.332 33.9958 206.695C34.1047 206.732 34.2165 206.766 34.3254 206.809C34.5219 208.422 34.6277 210.061 34.93 211.653C35.2867 213.414 36.4052 214.217 38.1617 214.251C40.1811 214.294 41.1848 213.181 41.6564 210.869C42.394 207.248 43.2768 203.652 44.1655 200.064C45.0725 196.376 46.2364 192.742 47.0073 189.016C48.416 182.334 47.6451 175.82 44.8911 169.577M68.7161 154.751C67.8787 153.113 67.0051 151.502 66.1314 149.897C65.3061 153.226 64.8587 156.599 64.3659 159.227C64.638 162.651 64.7922 165.12 65.037 167.566C65.164 168.861 65.7323 169.844 67.1834 169.94C68.6345 170.035 69.8286 169.325 70.1249 167.862C70.3862 166.606 70.4403 165.314 70.2851 164.041C70.0659 162.485 70.0659 160.905 70.2851 159.35C69.9576 157.751 69.4304 156.201 68.7161 154.739M112.249 251.261C112.436 250.769 112.572 250.253 112.766 249.77C112.648 247.769 111.417 246.881 109.646 247.692C108.228 248.347 106.804 248.977 105.414 249.666C104.371 250.185 103.337 250.72 102.351 251.332C99.7148 253.025 97.1716 254.864 94.7329 256.84C94.7904 257.839 94.8418 258.832 94.9113 259.816C95.0111 261.54 96.0389 262.404 97.6079 262.275C99.14 262.109 100.656 261.818 102.143 261.405C105.94 258.966 109.232 255.795 111.835 252.073C112.001 251.822 112.138 251.553 112.243 251.27M154.814 146.101C154.832 146.153 154.865 146.196 154.884 146.249C155.331 147.361 156.205 148.035 157.529 147.786L168.037 147.656C168.577 147.633 169.094 147.428 169.507 147.074C169.92 146.72 170.206 146.236 170.32 145.698C170.446 145.119 170.531 144.532 170.573 143.94C170.724 142.114 170.572 140.274 170.123 138.499C168.445 136.738 166.604 135.118 164.379 133.977L154.237 124.725C153.972 124.469 153.649 124.283 153.296 124.186C152.944 124.088 152.573 124.081 152.217 124.165C151.913 124.221 151.63 124.364 151.403 124.577C151.176 124.791 151.014 125.066 150.935 125.37L149.342 126.883L153.608 141.776C153.702 142.154 153.795 142.535 153.91 142.913C154.179 143.983 154.469 145.065 154.817 146.095M8.97364 58.2628C10.1829 58.73 10.8147 57.7648 11.4526 56.9441C11.9181 56.3293 12.4018 55.7391 12.8674 55.1243C12.9339 55.029 13.0125 54.9429 13.0699 54.8507C13.6232 54.0883 14.1643 53.3137 14.7145 52.5544C16.5828 49.9231 18.4571 47.2949 20.271 44.6298C20.3279 44.5338 20.3716 44.4304 20.401 44.3224C20.5766 43.8308 20.5702 43.291 20.3828 42.8039C19.6361 41.3191 18.8713 40.7843 17.8374 41.0794C17.2906 41.2562 16.7833 41.5403 16.344 41.9155C14.2693 43.5927 12.4374 45.5589 10.9024 47.756C10.2766 48.6198 9.69314 49.4989 9.13084 50.4119C8.52622 51.3956 7.95183 52.413 7.39256 53.449C7.18377 53.9401 7.03846 54.4568 6.96026 54.9859C7.00258 56.7535 7.69789 57.7802 8.98573 58.2628M140.228 247.591C139.69 247.541 139.149 247.576 138.622 247.695C138.489 247.729 138.353 247.738 138.226 247.781C134.23 249.072 130.622 251.375 127.742 254.473C127.479 254.766 127.253 255.091 127.071 255.442L120.263 257.397L114.613 255.442L113.458 256.345C112.965 257.052 112.457 257.759 111.931 258.451C112.04 258.414 112.152 258.389 112.261 258.356L109.724 262.622C109.724 263.409 110.081 264.082 110.81 264.703C111.108 264.974 111.461 265.174 111.844 265.289C112.227 265.404 112.631 265.431 113.026 265.367L113.298 265.444C113.298 265.444 123.984 262.081 125.103 262.004C126.222 261.928 129.411 259.853 129.411 259.853C129.979 259.57 130.548 259.256 131.116 258.964C133.904 257.51 136.608 255.894 139.215 254.126C139.928 253.634 140.454 252.823 140.914 251.943C141.216 251.329 141.518 250.714 141.794 250.117C142.371 248.909 141.573 247.735 140.243 247.597M43.8179 12.2026C44.2925 12.4178 44.8336 12.6238 45.3294 12.9004C47.5756 11.883 49.8006 10.97 51.9289 9.87566C52.6523 9.46082 53.2303 8.82682 53.5825 8.06203C53.9725 7.20132 54.4562 5.81189 54.0662 5.29547C54.0253 5.24781 53.9797 5.20454 53.9302 5.16636C53.3527 4.55157 52.1163 4.112 51.3091 4.28414C50.4252 4.48105 49.5531 4.72942 48.6972 5.02804C47.4879 5.42458 46.321 5.88874 45.1692 6.3898C44.3373 6.7983 43.6523 7.46158 43.2103 8.28643C43.0803 8.54464 42.9472 8.8213 42.8172 9.11332C42.5149 9.87566 42.2942 10.6933 42.5149 11.2374C42.6842 11.6493 43.1951 11.9352 43.8058 12.2026M84.5451 5.86415C85.8692 6.12236 87.2084 6.31295 88.6656 6.5435C90.1015 6.31295 91.6282 6.08855 93.1458 5.8119C94.2311 5.61516 95.0292 5.07107 95.1471 3.81075C95.265 2.55043 94.8448 1.53295 93.6869 1.0073C90.4492 -0.468194 87.1752 -0.182317 83.9677 1.1026C82.7887 1.56984 82.4743 2.71642 82.6103 3.9583C82.7373 5.12948 83.5172 5.66434 84.5451 5.86415ZM74.5689 149.215L88.7774 131.017L86.1111 126.099L86.0869 126.037C85.9952 125.192 85.628 124.402 85.0439 123.793C84.5446 123.223 83.851 122.866 83.1031 122.794L72.0416 117.107C72.0143 117.141 71.9811 117.175 71.9478 117.218C71.9557 117.216 71.9642 117.216 71.972 117.218L68.2506 122.444C66.3853 125.386 64.6229 128.395 62.8906 131.429C64.3659 133.922 65.823 136.424 67.2923 138.917L69.481 142.64C69.481 142.64 72.9334 152.12 74.5779 149.23M78.6138 168.885C78.8254 170.145 79.041 171.405 79.2607 172.663C79.3695 173.278 79.5993 173.853 79.7505 174.455L80.609 178.648L81.9755 184.16L84.0251 184.074C84.0251 184.098 84.0251 184.132 84.0251 184.16C84.9653 184.089 85.9327 184.021 87.0482 183.944C86.4285 180.582 85.9115 177.526 85.3341 174.55L83.5203 166.014C83.1817 164.582 82.8159 163.158 82.3745 161.754C82.0722 160.736 81.6883 159.725 81.3074 158.726C81.3678 158.649 81.4101 158.587 81.4615 158.511L81.7306 158.535L86.8124 151.671L84.276 146.411C82.707 147.601 81.7245 148.514 81.2983 149.35L75.9716 154.588L76.3857 158.013L78.6138 168.885ZM122.751 117.719L126.705 125.635L129.402 133.525C129.674 134.38 129.951 135.234 130.233 136.086C130.65 137.365 131.361 138.278 132.827 138.253C134.293 138.229 135.382 137.432 135.832 135.923C135.967 135.553 136.039 135.162 136.044 134.767C136.001 134.137 135.992 133.501 135.974 132.862C135.956 132.222 135.923 131.632 135.865 131.033C135.817 130.402 135.708 129.779 135.542 129.17C135.339 128.481 135.128 127.789 134.916 127.092C134.175 124.557 133.259 122.08 132.174 119.677L129.326 114.452C128.198 112.635 126.951 110.897 125.593 109.25C124.643 110.64 123.694 112.035 122.718 113.468L122.769 113.52L121.62 115.22L122.751 117.719ZM153.828 156.088C153.387 154.016 152.894 151.966 152.368 149.913L152.32 149.99L151.437 146.402C151.437 146.402 151.455 146.384 151.455 146.378C151.301 145.763 151.153 145.176 150.987 144.573C149.62 139.366 148.266 134.122 147.392 128.825C147.048 129.144 146.659 129.409 146.237 129.609C144.121 130.55 142.447 132.001 140.947 133.605C141.821 138.936 142.7 144.266 144.303 149.433L153.828 156.088ZM135.944 99.2724C135.409 98.547 134.834 98.2119 134.272 98.1934C133.646 98.1596 133.036 98.5224 132.534 99.2294C131.279 100.982 130.049 102.749 128.809 104.541C130.245 106.149 131.567 107.858 132.764 109.656C133.017 110.034 133.229 110.425 133.459 110.803L136.155 115.952L140.116 128.924C141.718 127.215 143.06 125.343 143.883 122.911L146.969 119.997C147.085 120.036 147.205 120.065 147.326 120.083C148.862 120.031 149.496 119.047 149.496 117.624C149.496 116.702 148.632 115.472 147.504 114.664L144.294 109.905L140.14 104.938C138.535 102.786 137.238 101.025 135.941 99.2724M112.209 92.4329L126.116 101.722L129 98.2549C129.112 98.341 129.22 98.4271 129.338 98.5131C130.028 97.5049 130.502 96.8225 130.968 96.1155C131.119 95.8818 131.246 95.6328 131.382 95.39C129.049 93.2807 126.569 91.3442 123.963 89.5956C121.363 87.8705 118.624 86.3703 115.777 85.1107C114.588 87.5453 113.401 89.986 112.216 92.4329M99.3704 88.1139L104.325 89.4327C105.411 89.7616 106.487 90.1059 107.557 90.4932C108.252 90.7422 108.914 91.0373 109.591 91.3109C109.732 91.2024 109.858 91.0752 109.966 90.9328C110.16 90.6348 110.274 90.2903 110.296 89.9337L110.474 89.3896L112.17 83.6383C108.551 82.3139 104.838 81.2729 101.063 80.5244L95.4222 80.1432V83.0173C95.5824 83.9026 95.4403 85.1691 95.9633 85.6118C97.0486 86.5093 98.2035 87.327 99.3734 88.1139M102.768 74.3488C102.811 74.3672 102.862 74.3672 102.91 74.3826L110.22 77.5395C111.553 78.1543 112.878 78.7691 114.199 79.4024L115.217 70.1805C113.785 69.5657 112.324 69.0247 110.849 68.5144C110.384 68.3423 109.994 68.207 109.791 68.1363C108.839 67.8289 104.428 65.6433 103.802 65.8585C103.176 66.0737 94.6936 64.9179 94.6936 64.9179L95.0746 73.2821L102.768 74.3488ZM115.743 65.8708L116.179 56.4522C112.179 54.6985 108.012 53.3666 103.745 52.4776C100.626 51.8422 97.4653 51.4385 94.2885 51.2695C94.3651 54.0873 94.4468 56.9051 94.5334 59.7229C95.6036 59.8428 96.6889 59.9811 97.7832 60.1686C100.689 60.6849 103.559 61.3913 106.375 62.2835L115.743 65.8708ZM155.588 219.701C155.596 220.095 155.687 220.483 155.855 220.839C156.023 221.195 156.264 221.51 156.561 221.763C156.913 222.1 157.337 222.348 157.801 222.486L161.057 221.158C163.175 219.533 165.062 217.618 166.665 215.468L168.648 212.182C169.198 211.061 169.648 209.891 169.99 208.687C170.144 208.155 170.332 207.645 170.492 207.119L172.46 201.712C172.037 200.753 171.61 199.797 171.229 198.832C170.152 196.148 168.762 193.605 167.091 191.257C167.091 191.276 167.091 191.3 167.091 191.319L165.023 187.323C165.948 181.255 166.139 175.095 165.591 168.98C165.48 167.72 165.319 166.46 165.141 165.212C164.902 163.469 164.624 161.726 164.328 159.986C164.164 159.064 163.995 158.142 163.844 157.22C163.783 156.9 163.681 156.59 163.542 156.297C163.049 155.286 162.133 154.865 160.93 155.003C159.503 155.157 159.01 155.812 159.01 157.77C159.01 158.514 159.028 159.254 159.028 159.995C159.071 163.463 159.146 166.939 159.071 170.407C158.98 174.314 158.986 178.245 158.732 182.134C158.638 183.523 158.52 184.9 158.342 186.284C157.564 192.708 155.674 198.94 152.758 204.694L156.44 217.681L155.836 218.53C155.654 218.892 155.564 219.294 155.573 219.701M79.9893 37.28L96.7252 36.7205L106.275 37.0832C106.345 37.1078 106.402 37.1509 106.463 37.1785L112.119 39.2381C112.101 39.2903 112.076 39.3426 112.058 39.4041C113.382 39.7822 114.707 40.1879 116.022 40.6521C116.714 40.9042 117.276 40.9042 117.675 40.6521H118.352L118.268 39.5916C118.297 39.5106 118.319 39.4273 118.334 39.3426C118.372 38.7482 118.3 38.152 118.123 37.5843L117.944 35.1774L110.474 31.796C110.417 31.7645 110.351 31.7527 110.287 31.7622L109.099 31.5224C105.688 30.3777 102.15 29.6734 98.5662 29.426L91.9154 29.217C89.6917 29.2549 87.4716 29.4139 85.2646 29.6934L79.297 30.7109L79.4481 32.8627L79.9893 37.28ZM154.485 71.9234C153.245 73.4789 152.804 74.6162 153.169 75.6491V76.2884L153.865 76.7711C154.411 77.3126 155.02 77.7844 155.679 78.1759C156.567 78.7384 157.45 79.3163 158.741 80.1432L161.25 83.9211C161.25 84.0748 161.226 84.2285 161.226 84.3852C161.622 84.8187 162.039 85.2398 162.435 85.6794C164.709 84.6465 166.592 83.1956 168.339 81.6279C166.761 79.7835 165.132 78.0037 163.451 76.2884C163.443 76.3212 163.432 76.353 163.418 76.3837L161.144 73.9615C159.584 72.4532 157.998 70.9838 156.386 69.5534C155.751 70.3373 155.125 71.1396 154.497 71.9234M174.827 102.835L179.108 111.227C180.755 109.337 182.391 107.449 184.038 105.559C183.071 103.509 182.033 101.489 180.925 99.4968C180.925 99.4968 177.774 94.228 177.436 93.684C177.315 93.5026 177.215 93.3212 177.097 93.1399C175.477 90.6807 173.736 88.3353 171.958 86.0421L168.751 88.8363L166.801 90.9328L174.827 102.835ZM182.034 185.042C186.759 176.813 188.582 167.809 187.394 158.065C187.251 156.896 187.05 155.736 186.789 154.588C186.535 153.414 186.23 152.258 185.882 151.121C185.468 149.741 184.332 149.147 183.059 149.19C182.923 149.177 182.786 149.177 182.651 149.19C182.24 149.235 181.844 149.375 181.494 149.599C181.145 149.823 180.849 150.124 180.631 150.481L175.308 153.319L170.404 154.01C169.014 154.336 168.288 155.209 168.258 156.943L167.154 166.893L175.129 174.458L182.034 185.042ZM64.7166 227.084C65.8442 225.566 66.9386 224.01 67.912 222.4C72.0083 215.612 73.8856 207.937 75.63 200.227C76.1741 197.839 76.7334 195.441 77.2776 193.043C77.1234 192.035 76.9753 191.018 76.8029 190C76.7606 189.724 76.6064 189.471 76.546 189.198C76.0905 187.034 75.6421 184.866 75.2007 182.693C74.8984 181.184 74.6233 179.675 74.3089 178.169C73.7224 175.433 73.1541 172.706 72.5615 169.973C71.4752 174.365 70.802 178.852 70.5512 183.373C70.2791 188.712 69.6775 194.052 68.8885 199.336C67.4616 208.816 64.2571 217.491 58.2199 224.77L56.0403 227.253C55.5752 227.758 55.1916 228.333 54.9036 228.959C53.9967 230.893 54.3685 232.617 55.9042 233.706C57.3523 234.723 58.8457 234.585 60.2363 232.823C60.9649 231.901 61.7056 230.979 62.4341 230.057L64.7166 227.084ZM110.108 27.9413C110.347 28.0458 113.434 28.6299 113.434 28.6299L116.378 29.7703C119.087 31.0442 121.44 32.9863 123.223 35.4202C124.45 32.6537 125.402 30.0039 125.641 28.3132C123.565 27.1308 121.367 25.8858 119.048 24.5784L115.505 22.2575C111.738 21.5352 107.98 20.8866 104.204 20.3947L98.9139 19.6539C98.406 21.4645 98.6116 25.1133 98.4544 26.4166C102.263 26.6994 106.07 27.2005 109.888 27.8644C109.963 27.8877 110.037 27.9165 110.108 27.9505M106.402 16.7644L106.599 16.9027C106.599 16.9027 111.203 17.5483 111.436 17.7542C111.738 17.4284 112.258 15.4795 112.367 14.9692C112.669 13.5798 112.064 12.5654 110.314 11.8584C107.218 10.598 103.08 9.29468 99.8057 8.83666C99.2374 10.0662 98.5965 14.4712 98.6297 15.418C98.7137 15.4338 98.7985 15.4451 98.8837 15.4518L106.402 16.7644ZM91.0417 64.3338L78.6924 66.3534C78.1993 66.3467 77.71 66.4408 77.2534 66.6301C75.896 67.1988 74.5326 67.7582 73.1541 68.3208L65.4542 71.3732L67.4464 75.4616C67.5682 76.1292 67.8256 76.7636 68.2022 77.3244C68.3715 77.601 68.568 77.8592 68.7373 78.1267L72.4164 85.1107L73.0785 85.5349C74.2484 87.0965 75.4032 87.1395 79.1851 86.414C80.5349 86.3364 81.8763 86.1494 83.1968 85.8546C85.836 85.8546 88.2605 86.0267 90.6366 85.7409C91.0689 85.6886 91.6101 85.1968 92.0091 84.6373L92.0696 84.6035C92.0696 84.6035 92.0696 84.5512 92.0696 84.542C92.2986 84.2471 92.4476 83.8963 92.5019 83.5245C92.52 83.1895 92.5019 82.8513 92.5019 82.5163C92.777 81.0592 92.9856 79.3778 92.5019 79.3593C91.6645 79.3255 84.2519 79.2733 84.2519 79.2733L80.4246 78.9659L78.7377 73.4543L91.2322 71.9788L91.0417 64.3338ZM8.65924 94.2004L10.068 96.5735C10.4671 97.2467 10.8752 97.9106 11.2772 98.5654C11.6757 99.1239 12.2264 99.5514 12.8613 99.795C13.5415 100.081 14.2278 100.358 14.908 100.64L19.8356 93.0507L20.0624 92.7157C20.3344 92.3345 20.5793 91.938 20.8181 91.5414L27.6957 85.9007L32.8199 80.1493L22.5232 67.2572L15.3282 78.1267L5.29453 89.2605L6.64283 90.7268C7.35628 91.9564 8.01532 93.0876 8.65924 94.2004M37.6508 109.263C40.6376 110.492 43.2919 111.617 43.2919 111.617C43.6486 111.842 44.0386 112.051 44.4618 112.275C46.5557 113.343 48.537 114.626 50.375 116.102C52.8932 112.075 55.478 108.092 58.2109 104.209C59.0332 103.047 59.8887 101.934 60.7896 100.88C59.2115 98.6136 57.6284 96.3317 56.0403 94.0344C55.5717 94.225 54.6225 94.4217 53.9241 94.9566C51.288 96.9577 48.7244 99.0603 46.1638 101.157C45.8252 101.433 45.5018 101.725 45.1813 102.011L42.8233 101.218L38.0226 97.9936L29.4763 105.86L37.7445 109.131L37.6508 109.263ZM37.6508 109.263C34.023 107.747 29.9237 106.029 29.4884 105.848L37.6508 109.272V109.263ZM27.1425 61.4904C27.998 60.3162 29.0591 58.9267 30.2472 57.5742L27.1425 61.4904ZM35.3955 79.2733C36.368 77.2152 37.4907 75.2342 38.7542 73.3467C39.3044 72.5382 40.1358 71.3486 41.2483 69.9838C42.3896 68.5762 43.6153 67.2416 44.9183 65.9876C44.6926 61.3562 44.4638 56.7278 44.2321 52.1026C44.3366 51.8456 44.3833 51.5682 44.3686 51.2905C44.354 51.0129 44.2784 50.7421 44.1474 50.498C43.8955 49.8966 43.4309 49.4131 42.8454 49.1433C42.2598 48.8735 41.596 48.837 40.9852 49.0409C39.8248 49.3664 38.7361 49.9141 37.7777 50.6547C37.0492 51.2695 36.5685 51.6384 35.9125 52.2317C34.0714 53.9162 33.2401 54.5617 32.5206 55.2165C31.8676 55.8128 31.2388 56.4676 30.619 57.15H30.5858C30.5278 57.1535 30.4711 57.1689 30.4191 57.1953C30.3672 57.2217 30.321 57.2586 30.2835 57.3037C29.3765 58.2259 24.7361 63.885 25.0565 64.1002L35.3955 79.2733Z" fill="black"/>
</svg>
