<svg width="37" height="53" viewBox="0 0 37 53" fill="none" xmlns="http://www.w3.org/2000/svg">
<mask id="mask0_227_194" style="mask-type:alpha" maskUnits="userSpaceOnUse" x="0" y="2" width="37" height="49">
<path d="M13.103 4.42825C13.1321 4.52717 13.2893 4.60206 13.4069 4.65181C13.3124 4.51543 13.2184 4.38074 13.1244 4.24437C13.0985 4.30285 13.091 4.36806 13.103 4.43104M4.40084 23.9959C4.51791 23.6997 4.64763 23.4108 4.78559 23.1302L4.42172 22.4327C4.26597 22.3597 4.10312 22.3035 3.93583 22.265L2.82113 22.0018C2.73194 21.8263 2.58977 21.6844 2.41548 21.5971C2.30116 21.5412 2.18408 21.492 2.06535 21.4451C1.81728 21.9376 1.59957 22.4453 1.41346 22.9653C1.30353 23.2777 1.21009 23.5974 1.1194 23.9188L0.999023 24.5571C1.00771 24.6901 1.02368 24.8226 1.04684 24.9539C1.10181 25.2048 1.26671 25.3334 1.51405 25.3568L2.25883 25.5217L2.03897 29.8253L2.08514 29.9443C2.0648 30.1936 2.04007 30.4473 2.02193 30.6938C2.02798 30.7692 2.03402 30.8441 2.03897 30.9173C2.05436 31.1476 2.06975 31.3723 2.08954 31.588C2.10218 31.7244 2.11757 31.8574 2.13901 31.991C2.19397 32.3263 2.45836 32.4817 2.78815 32.4426C3.06298 32.4096 3.18335 32.2403 3.20149 31.8837C3.22128 31.5075 3.23996 31.1325 3.25645 30.7564C3.2669 30.5401 3.27954 30.3238 3.28998 30.1086C3.31197 29.7174 3.33176 29.3295 3.35649 28.9405C3.36584 28.779 3.37958 28.6158 3.39387 28.4543C3.39387 28.4543 3.39387 28.4543 3.39057 28.4543C3.41201 28.2111 3.43839 27.9228 3.47082 27.7003C3.54008 27.228 3.72696 26.2215 3.72696 26.2215L3.86877 25.6257C4.01274 25.0703 4.18931 24.5242 4.39754 23.9903M21.0361 41.1754C20.6182 41.7372 20.1489 42.2574 19.6345 42.7292C19.3511 42.9931 19.0972 43.2881 18.8776 43.6089C18.7285 43.8222 18.5924 44.0447 18.4703 44.2751C18.3392 44.5229 18.2179 44.777 18.1065 45.0374C18.0125 45.261 17.9965 45.4778 18.2164 45.6444C18.4214 45.8009 18.6462 45.7897 18.8672 45.5969C18.9692 45.4982 19.0654 45.3935 19.1552 45.2833L20.0468 44.3142C20.2815 44.0605 20.514 43.8062 20.747 43.5507C21.1158 43.145 21.5011 42.7498 21.8436 42.3212C21.8727 42.2832 21.9051 42.2491 21.9332 42.2094C22.2642 41.7729 22.5617 41.3112 22.8231 40.8283C22.9429 40.6087 23.0556 40.3862 23.1605 40.1577C23.5938 39.2111 23.9401 38.2259 24.195 37.2145C24.371 36.5389 24.5014 35.8519 24.5853 35.1583L24.6402 34.5849C24.7173 33.6421 24.6768 32.6932 24.5198 31.7607C24.4693 31.7227 24.4165 31.6853 24.3659 31.649C23.7553 31.1974 23.2117 31.1974 22.7835 31.6534C22.8302 31.9295 22.8791 32.2056 22.9225 32.4845C23.0403 33.2448 23.0969 34.0136 23.0918 34.7833C23.0918 34.9683 23.0858 35.1549 23.0753 35.3422C23.0406 36.0913 22.9331 36.8351 22.7544 37.5627C22.5048 38.5755 22.0995 39.5418 21.5534 40.4259C21.394 40.6847 21.2236 40.934 21.0378 41.1771M2.10603 20.4558C2.10349 20.4458 2.10037 20.4359 2.09668 20.4262C2.09328 20.4313 2.09016 20.4365 2.08734 20.4419L2.10603 20.4558ZM8.03735 27.9664C8.14343 27.8613 8.1885 27.759 8.12035 27.6713C8.07245 27.612 8.04349 27.5392 8.03735 27.4628L8.40562 26.8687C8.67184 26.188 8.9959 25.5321 9.37411 24.9086C9.42028 24.8315 9.46645 24.7566 9.51317 24.6811C9.26075 24.4687 8.98719 24.2836 8.69693 24.1289C8.49686 24.0289 8.29294 23.9283 8.09231 23.831C7.75446 24.6135 7.40543 25.3896 7.04522 26.1594C6.75722 26.7696 6.56773 27.4229 6.48403 28.0943L6.40652 28.7706C6.25372 30.2036 6.10257 31.6381 5.95306 33.0741C5.80355 34.5273 5.64635 35.9804 5.51828 37.4369C5.8401 38.0809 6.09169 38.7588 6.26856 39.4585C6.35767 39.4062 6.43441 39.3346 6.49337 39.2489C6.59835 39.0812 6.62584 38.8577 6.66926 38.6587C7.17164 36.3337 7.38381 33.9706 7.46021 31.5998C7.49702 30.3685 7.69102 29.1473 8.03735 27.9669M28.8017 34.8973C28.6439 34.7766 28.3421 34.6793 28.1921 34.7531C28.1282 34.7847 28.0622 34.812 27.9948 34.8347C27.9285 35.6021 27.7924 36.3615 27.588 37.1033H26.6536C26.7393 36.6579 26.7989 36.2077 26.8322 35.7552C26.8491 35.4966 26.8625 35.2395 26.8724 34.9839C26.6992 34.9839 26.5239 34.9839 26.3513 34.9962C26.1012 35.0119 25.8451 35.0074 25.5922 35.0135C25.4744 36.7703 25.034 38.4891 24.2939 40.0811C24.4495 40.0811 24.6056 40.0811 24.7611 40.0923C25.0079 40.1079 25.2745 40.1018 25.5026 40.0202C25.659 39.9682 25.8181 39.9253 25.9792 39.8916L26.4739 39.8083C26.9524 39.7594 27.4331 39.7365 27.914 39.7396C28.0266 39.5434 28.1338 39.3428 28.2289 39.1326C28.7771 37.896 29.1118 36.5725 29.2183 35.2203C29.0792 35.1119 28.9435 35.0024 28.8006 34.8973M22.6779 44.9402C22.8659 44.5981 23.1281 44.2958 23.3843 43.9979C23.6848 43.6516 24.0128 43.3311 24.3648 43.0393C24.0825 43.0484 23.8017 43.0845 23.5261 43.1472C23.3348 43.1835 23.1572 43.2869 22.966 43.3311C22.6994 43.387 22.4312 43.4468 22.1613 43.5032C21.7425 43.9932 21.2883 44.4508 20.8025 44.872C20.9597 45.3895 21.156 45.8964 21.3132 46.4134C21.8784 46.0421 22.3467 45.537 22.6779 44.9413M25.3998 31.5361C25.4548 31.8574 25.4949 32.176 25.529 32.4923C25.6029 33.1466 25.6317 33.8053 25.6153 34.4636C26.0396 34.4077 26.4651 34.3551 26.8894 34.3021C26.8894 34.0198 26.8894 33.7392 26.8845 33.4587C26.8504 32.1173 26.6888 30.791 26.3233 29.4804C26.2773 29.3133 26.2137 29.1518 26.1336 28.9986C26.1182 28.9707 26.1072 28.9377 26.0908 28.9109C26.0501 28.8363 25.9922 28.7729 25.922 28.7262C25.8517 28.6796 25.7714 28.6511 25.6879 28.6432C25.5913 28.632 25.4936 28.6415 25.4009 28.6711C25.1173 28.7622 24.9892 28.9333 24.9892 29.2546C24.9892 29.4073 25.0047 29.5596 25.0354 29.709C25.153 30.3193 25.2949 30.9246 25.3998 31.5361ZM16.9198 47.4882C16.4872 47.7785 16.1576 48.2022 15.9793 48.6971C15.8622 49.0324 15.9837 49.3354 16.2618 49.484C16.4916 49.6064 16.718 49.5265 16.9308 49.2241C17.0818 49.0122 17.251 48.8143 17.4364 48.6328C17.3459 48.1924 17.2565 47.757 17.1682 47.3267C17.0847 47.3826 17 47.4317 16.9187 47.4882M20.5255 46.8611C20.6228 46.8153 20.7168 46.7667 20.8108 46.7152L21.3121 46.4123L20.8014 44.8709L20.393 45.2174C19.6991 45.7767 18.9603 46.2761 18.1845 46.7102C18.0257 46.798 17.8685 46.8924 17.7113 46.9846C17.7805 47.3032 17.8514 47.6212 17.9207 47.9398L18.6017 47.7861C19.236 47.4614 19.8852 47.1713 20.5255 46.8628M12.1867 38.7118C12.6308 37.006 12.7528 35.2796 12.2625 33.5559C12.1108 33.0199 11.9047 32.499 11.7442 31.9658C11.6052 31.507 11.5683 31.0286 11.8338 30.6032C12.1157 30.1434 12.3726 29.6682 12.6033 29.1797C12.3153 28.667 12.0234 28.1558 11.7277 27.6461C11.7074 27.6835 11.686 27.7216 11.6645 27.7579C11.3512 28.3006 11.0599 28.8572 10.7515 29.4044C10.6669 29.5564 10.5465 29.6928 10.3459 29.6112C10.1453 29.5296 10.0375 29.3731 10.0623 29.1456C10.0718 29.0379 10.0972 28.9322 10.1376 28.8321C10.2613 28.5526 10.3646 28.2598 10.5328 28.0105C10.7919 27.6231 11.0281 27.2203 11.2402 26.8044C11.2111 26.7547 11.1819 26.7044 11.1539 26.6541C10.8626 26.151 10.5295 26.0952 10.0469 26.4204C9.89244 26.5255 9.73688 26.6272 9.58243 26.7306C9.40214 27.0693 9.22277 27.4076 9.04432 27.7456C8.37044 29.0188 8.53699 30.3277 9.16799 31.5852C9.34828 31.9463 9.56539 32.2867 9.75997 32.641C10.4861 33.9578 10.8593 35.3696 10.7873 36.8886C10.7395 37.9153 10.4784 38.894 10.1277 39.857C9.80999 40.735 9.52801 41.627 9.24824 42.5179C9.24329 42.5352 9.24494 42.5525 9.24054 42.5699C9.59507 42.7169 9.9496 42.8566 10.3041 43.0008C10.7704 42.625 11.1189 42.1193 11.3072 41.5454C11.6173 40.6059 11.9382 39.6686 12.1867 38.7118ZM20.9213 24.7655L21.6045 25.4412C21.9766 25.5194 22.3631 25.483 22.7148 25.3367C22.5773 25.028 22.4228 24.7274 22.252 24.4363L21.9222 23.93C21.3764 23.1755 20.7069 22.6283 19.9434 22.3052L19.419 22.127C18.8083 21.9601 18.1712 21.9174 17.5442 22.0012C17.8013 22.2507 18.0756 22.4814 18.3648 22.6914C18.6094 22.8653 18.7578 22.9502 18.8798 22.9184L19.3806 23.4689C19.7091 23.6073 20.0141 23.7976 20.2842 24.0328C20.5275 24.2464 20.7418 24.4921 20.9213 24.7633M20.9169 20.31C20.7162 20.7196 20.514 21.1332 20.3122 21.5491C20.5446 21.6448 20.7716 21.7536 20.9922 21.8749C21.5766 22.1952 22.1076 22.6076 22.5653 23.0966C22.8379 22.7311 23.1067 22.3632 23.3716 21.9928C22.6691 21.2737 21.8345 20.7019 20.9152 20.31M12.3516 24.6778C12.7101 24.1469 13.1259 23.6584 13.5911 23.2213C13.9718 22.8597 14.378 22.5269 14.8063 22.2253C15.4208 21.7845 16.1073 21.458 16.834 21.2612C17.8208 21.003 18.8599 21.0394 19.8269 21.3663C19.9445 21.15 20.0616 20.9331 20.1803 20.7169C20.3238 20.457 20.3546 20.2418 20.2556 20.0585C19.5128 19.8125 18.7453 19.6515 17.9674 19.5784C17.4892 19.6343 17.1083 19.6443 16.74 19.7242C16.5086 19.7745 16.2849 19.836 16.0645 19.9048C14.7945 20.2869 13.6392 20.9872 12.7045 21.9414C12.3146 22.3377 11.961 22.7693 11.648 23.2308C11.3776 23.6259 11.1237 24.0317 10.8752 24.4425C11.0802 24.6526 11.3149 24.841 11.5381 25.0494C11.8129 24.9243 12.0828 24.8019 12.3527 24.6778M22.6021 13.3533C22.5669 13.8396 22.5422 14.3275 22.5142 14.8149C22.8612 14.9859 23.2036 15.1673 23.5415 15.3592C24.6358 15.99 25.6677 16.7267 26.6228 17.5591C26.7982 17.7111 26.9757 17.8631 27.1466 18.0213C27.7128 18.5388 28.2542 19.086 28.7797 19.6538C28.8786 19.5487 28.9759 19.442 29.0715 19.3358C29.2914 19.086 29.3953 18.7082 29.5014 18.3728C29.5074 18.3538 29.5107 18.3365 29.5157 18.3169C29.0759 17.8273 28.6159 17.3616 28.1355 16.9197C27.9673 16.766 27.7991 16.614 27.6265 16.4653C26.7105 15.6692 25.7387 14.942 24.7188 14.2895C24.0501 13.8558 23.3561 13.4638 22.6406 13.1158C22.6233 13.1942 22.6114 13.2738 22.6048 13.3539M11.9492 15.177C12.0696 15.0926 12.1916 15.0127 12.3131 14.9339C12.7135 14.6752 13.1303 14.4436 13.5608 14.2409C13.5652 13.7222 13.5636 13.2091 13.5515 12.6966C13.1499 12.8633 12.7576 13.0521 12.3763 13.2622C12.2609 13.3271 12.1499 13.3992 12.0355 13.4662C11.1436 14.0056 10.3264 14.6634 9.60551 15.4224C8.99842 16.0588 8.44876 16.7494 7.96315 17.4858C7.93182 17.5311 7.89829 17.5753 7.86586 17.6205C8.14783 17.9704 8.40562 18.265 8.63977 18.5148L9.68082 19.722L10.8714 18.8473L9.88914 17.1136C10.0205 16.9538 10.1541 16.7939 10.2931 16.6419C10.7891 16.0917 11.3447 15.6003 11.9492 15.177ZM32.0842 21.9934C31.8385 21.5211 31.5736 21.0606 31.285 20.6118C31.0651 20.2764 30.8453 19.9411 30.5974 19.6192C30.5864 19.6052 30.5759 19.5929 30.5649 19.58C30.2351 19.8673 29.8894 20.1652 29.5206 20.4866C29.6025 20.5838 29.6855 20.6822 29.7641 20.7828C29.9048 20.9572 30.0389 21.1327 30.1714 21.3115C30.3132 21.5043 30.4462 21.7028 30.5798 21.904C30.7748 22.2004 30.9549 22.5067 31.1195 22.8217C31.3231 23.2062 31.5009 23.6043 31.6516 24.0132C31.7346 24.2402 31.8121 24.4693 31.8863 24.6985C32.2007 24.3374 32.5153 23.9762 32.8301 23.6147C32.6047 23.0609 32.3579 22.5204 32.0853 21.9939M32.2579 25.9096C32.3304 26.1522 32.4041 26.397 32.4777 26.6401C32.4819 26.6566 32.487 26.6728 32.4931 26.6887C32.5932 27.0117 32.6954 27.3331 32.7998 27.6528C32.8955 27.5919 32.9972 27.4522 33.1456 27.2297C33.3412 26.9346 33.5435 26.6434 33.7403 26.3483C33.7381 26.3366 33.7351 26.325 33.7315 26.3137L34.4543 25.2741L34.4592 25.2887C34.7399 24.8788 35.0201 24.4689 35.2997 24.0591C35.1173 23.4686 34.9038 22.8885 34.6599 22.3215L32.0627 25.268C32.1276 25.4815 32.1908 25.6961 32.2557 25.9096M5.72385 21.6737C5.87732 21.4824 6.04255 21.3011 6.21854 21.131C6.34002 21.0131 6.46809 20.8991 6.60055 20.7906C6.61155 20.7828 6.61924 20.7733 6.63023 20.7655C7.2432 20.272 7.81328 19.7258 8.33416 19.1329C8.13189 18.7976 7.86366 18.4103 7.57564 18.0202C7.22496 18.4771 6.80904 18.8782 6.34167 19.2101C6.14218 19.3566 5.95635 19.5214 5.78651 19.7024C5.77882 19.7103 5.77277 19.7164 5.76508 19.7231C5.64305 19.8468 5.5247 19.9737 5.41 20.1037C5.09191 20.4635 4.79983 20.8463 4.53605 21.2489C4.73777 21.3283 4.94005 21.4099 5.14067 21.4853C5.33195 21.5558 5.52543 21.6156 5.72056 21.6737M17.4546 11.9047C16.862 11.9084 16.2708 11.9635 15.6874 12.0695L15.0119 12.2121C14.6549 12.3024 14.3029 12.4117 13.9571 12.5396C13.9879 13.0398 14.0511 13.526 14.122 14.0039C14.4643 13.8685 14.8146 13.755 15.1708 13.6641L15.6979 13.5478C16.2904 13.4379 16.8928 13.393 17.4947 13.4137C17.4914 13.1722 17.4854 12.9325 17.4826 12.691C17.4793 12.3663 17.4749 12.1103 17.4546 11.9052M8.75575 7.91858C8.53644 7.94527 8.32206 8.004 8.11925 8.09296C7.83221 8.21012 7.56919 8.38071 7.34369 8.59597C6.99153 8.92268 6.66751 9.27945 6.3752 9.66235C6.27681 9.79705 6.18392 9.93677 6.08827 10.0731C5.89425 10.3459 5.69967 10.6203 5.51334 10.8975C5.79861 11.263 6.08223 11.6241 6.3642 11.9874C6.57087 11.7856 6.78689 11.5894 7.00895 11.4011C7.06776 11.3525 7.12437 11.3022 7.18319 11.2524C7.67073 10.8539 8.23797 10.6784 8.86568 10.7835C9.27901 10.8525 9.6987 10.8735 10.1167 10.8461C10.5583 10.815 10.9947 10.7313 11.4172 10.5968C11.4172 10.2129 11.2616 9.8915 10.9901 9.5651C10.967 9.53828 10.9467 9.51201 10.9252 9.48518C10.3825 9.59664 9.82996 9.65133 9.27627 9.64838H8.5936C8.40562 9.64838 8.26821 9.5774 8.23907 9.36893C8.20994 9.16046 8.32537 9.04253 8.5106 9.00508C8.58755 8.99055 8.66616 8.97379 8.74311 8.95478C9.09653 8.87766 9.45106 8.79326 9.80724 8.77594C9.98038 8.76811 10.153 8.75749 10.3239 8.74464C10.0758 8.43277 9.83014 8.11923 9.58683 7.80401C9.312 7.84928 9.03717 7.89175 8.75575 7.92138M23.9174 10.1151C24.0274 10.4286 24.2472 10.636 24.5435 10.774C25.4509 11.201 26.3107 11.7256 27.1082 12.3389L29.0869 14.0782C29.1419 14.1313 29.2007 14.19 29.2595 14.2414C29.2891 14.2696 29.3218 14.2944 29.3568 14.3152L29.5893 13.9933L29.813 13.459C29.7503 13.2494 29.6551 13.0513 29.531 12.8721C29.0993 12.2768 28.6027 11.7331 28.0508 11.2513L28.0459 11.2452C28.0459 11.2452 25.983 9.3516 25.8577 9.30018C25.7324 9.24876 24.3341 8.212 24.3341 8.212L24.0592 8.76364C23.9301 9.03191 23.8036 9.29236 23.6789 9.54945C23.7724 9.73083 23.8527 9.91894 23.9191 10.1123M1.63717 17.3456C1.88727 17.4573 2.05546 17.2986 2.21101 17.1309C2.37921 16.9504 2.5441 16.7671 2.71065 16.5866L3.1053 16.1747C3.14433 16.1367 3.1795 16.0959 3.21523 16.0584C3.7557 15.532 4.22966 14.9393 4.62619 14.294L4.99831 13.6892C5.28508 13.2189 5.61645 12.7782 5.98769 12.3736C5.8827 12.2355 5.77937 12.0941 5.67493 11.9578C5.51883 11.7554 5.36163 11.5565 5.20443 11.3558C5.089 11.5296 4.97193 11.704 4.85595 11.8778C4.63609 12.2087 4.41623 12.5379 4.18702 12.8593L3.85063 13.322C3.3771 13.9657 2.84707 14.5643 2.26708 15.1105C1.91695 15.4498 1.84549 15.5202 1.84549 15.5202C1.56387 15.8617 1.39503 16.2846 1.36289 16.7291C1.33816 16.9879 1.37389 17.2276 1.63278 17.3467M13.9742 6.61858L11.3017 7.42619C10.9302 7.52344 10.557 7.61286 10.1805 7.68943C10.473 8.02791 10.7835 8.34994 11.1105 8.65409C11.177 8.64292 11.2429 8.63342 11.3094 8.62112V8.60994L11.8382 8.49816C12.1717 8.40854 12.4952 8.28398 12.8034 8.12649L14.4013 7.64528L14.1517 7.04614C14.1066 6.91927 14.0495 6.77842 13.9742 6.61802M14.9548 8.44507C14.9558 8.38939 14.9465 8.33401 14.9273 8.28187C14.3842 8.41991 13.8477 8.58591 13.314 8.78041C13.1398 8.84468 12.9656 8.90448 12.7913 8.96373L11.8877 9.25268L11.9558 12.0751C11.9558 12.0997 11.9509 12.1238 11.9509 12.15L11.9404 12.188L11.9619 12.5094C11.9619 12.5217 11.9619 12.5312 11.9619 12.5424C11.9619 12.5675 11.9646 12.591 11.9679 12.6161L13.9456 11.6811L14.7442 11.3704L15.1191 11.2703L14.9586 10.2643V9.46785C14.9586 9.12134 14.9586 8.78264 14.9553 8.44562M15.9623 7.42451L18.4747 7.37309L18.4775 6.17202C18.1433 6.15301 17.8053 6.14351 17.4661 6.14687C17.199 6.14985 16.9342 6.15767 16.6719 6.17034L15.97 6.23908C15.9657 6.23362 15.9611 6.2284 15.9562 6.22344C15.7605 6.24411 15.566 6.26759 15.3736 6.29721C15.3753 6.31447 15.3793 6.33141 15.3857 6.34751C15.5786 6.70633 15.7391 7.08582 15.9623 7.42451ZM19.5724 41.2034C20.4606 40.4678 21.0911 39.5334 21.5242 38.4524C21.9255 37.4565 22.0931 36.4063 22.2751 35.3539C21.9453 35.3539 21.6155 35.3539 21.2824 35.3573C21.1421 35.3541 21.0032 35.3287 20.8707 35.2818C20.7058 36.2526 20.4354 37.1994 20.1457 38.1451C20.008 38.6036 19.7613 39.0206 19.4273 39.359C19.1807 39.6031 18.9223 39.8344 18.6528 40.052C17.8789 40.6897 17.2864 41.4554 16.8994 42.3927C16.9846 42.8571 17.0753 43.3428 17.1743 43.8838C17.3392 43.8559 17.4997 43.828 17.6635 43.8039C17.7146 43.7067 17.7679 43.6117 17.8207 43.5139C18.2862 42.6487 18.8062 41.8316 19.5708 41.2011M21.051 34.5133C21.0388 34.575 21.0435 34.6388 21.0645 34.6979C21.0855 34.7571 21.1221 34.8092 21.1702 34.8487C21.2618 34.9188 21.3718 34.9599 21.4863 34.9666C21.6309 34.9822 21.782 34.9465 21.9304 34.9275C22.0706 34.9101 22.2107 34.8911 22.3515 34.8716C22.4089 34.4446 22.4244 34.0128 22.3976 33.5827L22.413 33.5593L22.3696 33.2754C22.3419 33.0041 22.3004 32.7346 22.2454 32.4677L22.0744 31.7814C21.9618 31.3857 21.8458 30.9939 21.732 30.5988C21.1889 30.4669 20.7542 30.1427 20.3315 29.7738L20.0682 29.5503C20.1287 29.8579 20.2281 30.1562 20.3639 30.4378C20.5265 30.7693 20.6595 31.115 20.7613 31.4707L20.9586 32.3956L21.0328 33.4967V34.4625L21.051 34.5133ZM16.7763 45.418C16.7422 45.2504 16.7065 45.0782 16.673 44.9089C16.2074 44.6797 16.0018 45.0626 15.7386 45.2537C15.6412 45.3238 15.558 45.4122 15.4934 45.5142L14.6601 46.4252C14.4722 46.6487 14.2754 46.8723 14.0676 47.0886C14.0231 47.1322 13.9643 47.1791 13.9538 47.2328C13.9242 47.3719 13.8598 47.5586 13.9198 47.648C13.9907 47.7514 14.1775 47.8112 14.3161 47.8157C14.4216 47.8098 14.5247 47.7811 14.6184 47.7313L15.1565 47.4519C15.6053 47.1737 15.9822 46.7904 16.2558 46.3341C16.4361 46.0334 16.6059 45.726 16.7769 45.4197M21.5066 10.7148L21.311 10.6108C21.289 10.6108 20.4953 10.3805 20.3699 10.3805C19.6191 10.1983 19.2585 10.205 18.4731 10.1201C18.2406 10.4493 18.068 10.8467 18.0757 11.1205C18.0757 11.1457 18.0757 11.1708 18.0757 11.196C19.4528 11.3087 20.8087 11.6095 22.1069 12.0902C22.0519 11.6342 21.9914 10.9679 21.5022 10.7108M23.4112 12.0874C24.1441 12.6989 24.8769 13.3094 25.6098 13.9189C26.4046 14.4599 27.1682 15.0468 27.8969 15.6767C28.125 15.7644 28.3366 15.7253 28.5186 15.4682C28.6571 15.2704 28.7989 15.0731 28.9484 14.8657C28.6084 14.5773 28.2602 14.2979 27.9041 14.0274C27.7897 13.9407 27.6727 13.8597 27.5567 13.7731C27.3857 13.6462 27.2148 13.5176 27.0389 13.3936C25.7585 12.4822 24.3705 11.7379 22.9077 11.1781C22.9044 11.1842 22.9011 11.1921 22.8967 11.1999C22.8417 11.3206 22.9028 11.5436 22.983 11.6705C23.088 11.8382 23.2606 11.9606 23.415 12.0891M35.9571 27.1515C35.8756 26.4675 35.7551 25.789 35.5959 25.1193C35.525 25.0707 35.4585 25.0204 35.3832 24.9751C35.1397 25.3423 34.9006 25.6978 34.6648 26.0493C34.5505 26.2203 33.101 27.9887 33.101 27.9887L33.3907 29.187L35.3431 29.0115C35.4535 29.0351 35.5684 29.0246 35.6729 28.9813C35.9087 28.8908 36.0071 28.6851 36.0071 28.447C36.0071 28.0139 36.0104 27.5796 35.9598 27.1515M16.4086 39.492C16.4888 39.966 16.5658 40.4421 16.6449 40.9161C17.2831 39.7273 18.0773 38.6643 19.1569 37.822C19.3767 37.6543 19.5317 37.3704 19.6472 37.1072C19.7505 36.8752 19.7692 36.6042 19.8044 36.3437C19.8478 36.038 19.8983 35.7334 19.9478 35.4294C18.6803 36.0564 17.4156 36.6841 16.1052 37.3346C16.0804 37.3458 16.0574 37.3581 16.0343 37.3687C16.0464 37.4425 16.0601 37.518 16.0744 37.5923C16.1843 38.2166 16.2992 38.8549 16.4086 39.4926M20.1116 32.722C20.099 32.6231 20.0836 32.5259 20.0665 32.4286C19.6873 32.5197 19.3141 32.6371 18.9332 32.717C18.7281 32.7612 18.5077 32.7248 18.3225 32.7248C18.0064 31.9144 17.7459 31.403 17.4172 31.0945C17.1526 31.4265 16.9693 31.8177 16.8824 32.2358C16.8346 32.4644 16.7868 32.6952 16.7389 32.926C16.8406 33.5045 16.8489 34.1031 17.0566 34.6631C17.2078 35.0694 17.2814 35.4802 17.6503 35.7904C17.8025 35.7686 17.985 35.7764 18.1406 35.7155C18.8433 35.4439 19.4968 35.0554 20.0742 34.5659C20.1517 33.9578 20.1886 33.3458 20.1116 32.7215M14.9394 44.5227L15.2972 43.8268C15.3434 43.7296 15.3884 43.6307 15.4313 43.5317C15.5808 43.1964 15.7259 42.8611 15.8743 42.5257C15.7941 42.2608 15.7567 41.9802 15.7012 41.7075C15.6149 41.2872 15.5286 40.8691 15.445 40.4449C15.439 40.4092 15.4346 40.3712 15.4269 40.3331C15.207 40.9574 14.9537 41.5706 14.7096 42.1865C14.4486 42.8568 14.1188 43.4973 13.7257 44.0973L13.4361 44.6227L13.3811 44.6747C13.3637 44.6898 13.3474 44.706 13.3322 44.7233L12.5934 45.4538C12.4791 45.5622 12.362 45.6701 12.2389 45.7718C12.1711 45.8298 12.1113 45.8969 12.0614 45.9713C11.8701 46.2553 12.035 46.6253 12.3741 46.6454C12.4336 46.6484 12.4932 46.6442 12.5517 46.6331L13.2734 46.3961L13.5619 46.0529C13.7002 45.9597 13.8336 45.8591 13.9615 45.7517C14.3683 45.4035 14.6761 44.9804 14.9372 44.5221M19.0365 28.6616C18.8947 28.5409 18.7556 28.4185 18.6138 28.2995C18.5995 28.2872 18.583 28.2777 18.5676 28.2648L17.7833 27.4421L16.7824 28.504L17.7201 30.6368L18.6589 32.0558C19.125 32.0743 19.5658 32.1486 19.8681 31.7294L19.0645 28.7835C19.0593 28.742 19.0507 28.701 19.0387 28.6611M24.8167 45.6707C25.0112 45.4342 25.219 45.2112 25.4334 44.9966C25.5799 44.8506 25.7316 44.7088 25.8885 44.5713C26.2859 44.2244 26.7013 43.8994 27.1329 43.5977C27.1098 43.515 27.0867 43.43 27.068 43.3467C27.0021 43.0472 26.7459 42.8091 26.4436 42.6839C26.1233 42.9561 25.7882 43.2099 25.44 43.444C25.4213 43.4552 25.4059 43.4675 25.385 43.4803C25.2569 43.5647 25.1322 43.6592 25.009 43.7547C24.5748 44.098 24.1721 44.4805 23.8058 44.8977C23.4904 45.2617 23.2535 45.689 23.1105 46.1519C23.0226 46.4313 22.9209 46.7041 22.8115 46.9723L22.5971 47.1199L22.2239 48.1818L22.5845 48.0141C22.5674 48.0297 22.549 48.0437 22.5295 48.056C22.4326 48.1107 22.3297 48.1534 22.2228 48.1835C22.1904 48.2427 22.1596 48.3008 22.1255 48.359C22.5466 48.5484 22.8472 48.7502 23.2419 48.5076C24.1285 47.9577 25.0233 47.4183 25.9544 46.8505C25.9544 46.7387 25.9748 46.6593 25.9517 46.5917C25.8665 46.3318 25.7818 46.0731 25.6972 45.8126C25.6213 45.8685 25.546 45.9244 25.4691 45.9758C25.191 46.1636 24.8936 46.167 24.5973 45.9943C24.605 45.9628 24.6164 45.9323 24.6314 45.9037C24.6902 45.8249 24.7518 45.7483 24.8134 45.6712M28.7863 43.6122L28.6708 43.4445L28.5197 43.5563C28.4547 43.5673 28.3939 43.5961 28.3438 43.6396C28.1816 43.776 28.0211 43.914 27.8595 44.0504L26.2106 45.5136L26.3348 46.0641C26.3359 46.2258 26.3723 46.3852 26.4414 46.5308L26.5046 46.6851C26.6695 46.6158 26.8344 46.547 27.0076 46.4855C27.5457 46.2949 28.0152 45.9444 28.3553 45.4795L28.8962 44.4947C28.9253 44.4209 28.9561 44.3472 28.9841 44.2712C29.0189 44.16 29.0248 44.0416 29.0012 43.9274C28.9889 43.8625 28.9634 43.8009 28.9261 43.7467C28.8889 43.6925 28.8409 43.6469 28.7852 43.6128M28.1371 41.902C28.4565 41.8813 28.5768 41.6225 28.5323 41.3654C28.4774 41.058 28.5955 40.6897 28.3949 40.4231C28.3479 40.358 28.288 40.3035 28.219 40.2633C28.1749 40.2401 28.1243 40.2328 28.0756 40.2426C27.892 40.2739 27.7089 40.3069 27.5259 40.3399L25.5642 40.5014C25.3284 40.5159 25.1217 40.4829 24.9458 40.5455C24.6267 40.6558 24.2969 40.7308 23.9619 40.7691L22.7873 42.6945L24.6639 42.3782C24.8601 42.3452 25.0574 42.3122 25.2547 42.282C25.2993 42.2742 25.3361 42.2647 25.3762 42.2569L27.2269 41.9405C27.531 41.9327 27.8337 41.9197 28.1349 41.9014M22.4048 16.6335C22.3756 17.0248 22.6191 17.2343 22.861 17.3567C23.4271 17.6407 23.8822 18.0671 24.3451 18.4824C24.5699 18.683 24.7969 18.8825 25.0387 19.0614C25.109 19.1098 25.1858 19.1474 25.2668 19.1732C25.4691 19.3364 25.6664 19.504 25.8594 19.6795C26.325 20.1075 26.7589 20.5699 27.1576 21.0628C27.5271 20.819 27.8754 20.5436 28.1987 20.2395C27.6992 19.6937 27.1771 19.173 26.6322 18.6774C26.3898 18.4567 26.143 18.237 25.8945 18.0235C25.5587 17.7334 25.2207 17.4501 24.8766 17.1706C24.1334 16.5607 23.3244 16.0387 22.4652 15.6146C22.4454 15.955 22.4284 16.2948 22.4037 16.6335M28.23 22.2393C28.1892 22.2946 28.1525 22.3529 28.1201 22.4137C28.2586 22.6372 28.3949 22.8686 28.5241 23.1067C28.5686 23.1883 28.6214 23.2638 28.6692 23.3437L29.7454 24.8019C30.0752 25.1467 30.3962 25.4994 30.8172 25.9498C30.9926 25.7408 31.1267 25.5782 31.252 25.4306C31.0287 24.7455 30.7557 24.0782 30.4352 23.4342L29.9185 22.5092C29.7102 22.1627 29.4849 21.8274 29.2447 21.4976C28.7956 21.5653 28.4999 21.871 28.23 22.2393ZM18.494 5.34876C18.5006 4.97094 18.5077 4.59256 18.5154 4.21642C17.5249 4.18434 16.5333 4.21888 15.5473 4.31982C15.7463 4.66019 15.9436 4.99888 16.1426 5.33758C16.9248 5.25133 17.7142 5.25508 18.4956 5.34876M10.3607 6.77731C10.6554 6.6985 10.9483 6.61578 11.2402 6.53251C11.5639 6.43973 11.781 6.37546 11.781 6.37546C12.3736 6.20331 12.9656 6.03061 13.5575 5.86742C13.5823 5.89592 13.59 5.90039 13.5669 5.86742C13.0722 5.02348 12.4011 4.10017 11.9404 3.69385C11.8987 3.65976 11.8602 3.62343 11.8228 3.5966C11.8184 3.67373 11.8135 3.74247 11.8091 3.81178L11.083 4.46122C10.3728 4.98659 9.56704 5.33758 8.69254 5.58908C8.63757 5.60306 8.5892 5.62206 8.53809 5.63771C8.88382 6.07812 9.21966 6.51742 9.56374 6.94833C9.83197 6.90306 10.0975 6.84829 10.3596 6.78066M13.1244 4.2466L13.4421 4.65404C13.4311 4.65404 13.419 4.6574 13.4097 4.65404C13.4003 4.65069 13.4097 4.65404 13.4069 4.65404C13.5823 4.91002 13.7565 5.16544 13.934 5.41806C14.044 5.57455 14.1347 5.6595 14.2424 5.68745C14.3501 5.71539 14.4925 5.6813 14.7019 5.57567C14.7569 5.54772 14.8179 5.51587 14.8855 5.4801C15.2246 5.2951 15.2741 5.0816 15.0861 4.73844C15.0262 4.62666 14.9674 4.51488 14.9069 4.4031L14.6728 3.21934C14.6387 3.00137 14.5156 2.9153 14.304 2.9248C14.244 2.9248 14.1825 2.9248 14.122 2.9248C14.0082 2.9248 13.8923 2.9248 13.7785 2.9248C13.2893 2.93095 12.8347 3.0405 12.4395 3.28026C12.4945 3.35292 12.5555 3.42446 12.6077 3.49824C12.782 3.74471 12.9535 3.99398 13.1244 4.24493M5.4122 9.10121C5.44839 9.08004 5.48343 9.05691 5.51718 9.03191C5.6546 8.93466 5.77607 8.81729 5.90579 8.70887C6.23118 8.43277 6.54724 8.14605 6.88527 7.88561C7.11642 7.70418 7.36374 7.54513 7.62401 7.41054C8.00699 7.20958 8.42409 7.08458 8.85304 7.04222L8.98221 7.02825C8.81291 6.81028 8.64289 6.5938 8.47213 6.37881C8.30987 6.18481 8.13564 6.00149 7.9505 5.82997C7.56575 5.9669 7.18099 6.12004 6.80777 6.28659C6.67256 6.34751 6.53295 6.40731 6.40103 6.46991C5.67439 6.81196 5.10549 7.39657 4.58112 8.00968C4.51143 8.0882 4.45564 8.1784 4.41623 8.27628C4.31729 8.53058 4.38709 8.77929 4.59486 9.00285C4.83396 9.25827 5.08955 9.29292 5.41055 9.10177M7.19363 23.432C6.85889 23.2923 6.52085 23.1604 6.17732 23.0525C6.08378 23.0241 5.98765 23.0053 5.8904 22.9966C5.21927 23.9691 4.64268 24.988 4.3772 26.1455L4.27716 26.8558C4.2725 26.8416 4.26643 26.828 4.25902 26.815C4.24363 26.9402 4.23099 27.0643 4.2156 27.1884C4.2233 27.1789 4.22824 27.171 4.23429 27.1632L4.12436 27.9596C4.06115 28.5303 4.00838 29.1015 3.95946 29.6749C3.94242 29.8985 3.92868 30.1299 3.91329 30.3557C3.87207 30.9956 3.83744 31.635 3.8237 32.2766C3.86217 33.1295 3.8979 33.9807 3.94242 34.8341C3.94847 34.9532 3.95342 35.0722 3.95946 35.1913C3.97046 35.3673 4.00728 35.5629 4.09962 35.7027C4.17548 35.8144 4.35466 35.9145 4.48054 35.9067C4.53918 35.8959 4.59281 35.8661 4.63334 35.8217C4.69267 35.7686 4.73786 35.7011 4.76471 35.6255C4.87849 35.2198 4.99886 34.8056 5.02964 34.387C5.10384 33.3838 5.16376 32.375 5.1687 31.3689C5.1687 30.7448 5.19893 30.128 5.2594 29.5184C5.28138 29.2798 5.31436 29.0417 5.34569 28.8047C5.57545 27.1459 6.04265 25.5452 6.84955 24.0255C6.95618 23.8232 7.07326 23.627 7.19198 23.4314M35.4431 35.8066C35.3706 35.7608 35.1535 35.8452 35.0732 35.9396C34.8325 36.2191 34.5983 36.5024 34.3697 36.7908C34.2328 36.9635 34.0948 37.1357 33.9613 37.3117C33.807 37.514 33.6757 37.7334 33.5699 37.9656C33.4956 38.1249 33.4357 38.2906 33.3907 38.4608C33.3603 38.5735 33.3356 38.6877 33.3165 38.8029C33.1848 39.7269 32.8281 40.6028 32.2788 41.3509C32.2238 41.4264 32.1688 41.4985 32.1106 41.5745C31.5417 42.3335 30.942 43.0673 30.3517 43.8101L29.5508 44.863C29.4277 45.0307 29.3013 45.1984 29.1776 45.3661C29.2002 45.408 29.2277 45.447 29.2595 45.4823C29.4722 45.7204 29.6992 45.954 30.0367 45.9652C30.3559 45.5926 30.6716 45.2178 30.9838 44.8407C30.925 44.8407 30.8662 44.8407 30.8062 44.8452L31.4796 44.2186C31.6906 43.9554 31.905 43.6933 32.1117 43.425C32.4354 43.0036 32.7548 42.5799 33.101 42.1803C33.5204 41.6896 33.9766 41.2363 34.5241 40.8742C34.9913 40.5668 35.121 40.0951 35.1996 39.5887C35.2365 39.3584 35.0996 39.2248 34.8742 39.2327C34.6846 39.2405 34.4961 39.2886 34.2575 39.3238C34.3251 39.1796 34.3762 39.0667 34.4318 38.9555C34.5948 38.6257 34.7583 38.2963 34.9221 37.9673C35.1474 37.5176 35.3711 37.0677 35.5932 36.6176C35.6564 36.4901 35.7438 36.3348 35.718 36.2157C35.6786 36.049 35.5809 35.9026 35.4431 35.8038M9.12292 33.4307C8.96407 33.0686 8.76949 32.94 8.50895 32.9993C8.26051 33.0551 8.14948 33.2474 8.15718 33.6425C8.16377 33.9388 8.194 34.235 8.19895 34.5312C8.21874 35.8452 7.92412 37.1021 7.54541 38.3446C7.36622 38.9426 7.27058 39.5663 7.13811 40.1778C7.1579 40.1845 7.17824 40.1906 7.19803 40.1985C7.23376 40.4919 7.25299 40.7898 7.30796 41.0793C7.37282 41.3995 7.57619 41.5454 7.89554 41.5516C8.26271 41.5594 8.44519 41.3571 8.53094 40.9368C8.66506 40.2784 8.82555 39.6245 8.98715 38.9722C9.15205 38.3015 9.36367 37.6409 9.50383 36.9635C9.75997 35.7485 9.61981 34.5642 9.11907 33.429M13.4509 30.7335C13.2986 30.4356 13.1398 30.1427 12.9809 29.851C12.8309 30.4563 12.7495 31.0694 12.6599 31.5472C12.7094 32.1698 12.7374 32.6186 12.782 33.0635C12.8051 33.2988 12.9084 33.4777 13.1722 33.495C13.4361 33.5123 13.6532 33.3832 13.707 33.1172C13.7545 32.8889 13.7644 32.6541 13.7362 32.4225C13.6963 32.1396 13.6963 31.8524 13.7362 31.5696C13.6766 31.2789 13.5808 30.9972 13.4509 30.7312M21.3659 48.2807C21.4 48.1913 21.4247 48.0974 21.4599 48.0097C21.4385 47.6458 21.2148 47.4843 20.8927 47.6318C20.6349 47.7509 20.376 47.8655 20.1232 47.9906C19.9335 48.0851 19.7455 48.1824 19.5664 48.2936C19.087 48.6015 18.6246 48.9358 18.1812 49.2951C18.1917 49.4768 18.201 49.6573 18.2137 49.8361C18.2318 50.1497 18.4187 50.3067 18.7039 50.2833C18.9825 50.2531 19.2582 50.2002 19.5284 50.1251C20.2189 49.6815 20.8175 49.1051 21.2906 48.4283C21.3209 48.3827 21.3458 48.3338 21.3648 48.2824M29.1051 29.1607C29.1084 29.1702 29.1144 29.178 29.1177 29.1875C29.1991 29.3899 29.3579 29.5123 29.5986 29.467L31.5092 29.4435C31.6074 29.4393 31.7015 29.4021 31.7766 29.3376C31.8517 29.2732 31.9036 29.1852 31.9242 29.0875C31.9473 28.9822 31.9627 28.8754 31.9704 28.7678C31.9978 28.4357 31.9702 28.1013 31.8885 27.7786C31.5835 27.4583 31.2487 27.1638 30.8442 26.9564L29.0001 25.2741C28.952 25.2276 28.8932 25.1939 28.8291 25.1761C28.765 25.1584 28.6976 25.1571 28.6329 25.1724C28.5775 25.1825 28.5262 25.2085 28.4849 25.2473C28.4436 25.2861 28.4141 25.3362 28.3999 25.3915L28.1102 25.6665L28.8857 28.3743C28.9028 28.4431 28.9198 28.5124 28.9407 28.5811C28.9896 28.7756 29.0424 28.9724 29.1056 29.1596M2.58862 13.1901C2.80849 13.2751 2.92336 13.0996 3.03934 12.9504C3.12399 12.8386 3.21193 12.7313 3.29658 12.6195C3.30867 12.6022 3.32296 12.5865 3.33341 12.5698C3.43399 12.4311 3.53238 12.2903 3.63242 12.1523C3.97211 11.6738 4.31289 11.196 4.64268 10.7114C4.65303 10.694 4.66098 10.6752 4.66632 10.6555C4.69826 10.5661 4.69708 10.468 4.66302 10.3794C4.52726 10.1095 4.38819 10.0122 4.20021 10.0659C4.10081 10.098 4.00856 10.1497 3.92868 10.2179C3.55147 10.5229 3.2184 10.8803 2.9393 11.2798C2.82553 11.4369 2.71944 11.5967 2.61721 11.7627C2.50728 11.9415 2.40284 12.1265 2.30116 12.3149C2.26319 12.4042 2.23677 12.4981 2.22255 12.5943C2.23025 12.9157 2.35667 13.1024 2.59082 13.1901M26.453 47.6134C26.3553 47.6044 26.2569 47.6108 26.1611 47.6324C26.1369 47.6385 26.1122 47.6402 26.0891 47.648C25.3625 47.8828 24.7066 48.3014 24.1829 48.8648C24.135 48.9179 24.094 48.9771 24.0609 49.0408L22.8231 49.3963L21.7958 49.0408L21.5858 49.2051C21.4962 49.3337 21.4039 49.4622 21.3082 49.588C21.328 49.5813 21.3483 49.5768 21.3681 49.5707L20.907 50.3464C20.907 50.4895 20.9718 50.6119 21.1043 50.7248C21.1584 50.774 21.2227 50.8104 21.2924 50.8313C21.362 50.8522 21.4354 50.857 21.5072 50.8455L21.5567 50.8595C21.5567 50.8595 23.4997 50.248 23.7031 50.2341C23.9064 50.2201 24.4863 49.8428 24.4863 49.8428C24.5896 49.7914 24.693 49.7344 24.7963 49.6813C25.3033 49.4169 25.7949 49.1232 26.2688 48.8016C26.3986 48.7122 26.4942 48.5646 26.5777 48.4048C26.6327 48.293 26.6877 48.1812 26.7377 48.0728C26.8427 47.8532 26.6976 47.6397 26.4557 47.6145M8.92394 4.81556C9.01024 4.85469 9.10863 4.89213 9.19877 4.94243C9.60716 4.75744 10.0117 4.59144 10.3987 4.39248C10.5302 4.31705 10.6353 4.20178 10.6993 4.06273C10.7702 3.90623 10.8582 3.65361 10.7873 3.55971C10.7798 3.55105 10.7716 3.54318 10.7625 3.53624C10.6576 3.42446 10.4327 3.34454 10.286 3.37584C10.1253 3.41164 9.96671 3.4568 9.81109 3.51109C9.59122 3.58319 9.37906 3.66758 9.16964 3.75868C9.01839 3.83296 8.89383 3.95355 8.81346 4.10352C8.78983 4.15047 8.76564 4.20077 8.74201 4.25387C8.68704 4.39248 8.64692 4.54114 8.68704 4.64007C8.71782 4.71496 8.81071 4.76694 8.92174 4.81556M16.3289 3.66311C16.5696 3.71006 16.8131 3.74471 17.0781 3.78663C17.3392 3.74471 17.6167 3.70391 17.8927 3.65361C18.09 3.61784 18.2351 3.51891 18.2565 3.28977C18.278 3.06062 18.2016 2.87562 17.991 2.78005C17.4024 2.51178 16.8071 2.56375 16.2239 2.79737C16.0095 2.88233 15.9524 3.0908 15.9771 3.31659C16.0002 3.52953 16.142 3.62678 16.3289 3.66311ZM14.515 29.7269L17.0984 26.4182L16.6136 25.524L16.6092 25.5128C16.5925 25.3591 16.5258 25.2155 16.4196 25.1048C16.3288 25.001 16.2027 24.9361 16.0667 24.9231L14.0555 23.8892C14.0506 23.8953 14.0445 23.9015 14.0385 23.9093C14.0399 23.9088 14.0414 23.9088 14.0429 23.9093L13.3663 24.8594C13.0271 25.3943 12.7067 25.9415 12.3917 26.4931C12.6599 26.9464 12.9249 27.4013 13.192 27.8546L13.59 28.5314C13.59 28.5314 14.2177 30.2551 14.5167 29.7297M15.2505 33.3033C15.2889 33.5324 15.3282 33.7614 15.3681 33.9902C15.3879 34.102 15.4297 34.2065 15.4571 34.316L15.6132 35.0784L15.8617 36.0805L16.2343 36.0648C16.2343 36.0693 16.2343 36.0754 16.2343 36.0805C16.4053 36.0676 16.5812 36.0553 16.784 36.0414C16.6713 35.4299 16.5773 34.8744 16.4723 34.3333L16.1426 32.7813C16.081 32.5208 16.0145 32.2621 15.9342 32.0066C15.8793 31.8216 15.8095 31.6378 15.7402 31.4561C15.7512 31.4422 15.7589 31.431 15.7682 31.417L15.8172 31.4215L16.7411 30.1735L16.28 29.2172C15.9947 29.4335 15.8161 29.5995 15.7386 29.7515L14.7701 30.7038L14.8454 31.3265L15.2505 33.3033ZM23.2754 24.0004L23.9944 25.4396L24.4847 26.8743C24.5341 27.0296 24.5845 27.1848 24.6358 27.3398C24.7117 27.5723 24.8408 27.7383 25.1074 27.7339C25.374 27.7294 25.5719 27.5846 25.6538 27.3102C25.6784 27.2429 25.6914 27.1718 25.6923 27.1001C25.6846 26.9855 25.6829 26.8698 25.6796 26.7535C25.6763 26.6373 25.6703 26.53 25.6598 26.421C25.651 26.3064 25.6313 26.193 25.601 26.0823C25.5642 25.9571 25.5257 25.8314 25.4872 25.7045C25.3526 25.2437 25.186 24.7932 24.9887 24.3564L24.4709 23.4063C24.2658 23.0759 24.039 22.76 23.7921 22.4606C23.6195 22.7132 23.4469 22.967 23.2694 23.2274L23.2787 23.2369L23.0699 23.546L23.2754 24.0004ZM28.9259 30.9766C28.8456 30.5999 28.756 30.2271 28.6604 29.8538L28.6516 29.8677L28.4911 29.2155C28.4911 29.2155 28.4944 29.2121 28.4944 29.211C28.4664 29.0992 28.4394 28.9925 28.4092 28.883C28.1608 27.9362 27.9145 26.9827 27.7557 26.0197C27.6931 26.0777 27.6223 26.1257 27.5457 26.1622C27.1609 26.3332 26.8564 26.597 26.5838 26.8888C26.7426 27.8579 26.9026 28.8271 27.1939 29.7666L28.9259 30.9766ZM25.6741 20.6464C25.5768 20.5145 25.4724 20.4536 25.3702 20.4503C25.2564 20.4441 25.1453 20.5101 25.0541 20.6386C24.826 20.9572 24.6023 21.2785 24.3769 21.6044C24.638 21.8966 24.8782 22.2074 25.0959 22.5344C25.142 22.6031 25.1805 22.6741 25.2223 22.7429L25.7126 23.679L26.4326 26.0376C26.724 25.7268 26.968 25.3865 27.1175 24.9444L27.6787 24.4145C27.6999 24.4216 27.7215 24.4268 27.7436 24.4302C28.0228 24.4207 28.1382 24.2418 28.1382 23.9831C28.1382 23.8154 27.981 23.5918 27.776 23.4448L27.1923 22.5797L26.437 21.6765C26.1452 21.2853 25.9094 20.965 25.6736 20.6464M21.3588 19.4029L23.8872 21.0919L24.4116 20.4614C24.4319 20.4771 24.4517 20.4927 24.4731 20.5084C24.5984 20.3251 24.6847 20.201 24.7694 20.0724C24.7969 20.03 24.82 19.9847 24.8447 19.9405C24.4204 19.557 23.9696 19.2049 23.4958 18.887C23.023 18.5734 22.5251 18.3006 22.0074 18.0716C21.7912 18.5142 21.5753 18.958 21.3599 19.4029M19.0244 18.6176L19.9253 18.8574C20.1226 18.9172 20.3183 18.9798 20.5129 19.0502C20.6393 19.0955 20.7597 19.1491 20.8828 19.1989C20.9084 19.1791 20.9313 19.156 20.9509 19.1301C20.9862 19.0759 21.0068 19.0133 21.0108 18.9485L21.0433 18.8496L21.3516 17.8039C20.6937 17.5631 20.0186 17.3738 19.3322 17.2377L18.3065 17.1684V17.691C18.3357 17.8519 18.3098 18.0822 18.4049 18.1627C18.6023 18.3259 18.8122 18.4745 19.0249 18.6176M19.6422 16.1149C19.6499 16.1182 19.6592 16.1182 19.668 16.121L20.9971 16.695C21.2395 16.8068 21.4803 16.9186 21.7205 17.0337L21.9057 15.357C21.6451 15.2452 21.3797 15.1468 21.1114 15.0541C21.0268 15.0228 20.9559 14.9982 20.9191 14.9853C20.7459 14.9294 19.944 14.5321 19.8302 14.5712C19.7164 14.6103 18.1741 14.4002 18.1741 14.4002L18.2433 15.9209L19.6422 16.1149ZM22.0013 14.5734L22.0805 12.8609C21.3532 12.5421 20.5956 12.2999 19.8197 12.1383C19.2526 12.0228 18.678 11.9494 18.1004 11.9186C18.1144 12.431 18.1292 12.9433 18.1449 13.4556C18.3395 13.4774 18.5369 13.5026 18.7358 13.5367C19.2641 13.6305 19.7859 13.759 20.2979 13.9212L22.0013 14.5734ZM29.2458 42.5425C29.2473 42.6142 29.2638 42.6848 29.2944 42.7495C29.3249 42.8142 29.3687 42.8714 29.4228 42.9175C29.4866 42.9788 29.5638 43.0238 29.6481 43.0488L30.2401 42.8074C30.6253 42.512 30.9684 42.1639 31.2597 41.7729L31.6203 41.1754C31.7204 40.9715 31.8021 40.7589 31.8643 40.5399C31.8924 40.4433 31.9264 40.3505 31.9556 40.2549L32.3134 39.2718C32.2364 39.0974 32.1589 38.9236 32.0897 38.7481C31.8938 38.2602 31.6411 37.7979 31.3372 37.371C31.3372 37.3743 31.3372 37.3788 31.3372 37.3822L30.9612 36.6556C31.1295 35.5524 31.1642 34.4324 31.0646 33.3206C31.0442 33.0915 31.0151 32.8623 30.9827 32.6354C30.9393 32.3185 30.8887 32.0016 30.8348 31.6853C30.8051 31.5176 30.7744 31.3499 30.7469 31.1823C30.7358 31.1242 30.7173 31.0678 30.6919 31.0146C30.6023 30.8307 30.4358 30.7542 30.217 30.7793C29.9576 30.8072 29.868 30.9263 29.868 31.2823C29.868 31.4176 29.8713 31.5523 29.8713 31.687C29.879 32.3174 29.8927 32.9495 29.879 33.58C29.8625 34.2903 29.8636 35.0051 29.8174 35.7122C29.8004 35.9648 29.7789 36.2152 29.7465 36.4667C29.6051 37.6346 29.2614 38.7679 28.7313 39.8139L29.4008 42.1753L29.2908 42.3295C29.2578 42.3954 29.2414 42.4686 29.243 42.5425M15.5006 9.37508L18.5434 9.27336L20.2798 9.33931C20.2924 9.34378 20.3029 9.3516 20.3139 9.35663L21.3423 9.7311C21.339 9.7406 21.3346 9.7501 21.3313 9.76128C21.572 9.83002 21.8128 9.9038 22.0519 9.98819C22.1778 10.034 22.28 10.034 22.3526 9.98819H22.4757L22.4603 9.79537C22.4655 9.78065 22.4696 9.7655 22.4724 9.7501C22.4792 9.64203 22.4661 9.53362 22.4339 9.43041L22.4015 8.99279L21.0433 8.378C21.0329 8.37227 21.0209 8.37011 21.0092 8.37185L20.7932 8.32826C20.1731 8.12012 19.5297 7.99206 18.8782 7.94709L17.6689 7.90908C17.2646 7.91597 16.861 7.94489 16.4597 7.99571L15.3747 8.18071L15.4022 8.57194L15.5006 9.37508ZM29.0451 15.6739C28.8198 15.9567 28.7395 16.1635 28.806 16.3513V16.4675L28.9325 16.5553C29.0318 16.6537 29.1425 16.7395 29.2623 16.8107C29.4239 16.913 29.5844 17.018 29.8191 17.1684L30.2753 17.8553C30.2753 17.8832 30.2709 17.9112 30.2709 17.9397C30.3429 18.0185 30.4187 18.095 30.4907 18.175C30.9041 17.9872 31.2465 17.7234 31.5642 17.4383C31.2773 17.103 30.981 16.7794 30.6754 16.4675C30.6739 16.4735 30.6719 16.4793 30.6694 16.4849L30.256 16.0444C29.9724 15.7702 29.684 15.5031 29.3909 15.243C29.2755 15.3855 29.1617 15.5314 29.0473 15.6739M32.7438 21.2942L33.5221 22.82C33.8216 22.4763 34.119 22.1331 34.4186 21.7894C34.2427 21.4168 34.054 21.0494 33.8524 20.6872C33.8524 20.6872 33.2797 19.7293 33.2181 19.6303C33.1961 19.5974 33.178 19.5644 33.1566 19.5314C32.8619 19.0843 32.5453 18.6579 32.2221 18.2409L31.639 18.749L31.2844 19.1301L32.7438 21.2942ZM34.0541 36.2409C34.9133 34.7447 35.2447 33.1077 35.0287 31.336C35.0028 31.1235 34.9661 30.9125 34.9188 30.7038C34.8726 30.4903 34.8171 30.2802 34.7539 30.0734C34.6786 29.8225 34.4719 29.7146 34.2405 29.7224C34.2158 29.7199 34.1909 29.7199 34.1663 29.7224C34.0916 29.7306 34.0197 29.756 33.956 29.7967C33.8924 29.8374 33.8388 29.8922 33.7991 29.9572L32.8312 30.473L31.9396 30.5988C31.6868 30.658 31.5549 30.8167 31.5494 31.132L31.3487 32.9411L32.7987 34.3166L34.0541 36.2409ZM12.7237 43.885C12.9287 43.6089 13.1277 43.3261 13.3047 43.0332C14.0495 41.7991 14.3908 40.4036 14.708 39.0019C14.8069 38.5676 14.9086 38.1316 15.0075 37.6957C14.9795 37.5124 14.9526 37.3274 14.9212 37.1424C14.9135 37.0921 14.8855 37.0463 14.8745 36.9965C14.7917 36.603 14.7102 36.2088 14.6299 35.8139C14.5749 35.5395 14.5249 35.265 14.4678 34.9912C14.3611 34.4938 14.2578 33.998 14.1501 33.5011C13.9525 34.2996 13.8302 35.1154 13.7845 35.9374C13.7351 36.9082 13.6257 37.879 13.4822 38.8398C13.2228 40.5634 12.6402 42.1406 11.5425 43.4641L11.1462 43.9157C11.0616 44.0074 10.9919 44.1121 10.9395 44.2259C10.7746 44.5774 10.8422 44.891 11.1215 45.0888C11.3847 45.2738 11.6563 45.2487 11.9091 44.9284C12.0416 44.7608 12.1762 44.5931 12.3087 44.4254L12.7237 43.885ZM20.9768 7.67714C21.0202 7.69614 21.5814 7.80233 21.5814 7.80233L22.1168 8.00968C22.6093 8.2413 23.037 8.59442 23.3612 9.03694C23.5843 8.53393 23.7575 8.05216 23.8009 7.74476C23.4235 7.52977 23.0239 7.30342 22.6021 7.0657L21.9579 6.64373C21.273 6.51239 20.5898 6.39446 19.9033 6.30503L18.9414 6.17034C18.8491 6.49953 18.8864 7.16295 18.8578 7.39992C19.5504 7.45134 20.2424 7.54244 20.9366 7.66316C20.9504 7.66739 20.9638 7.67262 20.9768 7.67881M20.3029 5.64497L20.3386 5.67012C20.3386 5.67012 21.1757 5.78749 21.2181 5.82494C21.273 5.7657 21.3676 5.41135 21.3874 5.31858C21.4423 5.06595 21.3324 4.88151 21.0141 4.75297C20.4513 4.52382 19.6988 4.28684 19.1035 4.20357C19.0002 4.42713 18.8837 5.22803 18.8897 5.40017C18.905 5.40305 18.9204 5.4051 18.9359 5.40632L20.3029 5.64497ZM17.5101 14.294L15.2648 14.6612C15.1751 14.6599 15.0861 14.6771 15.0031 14.7115C14.7563 14.8149 14.5084 14.9166 14.2578 15.0189L12.8578 15.5738L13.22 16.3172C13.2422 16.4386 13.289 16.5539 13.3575 16.6559C13.3882 16.7062 13.424 16.7531 13.4547 16.8017L14.1237 18.0716L14.244 18.1487C14.4568 18.4326 14.6667 18.4404 15.3544 18.3085C15.5998 18.2944 15.8437 18.2604 16.0837 18.2068C16.5636 18.2068 17.0044 18.2381 17.4364 18.1861C17.515 18.1766 17.6134 18.0872 17.686 17.9855L17.697 17.9794C17.697 17.9794 17.697 17.9699 17.697 17.9682C17.7386 17.9145 17.7657 17.8508 17.7756 17.7832C17.7789 17.7223 17.7756 17.6608 17.7756 17.5999C17.8256 17.3349 17.8635 17.0292 17.7756 17.0259C17.6233 17.0197 16.2756 17.0102 16.2756 17.0102L15.5797 16.9543L15.273 15.9522L17.5447 15.6839L17.5101 14.294ZM2.53146 19.7242L2.7876 20.1557C2.86015 20.2781 2.93436 20.3988 3.00746 20.5179C3.07991 20.6194 3.18004 20.6972 3.29548 20.7414C3.41915 20.7934 3.54392 20.8437 3.6676 20.8951L4.56353 19.5152L4.60476 19.4543C4.65423 19.385 4.69875 19.3129 4.74217 19.2408L5.99263 18.2152L6.9243 17.1695L5.05218 14.8255L3.744 16.8017L1.91969 18.8261L2.16484 19.0927C2.29456 19.3162 2.41438 19.5219 2.53146 19.7242ZM7.80265 22.4629C8.34571 22.6864 8.8283 22.891 8.8283 22.891C8.89316 22.9318 8.96407 22.9698 9.04102 23.0106C9.42172 23.2048 9.78196 23.4379 10.1161 23.7064C10.574 22.9743 11.044 22.2499 11.5408 21.544C11.6904 21.3328 11.8459 21.1304 12.0097 20.9387C11.7228 20.5266 11.4349 20.1117 11.1462 19.6941C11.061 19.7287 10.8884 19.7645 10.7614 19.8617C10.2821 20.2256 9.81603 20.6079 9.35047 20.989C9.28891 21.0393 9.2301 21.0924 9.17184 21.1444L8.74311 21.0002L7.87025 20.4139L6.31638 21.8442L7.81969 22.4388L7.80265 22.4629ZM7.80265 22.4629C7.14306 22.1873 6.39773 21.8749 6.31858 21.8419L7.80265 22.4645V22.4629ZM5.89205 13.777C6.0476 13.5635 6.24053 13.3109 6.45654 13.0649L5.89205 13.777ZM7.39261 17.0102C7.56942 16.636 7.77355 16.2758 8.00327 15.9327C8.10331 15.7857 8.25446 15.5694 8.45674 15.3212C8.66425 15.0653 8.88711 14.8227 9.12402 14.5947C9.08298 13.7526 9.04138 12.9111 8.99924 12.0701C9.01826 12.0234 9.02674 11.9729 9.02408 11.9224C9.02142 11.872 9.00767 11.8227 8.98385 11.7783C8.93806 11.669 8.85358 11.5811 8.74712 11.5321C8.64066 11.483 8.51997 11.4764 8.40892 11.5134C8.19793 11.5726 7.99999 11.6722 7.82573 11.8069C7.69327 11.9186 7.60587 11.9857 7.4866 12.0936C7.15186 12.3998 7.0007 12.5172 6.86988 12.6363C6.75116 12.7447 6.63683 12.8637 6.52415 12.9878H6.5181C6.50756 12.9884 6.49725 12.9912 6.4878 12.9961C6.47836 13.0009 6.46996 13.0076 6.46314 13.0158C6.29824 13.1834 5.45452 14.2124 5.51279 14.2515L7.39261 17.0102Z" fill="black"/>
</mask>
<g mask="url(#mask0_227_194)">
<rect width="55.1605" height="55.652" transform="matrix(0.961212 -0.27581 0.270539 0.962709 -15.5391 7.31934)" fill="black"/>
</g>
</svg>
